<svg width="869" height="404" viewBox="0 0 869 404" fill="none" xmlns="http://www.w3.org/2000/svg">
<line opacity="0.9" x1="240.5" y1="-1.85462e-08" x2="240.5" y2="404" stroke="url(#paint0_radial)"/>
<line opacity="0.9" x1="298.5" y1="-1.85462e-08" x2="298.5" y2="404" stroke="url(#paint1_radial)" stroke-dasharray="2 2"/>
<line opacity="0.9" x1="202" y1="100.5" x2="869" y2="100.5" stroke="url(#paint2_radial)"/>
<path opacity="0.9" d="M255.768 149.624L255.415 150.286L255.418 150.287L255.768 149.624ZM245.76 140.264L245.118 140.651L245.121 140.657L245.76 140.264ZM245.76 113.336L245.121 112.943L245.118 112.949L245.76 113.336ZM255.768 103.976L255.418 103.313L255.415 103.314L255.768 103.976ZM284.496 103.976L284.143 104.638L284.146 104.639L284.496 103.976ZM294.504 113.336L293.862 113.723L293.865 113.729L294.504 113.336ZM294.504 140.264L293.865 139.871L293.862 139.877L294.504 140.264ZM284.496 149.624L284.146 148.961L284.143 148.962L284.496 149.624ZM277.08 139.4L277.457 140.048L277.08 139.4ZM281.976 134.36L282.632 134.724L282.635 134.718L281.976 134.36ZM281.976 119.312L281.317 119.67L281.32 119.676L281.976 119.312ZM277.08 114.2L277.457 113.552H277.457L277.08 114.2ZM263.256 114.2L262.879 113.552L263.256 114.2ZM258.36 119.312L259.016 119.676L259.019 119.67L258.36 119.312ZM258.36 134.36L257.701 134.718L257.704 134.724L258.36 134.36ZM263.256 139.4L263.633 138.752L263.256 139.4ZM270.168 152.258C264.949 152.258 260.272 151.154 256.118 148.961L255.418 150.287C259.808 152.606 264.731 153.758 270.168 153.758V152.258ZM256.121 148.962C252.012 146.768 248.776 143.739 246.399 139.871L245.121 140.657C247.64 144.757 251.076 147.968 255.415 150.286L256.121 148.962ZM246.402 139.877C244.078 136.018 242.91 131.666 242.91 126.8H241.41C241.41 131.918 242.642 136.542 245.118 140.651L246.402 139.877ZM242.91 126.8C242.91 121.934 244.078 117.582 246.402 113.723L245.118 112.949C242.642 117.058 241.41 121.682 241.41 126.8H242.91ZM246.399 113.729C248.776 109.861 252.012 106.832 256.121 104.638L255.415 103.314C251.076 105.632 247.64 108.843 245.121 112.943L246.399 113.729ZM256.118 104.639C260.272 102.446 264.949 101.342 270.168 101.342V99.842C264.731 99.842 259.808 100.994 255.418 103.313L256.118 104.639ZM270.168 101.342C275.387 101.342 280.039 102.446 284.143 104.638L284.849 103.314C280.505 100.994 275.605 99.842 270.168 99.842V101.342ZM284.146 104.639C288.302 106.834 291.535 109.861 293.862 113.723L295.146 112.949C292.673 108.843 289.234 105.63 284.846 103.313L284.146 104.639ZM293.865 113.729C296.235 117.586 297.426 121.937 297.426 126.8H298.926C298.926 121.679 297.669 117.054 295.143 112.943L293.865 113.729ZM297.426 126.8C297.426 131.663 296.235 136.014 293.865 139.871L295.143 140.657C297.669 136.546 298.926 131.921 298.926 126.8H297.426ZM293.862 139.877C291.535 143.739 288.302 146.766 284.146 148.961L284.846 150.287C289.234 147.97 292.673 144.757 295.146 140.651L293.862 139.877ZM284.143 148.962C280.039 151.154 275.387 152.258 270.168 152.258V153.758C275.605 153.758 280.505 152.606 284.849 150.286L284.143 148.962ZM270.168 141.95C272.835 141.95 275.271 141.319 277.457 140.048L276.703 138.752C274.761 139.881 272.589 140.45 270.168 140.45V141.95ZM277.457 140.048C279.642 138.778 281.368 136.998 282.632 134.724L281.32 133.996C280.184 136.042 278.646 137.622 276.703 138.752L277.457 140.048ZM282.635 134.718C283.902 132.387 284.526 129.741 284.526 126.8H283.026C283.026 129.523 282.45 131.917 281.317 134.002L282.635 134.718ZM284.526 126.8C284.526 123.859 283.902 121.235 282.632 118.948L281.32 119.676C282.45 121.709 283.026 124.077 283.026 126.8H284.526ZM282.635 118.954C281.373 116.632 279.646 114.824 277.457 113.552L276.703 114.848C278.642 115.976 280.179 117.576 281.317 119.67L282.635 118.954ZM277.457 113.552C275.271 112.281 272.835 111.65 270.168 111.65V113.15C272.589 113.15 274.761 113.719 276.703 114.848L277.457 113.552ZM270.168 111.65C267.501 111.65 265.065 112.281 262.879 113.552L263.633 114.848C265.575 113.719 267.747 113.15 270.168 113.15V111.65ZM262.879 113.552C260.69 114.824 258.963 116.632 257.701 118.954L259.019 119.67C260.157 117.576 261.694 115.976 263.633 114.848L262.879 113.552ZM257.704 118.948C256.434 121.235 255.81 123.859 255.81 126.8H257.31C257.31 124.077 257.886 121.709 259.016 119.676L257.704 118.948ZM255.81 126.8C255.81 129.741 256.434 132.387 257.701 134.718L259.019 134.002C257.886 131.917 257.31 129.523 257.31 126.8H255.81ZM257.704 134.724C258.968 136.998 260.694 138.778 262.879 140.048L263.633 138.752C261.69 137.622 260.152 136.042 259.016 133.996L257.704 134.724ZM262.879 140.048C265.065 141.319 267.501 141.95 270.168 141.95V140.45C267.747 140.45 265.575 139.881 263.633 138.752L262.879 140.048ZM379.744 101.6H380.494V100.85H379.744V101.6ZM379.744 152V152.75H380.494V152H379.744ZM365.488 152H364.738V152.75H365.488V152ZM365.488 132.344H366.238V131.594H365.488V132.344ZM346.048 132.344V131.594H345.298V132.344H346.048ZM346.048 152V152.75H346.798V152H346.048ZM331.792 152H331.042V152.75H331.792V152ZM331.792 101.6V100.85H331.042V101.6H331.792ZM346.048 101.6H346.798V100.85H346.048V101.6ZM346.048 120.536H345.298V121.286H346.048V120.536ZM365.488 120.536V121.286H366.238V120.536H365.488ZM365.488 101.6V100.85H364.738V101.6H365.488ZM378.994 101.6V152H380.494V101.6H378.994ZM379.744 151.25H365.488V152.75H379.744V151.25ZM366.238 152V132.344H364.738V152H366.238ZM365.488 131.594H346.048V133.094H365.488V131.594ZM345.298 132.344V152H346.798V132.344H345.298ZM346.048 151.25H331.792V152.75H346.048V151.25ZM332.542 152V101.6H331.042V152H332.542ZM331.792 102.35H346.048V100.85H331.792V102.35ZM345.298 101.6V120.536H346.798V101.6H345.298ZM346.048 121.286H365.488V119.786H346.048V121.286ZM366.238 120.536V101.6H364.738V120.536H366.238ZM365.488 102.35H379.744V100.85H365.488V102.35ZM427.869 142.208L428.564 141.927L428.375 141.458H427.869V142.208ZM406.557 142.208V141.458H406.051L405.862 141.927L406.557 142.208ZM402.597 152V152.75H403.103L403.292 152.281L402.597 152ZM388.053 152L387.367 151.697L386.902 152.75H388.053V152ZM410.301 101.6V100.85H409.812L409.615 101.297L410.301 101.6ZM424.341 101.6L425.027 101.296L424.829 100.85H424.341V101.6ZM446.661 152V152.75H447.813L447.347 151.696L446.661 152ZM431.829 152L431.134 152.281L431.323 152.75H431.829V152ZM423.693 131.696V132.446H424.802L424.389 131.416L423.693 131.696ZM417.213 115.568L417.909 115.288L417.213 113.556L416.517 115.288L417.213 115.568ZM410.733 131.696L410.037 131.416L409.623 132.446H410.733V131.696ZM427.869 141.458H406.557V142.958H427.869V141.458ZM405.862 141.927L401.902 151.719L403.292 152.281L407.252 142.489L405.862 141.927ZM402.597 151.25H388.053V152.75H402.597V151.25ZM388.739 152.303L410.987 101.903L409.615 101.297L387.367 151.697L388.739 152.303ZM410.301 102.35H424.341V100.85H410.301V102.35ZM423.655 101.904L445.975 152.304L447.347 151.696L425.027 101.296L423.655 101.904ZM446.661 151.25H431.829V152.75H446.661V151.25ZM432.524 151.719L428.564 141.927L427.174 142.489L431.134 152.281L432.524 151.719ZM424.389 131.416L417.909 115.288L416.517 115.848L422.997 131.976L424.389 131.416ZM416.517 115.288L410.037 131.416L411.429 131.976L417.909 115.848L416.517 115.288ZM410.733 132.446H423.693V130.946H410.733V132.446ZM464.549 149.696L464.193 150.356L464.202 150.361L464.549 149.696ZM454.685 140.336L454.043 140.723L454.685 140.336ZM454.685 113.264L454.043 112.877L454.685 113.264ZM464.549 103.976L464.9 104.639L464.903 104.638L464.549 103.976ZM491.261 103.04L490.958 103.726L491.261 103.04ZM500.477 110.096L500.981 110.652L501.503 110.18L501.064 109.629L500.477 110.096ZM491.405 118.304L490.828 118.783L491.328 119.386L491.909 118.86L491.405 118.304ZM472.181 114.2L471.817 113.544L471.811 113.548L472.181 114.2ZM467.213 119.312L466.554 118.954L466.552 118.959L467.213 119.312ZM467.213 134.36L466.549 134.707L466.553 134.716L466.558 134.724L467.213 134.36ZM472.181 139.4L471.811 140.052L471.817 140.056L472.181 139.4ZM491.405 135.296L491.909 134.74L491.328 134.214L490.828 134.817L491.405 135.296ZM500.477 143.504L501.064 143.971L501.503 143.42L500.981 142.948L500.477 143.504ZM491.261 150.56L491.564 151.246L491.261 150.56ZM478.805 152.258C473.633 152.258 469.002 151.177 464.897 149.031L464.202 150.361C468.544 152.631 473.418 153.758 478.805 153.758V152.258ZM464.906 149.036C460.845 146.843 457.657 143.816 455.328 139.949L454.043 140.723C456.514 144.824 459.902 148.037 464.193 150.356L464.906 149.036ZM455.328 139.949C453.004 136.092 451.835 131.715 451.835 126.8H450.335C450.335 131.965 451.567 136.612 454.043 140.723L455.328 139.949ZM451.835 126.8C451.835 121.885 453.004 117.508 455.328 113.651L454.043 112.877C451.567 116.988 450.335 121.635 450.335 126.8H451.835ZM455.328 113.651C457.656 109.786 460.843 106.784 464.9 104.639L464.199 103.313C459.904 105.584 456.515 108.774 454.043 112.877L455.328 113.651ZM464.903 104.638C469.007 102.445 473.636 101.342 478.805 101.342V99.842C473.415 99.842 468.54 100.995 464.196 103.314L464.903 104.638ZM478.805 101.342C483.324 101.342 487.37 102.142 490.958 103.726L491.564 102.354C487.76 100.674 483.503 99.842 478.805 99.842V101.342ZM490.958 103.726C494.547 105.311 497.521 107.589 499.891 110.563L501.064 109.629C498.538 106.459 495.368 104.033 491.564 102.354L490.958 103.726ZM499.974 109.54L490.902 117.748L491.909 118.86L500.981 110.652L499.974 109.54ZM491.983 117.825C488.592 113.737 484.428 111.65 479.525 111.65V113.15C483.934 113.15 487.691 114.999 490.828 118.783L491.983 117.825ZM479.525 111.65C476.676 111.65 474.1 112.276 471.817 113.544L472.546 114.856C474.583 113.724 476.903 113.15 479.525 113.15V111.65ZM471.811 113.548C469.573 114.82 467.819 116.627 466.554 118.954L467.872 119.67C469.008 117.581 470.566 115.98 472.552 114.852L471.811 113.548ZM466.552 118.959C465.333 121.244 464.735 123.864 464.735 126.8H466.235C466.235 124.072 466.79 121.7 467.875 119.665L466.552 118.959ZM464.735 126.8C464.735 129.736 465.333 132.378 466.549 134.707L467.878 134.013C466.79 131.926 466.235 129.528 466.235 126.8H464.735ZM466.558 134.724C467.823 137.002 469.577 138.783 471.811 140.052L472.552 138.748C470.562 137.617 469.003 136.038 467.869 133.996L466.558 134.724ZM471.817 140.056C474.1 141.324 476.676 141.95 479.525 141.95V140.45C476.903 140.45 474.583 139.876 472.546 138.744L471.817 140.056ZM479.525 141.95C484.428 141.95 488.592 139.863 491.983 135.775L490.828 134.817C487.691 138.601 483.934 140.45 479.525 140.45V141.95ZM490.902 135.852L499.974 144.06L500.981 142.948L491.909 134.74L490.902 135.852ZM499.891 143.037C497.521 146.011 494.547 148.289 490.958 149.874L491.564 151.246C495.368 149.567 498.538 147.141 501.064 143.971L499.891 143.037ZM490.958 149.874C487.37 151.458 483.324 152.258 478.805 152.258V153.758C483.503 153.758 487.76 152.926 491.564 151.246L490.958 149.874Z" fill="#C3C3C5" fill-opacity="0.9"/>
<line opacity="0.9" y1="152.5" x2="774" y2="152.5" stroke="url(#paint3_radial)"/>
<defs>
<radialGradient id="paint0_radial" cx="0" cy="0" r="1" gradientUnits="userSpaceOnUse" gradientTransform="translate(240 209.77) rotate(-173.078) scale(64.4702 26570.1)">
<stop offset="0.401042" stop-color="#C3C3C5"/>
<stop offset="1" stop-color="white" stop-opacity="0"/>
</radialGradient>
<radialGradient id="paint1_radial" cx="0" cy="0" r="1" gradientUnits="userSpaceOnUse" gradientTransform="translate(298 209.77) rotate(-173.078) scale(64.4702 26570.1)">
<stop offset="0.401042" stop-color="#C3C3C5"/>
<stop offset="1" stop-color="white" stop-opacity="0"/>
</radialGradient>
<radialGradient id="paint2_radial" cx="0" cy="0" r="1" gradientUnits="userSpaceOnUse" gradientTransform="translate(548.328 101) rotate(101.333) scale(65.2731 43327.4)">
<stop offset="0.401042" stop-color="#C3C3C5"/>
<stop offset="1" stop-color="white" stop-opacity="0"/>
</radialGradient>
<radialGradient id="paint3_radial" cx="0" cy="0" r="1" gradientUnits="userSpaceOnUse" gradientTransform="translate(401.885 153) rotate(103.093) scale(65.7085 49944.8)">
<stop stop-color="#AEAEC0"/>
<stop offset="1" stop-color="white" stop-opacity="0"/>
</radialGradient>
</defs>
</svg>
