<svg width="403" height="511" viewBox="0 0 403 511" fill="none" xmlns="http://www.w3.org/2000/svg">
<g filter="url(#filter0_dd)">
<path fill-rule="evenodd" clip-rule="evenodd" d="M355.564 -163.278C421.094 -168.787 494.234 -162.904 542.739 -118.499C589.914 -75.3117 576.176 0.302811 599.361 59.9108C624.711 125.085 706.97 179.781 684.52 246.01C662.005 312.429 561.453 303.247 503.491 342.729C448.367 380.277 422.205 467.341 355.564 470.081C289.15 472.812 251.425 395.519 198.526 355.27C147.255 316.259 78.1158 296.49 50.7594 238.162C22.0173 176.879 24.1851 102.349 50.6934 40.0668C76.0852 -19.5918 135.998 -52.8625 189.938 -88.8398C241.556 -123.269 293.735 -158.08 355.564 -163.278Z" fill="#252525"/>
</g>
<g filter="url(#filter1_dd)">
<path fill-rule="evenodd" clip-rule="evenodd" d="M349.056 -113.598C402.408 -118.082 461.954 -113.294 501.444 -77.1493C539.852 -41.9956 528.666 19.5531 547.543 68.0727C568.182 121.123 635.152 165.644 616.874 219.553C598.544 273.617 516.68 266.144 469.49 298.281C424.612 328.844 403.312 399.712 349.056 401.943C294.985 404.166 264.272 341.251 221.205 308.489C179.463 276.735 123.173 260.644 100.901 213.166C77.5009 163.283 79.2658 102.616 100.847 51.9201C121.52 3.35928 170.297 -23.7224 214.212 -53.0072C256.237 -81.0315 298.719 -109.367 349.056 -113.598Z" fill="#242424"/>
</g>
<g filter="url(#filter2_dd)">
<path fill-rule="evenodd" clip-rule="evenodd" d="M370.21 -71.91C411.716 -75.3968 458.042 -71.6736 488.765 -43.5687C518.646 -16.2345 509.944 31.6235 524.629 69.3505C540.686 110.6 592.788 145.219 578.568 187.136C564.308 229.174 500.619 223.363 463.906 248.352C428.991 272.117 412.42 327.221 370.21 328.955C328.143 330.684 304.249 281.764 270.743 256.289C238.268 231.598 194.476 219.087 177.149 182.169C158.944 143.382 160.317 96.2102 177.107 56.7909C193.19 19.0318 231.138 -2.02594 265.303 -24.7967C297.998 -46.5873 331.048 -68.6202 370.21 -71.91Z" fill="#222222"/>
</g>
<defs>
<filter id="filter0_dd" x="0" y="-205" width="723.359" height="715.151" filterUnits="userSpaceOnUse" color-interpolation-filters="sRGB">
<feFlood flood-opacity="0" result="BackgroundImageFix"/>
<feColorMatrix in="SourceAlpha" type="matrix" values="0 0 0 0 0 0 0 0 0 0 0 0 0 0 0 0 0 0 127 0"/>
<feOffset dy="10"/>
<feGaussianBlur stdDeviation="15"/>
<feColorMatrix type="matrix" values="0 0 0 0 0 0 0 0 0 0 0 0 0 0 0 0 0 0 0.7 0"/>
<feBlend mode="normal" in2="BackgroundImageFix" result="effect1_dropShadow"/>
<feColorMatrix in="SourceAlpha" type="matrix" values="0 0 0 0 0 0 0 0 0 0 0 0 0 0 0 0 0 0 127 0"/>
<feOffset dx="5" dy="-10"/>
<feGaussianBlur stdDeviation="15"/>
<feColorMatrix type="matrix" values="0 0 0 0 0.25098 0 0 0 0 0.25098 0 0 0 0 0.25098 0 0 0 1 0"/>
<feBlend mode="normal" in2="effect1_dropShadow" result="effect2_dropShadow"/>
<feBlend mode="normal" in="SourceGraphic" in2="effect2_dropShadow" result="shape"/>
</filter>
<filter id="filter1_dd" x="54" y="-155" width="601" height="597" filterUnits="userSpaceOnUse" color-interpolation-filters="sRGB">
<feFlood flood-opacity="0" result="BackgroundImageFix"/>
<feColorMatrix in="SourceAlpha" type="matrix" values="0 0 0 0 0 0 0 0 0 0 0 0 0 0 0 0 0 0 127 0"/>
<feOffset dy="10"/>
<feGaussianBlur stdDeviation="15"/>
<feColorMatrix type="matrix" values="0 0 0 0 0 0 0 0 0 0 0 0 0 0 0 0 0 0 0.7 0"/>
<feBlend mode="normal" in2="BackgroundImageFix" result="effect1_dropShadow"/>
<feColorMatrix in="SourceAlpha" type="matrix" values="0 0 0 0 0 0 0 0 0 0 0 0 0 0 0 0 0 0 127 0"/>
<feOffset dx="5" dy="-10"/>
<feGaussianBlur stdDeviation="15"/>
<feColorMatrix type="matrix" values="0 0 0 0 0.25098 0 0 0 0 0.25098 0 0 0 0 0.25098 0 0 0 1 0"/>
<feBlend mode="normal" in2="effect1_dropShadow" result="effect2_dropShadow"/>
<feBlend mode="normal" in="SourceGraphic" in2="effect2_dropShadow" result="shape"/>
</filter>
<filter id="filter2_dd" x="134" y="-113" width="482" height="482" filterUnits="userSpaceOnUse" color-interpolation-filters="sRGB">
<feFlood flood-opacity="0" result="BackgroundImageFix"/>
<feColorMatrix in="SourceAlpha" type="matrix" values="0 0 0 0 0 0 0 0 0 0 0 0 0 0 0 0 0 0 127 0"/>
<feOffset dy="10"/>
<feGaussianBlur stdDeviation="15"/>
<feColorMatrix type="matrix" values="0 0 0 0 0 0 0 0 0 0 0 0 0 0 0 0 0 0 0.7 0"/>
<feBlend mode="normal" in2="BackgroundImageFix" result="effect1_dropShadow"/>
<feColorMatrix in="SourceAlpha" type="matrix" values="0 0 0 0 0 0 0 0 0 0 0 0 0 0 0 0 0 0 127 0"/>
<feOffset dx="5" dy="-10"/>
<feGaussianBlur stdDeviation="15"/>
<feColorMatrix type="matrix" values="0 0 0 0 0.25098 0 0 0 0 0.25098 0 0 0 0 0.25098 0 0 0 1 0"/>
<feBlend mode="normal" in2="effect1_dropShadow" result="effect2_dropShadow"/>
<feBlend mode="normal" in="SourceGraphic" in2="effect2_dropShadow" result="shape"/>
</filter>
</defs>
</svg>
