<svg width="334" height="795" viewBox="0 0 334 795" fill="none" xmlns="http://www.w3.org/2000/svg">
<g filter="url(#filter0_dd)">
<path fill-rule="evenodd" clip-rule="evenodd" d="M-111.174 83.5761C-176.869 86.5343 -248.646 101.767 -291.043 152.038C-332.277 200.93 -308.935 274.152 -324.267 336.245C-341.032 404.136 -415.58 468.95 -384.804 531.745C-353.94 594.72 -255.402 572.692 -192.846 604.398C-133.354 634.55 -96.2201 717.529 -29.7799 711.683C36.4348 705.856 63.9136 624.357 111.201 577.642C157.034 532.366 223.059 503.877 242.693 442.516C263.321 378.048 251.593 304.414 217.301 246.055C184.452 190.154 120.761 164.859 62.6449 136.112C7.02999 108.602 -49.1904 80.7851 -111.174 83.5761Z" fill="#252525"/>
</g>
<g filter="url(#filter1_dd)">
<path fill-rule="evenodd" clip-rule="evenodd" d="M-98.3366 132.008C-151.822 134.417 -210.259 146.818 -244.777 187.738C-278.348 227.536 -259.346 287.137 -271.83 337.68C-285.48 392.943 -346.174 445.702 -321.12 496.815C-295.993 548.075 -215.769 530.143 -164.84 555.949C-116.406 580.491 -86.1752 648.034 -32.0832 643.274C21.8251 638.53 44.1985 572.19 82.6985 534.164C120.014 497.309 173.768 474.118 189.754 424.171C206.55 371.695 197.003 311.758 169.085 264.256C142.344 218.754 90.4902 198.166 43.1759 174.767C-2.10196 152.376 -47.8728 129.735 -98.3366 132.008Z" fill="#242424"/>
</g>
<g filter="url(#filter2_dd)">
<path fill-rule="evenodd" clip-rule="evenodd" d="M-108.356 180.385C-149.966 182.261 -195.43 191.907 -222.286 223.727C-248.406 254.674 -233.626 301.017 -243.341 340.319C-253.964 383.29 -301.185 424.317 -281.696 464.059C-262.151 503.916 -199.737 489.969 -160.117 510.032C-122.438 529.113 -98.9225 581.63 -56.8399 577.926C-14.9001 574.234 2.50945 522.649 32.4636 493.08C61.4959 464.42 103.317 446.384 115.756 407.547C128.826 366.741 121.402 320.137 99.6853 283.202C78.8831 247.823 38.5435 231.817 1.73527 213.626C-33.4887 196.217 -69.0962 178.614 -108.356 180.385Z" fill="#222222"/>
</g>
<defs>
<filter id="filter0_dd" x="-481.431" y="0.0292969" width="814.525" height="794.492" filterUnits="userSpaceOnUse" color-interpolation-filters="sRGB">
<feFlood flood-opacity="0" result="BackgroundImageFix"/>
<feColorMatrix in="SourceAlpha" type="matrix" values="0 0 0 0 0 0 0 0 0 0 0 0 0 0 0 0 0 0 127 0"/>
<feOffset dx="10" dy="10"/>
<feGaussianBlur stdDeviation="15"/>
<feColorMatrix type="matrix" values="0 0 0 0 0.0627451 0 0 0 0 0.0627451 0 0 0 0 0.0627451 0 0 0 0.8 0"/>
<feBlend mode="normal" in2="BackgroundImageFix" result="effect1_dropShadow"/>
<feColorMatrix in="SourceAlpha" type="matrix" values="0 0 0 0 0 0 0 0 0 0 0 0 0 0 0 0 0 0 127 0"/>
<feOffset dx="-10" dy="-10"/>
<feGaussianBlur stdDeviation="15"/>
<feColorMatrix type="matrix" values="0 0 0 0 0.219608 0 0 0 0 0.219608 0 0 0 0 0.219608 0 0 0 0.8 0"/>
<feBlend mode="normal" in2="effect1_dropShadow" result="effect2_dropShadow"/>
<feBlend mode="normal" in="SourceGraphic" in2="effect2_dropShadow" result="shape"/>
</filter>
<filter id="filter1_dd" x="-407.214" y="56.5547" width="677.996" height="661.596" filterUnits="userSpaceOnUse" color-interpolation-filters="sRGB">
<feFlood flood-opacity="0" result="BackgroundImageFix"/>
<feColorMatrix in="SourceAlpha" type="matrix" values="0 0 0 0 0 0 0 0 0 0 0 0 0 0 0 0 0 0 127 0"/>
<feOffset dx="10" dy="10"/>
<feGaussianBlur stdDeviation="15"/>
<feColorMatrix type="matrix" values="0 0 0 0 0.0627451 0 0 0 0 0.0627451 0 0 0 0 0.0627451 0 0 0 0.8 0"/>
<feBlend mode="normal" in2="BackgroundImageFix" result="effect1_dropShadow"/>
<feColorMatrix in="SourceAlpha" type="matrix" values="0 0 0 0 0 0 0 0 0 0 0 0 0 0 0 0 0 0 127 0"/>
<feOffset dx="-10" dy="-10"/>
<feGaussianBlur stdDeviation="15"/>
<feColorMatrix type="matrix" values="0 0 0 0 0.219608 0 0 0 0 0.219608 0 0 0 0 0.219608 0 0 0 0.8 0"/>
<feBlend mode="normal" in2="effect1_dropShadow" result="effect2_dropShadow"/>
<feBlend mode="normal" in="SourceGraphic" in2="effect2_dropShadow" result="shape"/>
</filter>
<filter id="filter2_dd" x="-357.538" y="112.803" width="545.204" height="532.256" filterUnits="userSpaceOnUse" color-interpolation-filters="sRGB">
<feFlood flood-opacity="0" result="BackgroundImageFix"/>
<feColorMatrix in="SourceAlpha" type="matrix" values="0 0 0 0 0 0 0 0 0 0 0 0 0 0 0 0 0 0 127 0"/>
<feOffset dx="10" dy="10"/>
<feGaussianBlur stdDeviation="15"/>
<feColorMatrix type="matrix" values="0 0 0 0 0.0627451 0 0 0 0 0.0627451 0 0 0 0 0.0627451 0 0 0 0.8 0"/>
<feBlend mode="normal" in2="BackgroundImageFix" result="effect1_dropShadow"/>
<feColorMatrix in="SourceAlpha" type="matrix" values="0 0 0 0 0 0 0 0 0 0 0 0 0 0 0 0 0 0 127 0"/>
<feOffset dx="-10" dy="-10"/>
<feGaussianBlur stdDeviation="15"/>
<feColorMatrix type="matrix" values="0 0 0 0 0.219608 0 0 0 0 0.219608 0 0 0 0 0.219608 0 0 0 0.8 0"/>
<feBlend mode="normal" in2="effect1_dropShadow" result="effect2_dropShadow"/>
<feBlend mode="normal" in="SourceGraphic" in2="effect2_dropShadow" result="shape"/>
</filter>
</defs>
</svg>
