<svg width="324" height="790" viewBox="0 0 324 790" fill="none" xmlns="http://www.w3.org/2000/svg">
<g filter="url(#filter0_dd)">
<path fill-rule="evenodd" clip-rule="evenodd" d="M-111.174 78.5761C-176.869 81.5343 -248.646 96.7673 -291.043 147.038C-332.277 195.93 -308.935 269.152 -324.267 331.245C-341.032 399.136 -415.58 463.95 -384.804 526.745C-353.94 589.72 -255.402 567.692 -192.846 599.398C-133.354 629.55 -96.2201 712.529 -29.7799 706.683C36.4348 700.856 63.9136 619.357 111.201 572.642C157.034 527.366 223.059 498.877 242.693 437.516C263.321 373.048 251.593 299.414 217.301 241.055C184.452 185.154 120.761 159.859 62.6449 131.112C7.02999 103.602 -49.1904 75.7851 -111.174 78.5761Z" fill="#F0F0F3"/>
</g>
<g filter="url(#filter1_dd)">
<path fill-rule="evenodd" clip-rule="evenodd" d="M-98.3366 127.008C-151.822 129.417 -210.259 141.818 -244.777 182.738C-278.348 222.536 -259.346 282.137 -271.83 332.68C-285.48 387.943 -346.174 440.702 -321.12 491.815C-295.993 543.075 -215.769 525.143 -164.84 550.949C-116.406 575.491 -86.1752 643.034 -32.0832 638.274C21.8251 633.53 44.1985 567.19 82.6985 529.164C120.014 492.309 173.768 469.118 189.754 419.171C206.55 366.695 197.003 306.758 169.085 259.256C142.344 213.754 90.4902 193.166 43.1759 169.767C-2.10196 147.376 -47.8728 124.735 -98.3366 127.008Z" fill="#F4F4F6"/>
</g>
<g filter="url(#filter2_dd)">
<path fill-rule="evenodd" clip-rule="evenodd" d="M-108.356 175.385C-149.966 177.261 -195.43 186.907 -222.286 218.727C-248.406 249.674 -233.626 296.017 -243.341 335.319C-253.964 378.29 -301.185 419.317 -281.696 459.059C-262.151 498.916 -199.737 484.969 -160.117 505.032C-122.438 524.113 -98.9225 576.63 -56.8399 572.926C-14.9001 569.234 2.50945 517.649 32.4636 488.08C61.4959 459.42 103.317 441.384 115.756 402.547C128.826 361.741 121.402 315.137 99.6853 278.202C78.8831 242.823 38.5435 226.817 1.73527 208.626C-33.4887 191.217 -69.0962 173.614 -108.356 175.385Z" fill="#F9F9FA"/>
</g>
<defs>
<filter id="filter0_dd" x="-471.431" y="0.0292969" width="794.525" height="789.492" filterUnits="userSpaceOnUse" color-interpolation-filters="sRGB">
<feFlood flood-opacity="0" result="BackgroundImageFix"/>
<feColorMatrix in="SourceAlpha" type="matrix" values="0 0 0 0 0 0 0 0 0 0 0 0 0 0 0 0 0 0 127 0"/>
<feOffset dy="10"/>
<feGaussianBlur stdDeviation="15"/>
<feColorMatrix type="matrix" values="0 0 0 0 0.682353 0 0 0 0 0.682353 0 0 0 0 0.752941 0 0 0 0.4 0"/>
<feBlend mode="normal" in2="BackgroundImageFix" result="effect1_dropShadow"/>
<feColorMatrix in="SourceAlpha" type="matrix" values="0 0 0 0 0 0 0 0 0 0 0 0 0 0 0 0 0 0 127 0"/>
<feOffset dx="5" dy="-10"/>
<feGaussianBlur stdDeviation="12.5"/>
<feColorMatrix type="matrix" values="0 0 0 0 1 0 0 0 0 1 0 0 0 0 1 0 0 0 1 0"/>
<feBlend mode="normal" in2="effect1_dropShadow" result="effect2_dropShadow"/>
<feBlend mode="normal" in="SourceGraphic" in2="effect2_dropShadow" result="shape"/>
</filter>
<filter id="filter1_dd" x="-397.214" y="56.5547" width="657.996" height="656.596" filterUnits="userSpaceOnUse" color-interpolation-filters="sRGB">
<feFlood flood-opacity="0" result="BackgroundImageFix"/>
<feColorMatrix in="SourceAlpha" type="matrix" values="0 0 0 0 0 0 0 0 0 0 0 0 0 0 0 0 0 0 127 0"/>
<feOffset dy="10"/>
<feGaussianBlur stdDeviation="15"/>
<feColorMatrix type="matrix" values="0 0 0 0 0.682353 0 0 0 0 0.682353 0 0 0 0 0.752941 0 0 0 0.4 0"/>
<feBlend mode="normal" in2="BackgroundImageFix" result="effect1_dropShadow"/>
<feColorMatrix in="SourceAlpha" type="matrix" values="0 0 0 0 0 0 0 0 0 0 0 0 0 0 0 0 0 0 127 0"/>
<feOffset dx="5" dy="-10"/>
<feGaussianBlur stdDeviation="12.5"/>
<feColorMatrix type="matrix" values="0 0 0 0 1 0 0 0 0 1 0 0 0 0 1 0 0 0 1 0"/>
<feBlend mode="normal" in2="effect1_dropShadow" result="effect2_dropShadow"/>
<feBlend mode="normal" in="SourceGraphic" in2="effect2_dropShadow" result="shape"/>
</filter>
<filter id="filter2_dd" x="-347.538" y="112.803" width="525.204" height="527.256" filterUnits="userSpaceOnUse" color-interpolation-filters="sRGB">
<feFlood flood-opacity="0" result="BackgroundImageFix"/>
<feColorMatrix in="SourceAlpha" type="matrix" values="0 0 0 0 0 0 0 0 0 0 0 0 0 0 0 0 0 0 127 0"/>
<feOffset dy="10"/>
<feGaussianBlur stdDeviation="15"/>
<feColorMatrix type="matrix" values="0 0 0 0 0.682353 0 0 0 0 0.682353 0 0 0 0 0.752941 0 0 0 0.4 0"/>
<feBlend mode="normal" in2="BackgroundImageFix" result="effect1_dropShadow"/>
<feColorMatrix in="SourceAlpha" type="matrix" values="0 0 0 0 0 0 0 0 0 0 0 0 0 0 0 0 0 0 127 0"/>
<feOffset dx="5" dy="-10"/>
<feGaussianBlur stdDeviation="12.5"/>
<feColorMatrix type="matrix" values="0 0 0 0 1 0 0 0 0 1 0 0 0 0 1 0 0 0 1 0"/>
<feBlend mode="normal" in2="effect1_dropShadow" result="effect2_dropShadow"/>
<feBlend mode="normal" in="SourceGraphic" in2="effect2_dropShadow" result="shape"/>
</filter>
</defs>
</svg>
