<svg width="557" height="549" viewBox="0 0 557 549" fill="none" xmlns="http://www.w3.org/2000/svg">
<g filter="url(#filter0_dd)">
<path fill-rule="evenodd" clip-rule="evenodd" d="M243.695 291.568C198.741 339.566 158.007 400.597 162.771 466.185C167.405 529.976 235.248 566.08 267.639 621.23C303.055 681.53 294.964 779.981 360.846 803.432C426.917 826.949 482.059 742.367 548.974 721.371C612.612 701.403 697.141 734.859 740.611 684.274C783.933 633.861 746.682 556.338 747.902 489.879C749.085 425.465 776.444 358.963 747.644 301.335C717.384 240.787 657.565 196.276 592.264 178.456C529.714 161.388 466.463 187.764 404.791 207.777C345.774 226.928 286.109 246.282 243.695 291.568Z" fill="#F0F0F3"/>
</g>
<g filter="url(#filter1_dd)">
<path fill-rule="evenodd" clip-rule="evenodd" d="M290.707 330.266C254.109 369.344 220.945 419.031 224.818 472.425C228.584 524.355 283.809 553.742 310.172 598.636C338.997 647.722 332.403 727.87 386.031 746.955C439.814 766.095 484.709 697.233 539.182 680.136C590.988 663.876 659.796 691.105 695.186 649.921C730.456 608.876 700.139 545.77 701.138 491.667C702.106 439.228 724.383 385.088 700.942 338.176C676.314 288.888 627.623 252.657 574.467 238.156C523.549 224.265 472.058 245.743 421.853 262.04C373.809 277.636 325.237 293.396 290.707 330.266Z" fill="#F4F4F6"/>
</g>
<g filter="url(#filter2_dd)">
<path fill-rule="evenodd" clip-rule="evenodd" d="M333.322 382.888C304.85 413.291 279.048 451.946 282.049 493.476C284.967 533.868 327.911 556.714 348.405 591.628C370.813 629.802 365.668 692.145 407.372 706.979C449.197 721.855 484.127 668.284 526.496 654.973C566.789 642.315 620.297 663.481 647.83 631.439C675.269 599.507 651.703 550.428 652.491 508.345C653.255 467.557 670.591 425.441 652.37 388.956C633.227 350.624 595.366 322.452 554.028 311.184C514.431 300.39 474.38 317.107 435.331 329.793C397.963 341.934 360.185 354.203 333.322 382.888Z" fill="#F9F9FA"/>
</g>
<defs>
<filter id="filter0_dd" x="0.998047" y="0.0720215" width="981.529" height="985.348" filterUnits="userSpaceOnUse" color-interpolation-filters="sRGB">
<feFlood flood-opacity="0" result="BackgroundImageFix"/>
<feColorMatrix in="SourceAlpha" type="matrix" values="0 0 0 0 0 0 0 0 0 0 0 0 0 0 0 0 0 0 127 0"/>
<feOffset dx="10" dy="10"/>
<feGaussianBlur stdDeviation="15"/>
<feColorMatrix type="matrix" values="0 0 0 0 0.682353 0 0 0 0 0.682353 0 0 0 0 0.752941 0 0 0 0.5 0"/>
<feBlend mode="normal" in2="BackgroundImageFix" result="effect1_dropShadow"/>
<feColorMatrix in="SourceAlpha" type="matrix" values="0 0 0 0 0 0 0 0 0 0 0 0 0 0 0 0 0 0 127 0"/>
<feOffset dx="-10" dy="-10"/>
<feGaussianBlur stdDeviation="12.5"/>
<feColorMatrix type="matrix" values="0 0 0 0 1 0 0 0 0 1 0 0 0 0 1 0 0 0 1 0"/>
<feBlend mode="normal" in2="effect1_dropShadow" result="effect2_dropShadow"/>
<feBlend mode="normal" in="SourceGraphic" in2="effect2_dropShadow" result="shape"/>
</filter>
<filter id="filter1_dd" x="86.6118" y="86.4412" width="812.964" height="816.09" filterUnits="userSpaceOnUse" color-interpolation-filters="sRGB">
<feFlood flood-opacity="0" result="BackgroundImageFix"/>
<feColorMatrix in="SourceAlpha" type="matrix" values="0 0 0 0 0 0 0 0 0 0 0 0 0 0 0 0 0 0 127 0"/>
<feOffset dx="10" dy="10"/>
<feGaussianBlur stdDeviation="15"/>
<feColorMatrix type="matrix" values="0 0 0 0 0.682353 0 0 0 0 0.682353 0 0 0 0 0.752941 0 0 0 0.5 0"/>
<feBlend mode="normal" in2="BackgroundImageFix" result="effect1_dropShadow"/>
<feColorMatrix in="SourceAlpha" type="matrix" values="0 0 0 0 0 0 0 0 0 0 0 0 0 0 0 0 0 0 127 0"/>
<feOffset dx="-10" dy="-10"/>
<feGaussianBlur stdDeviation="12.5"/>
<feColorMatrix type="matrix" values="0 0 0 0 1 0 0 0 0 1 0 0 0 0 1 0 0 0 1 0"/>
<feBlend mode="normal" in2="effect1_dropShadow" result="effect2_dropShadow"/>
<feBlend mode="normal" in="SourceGraphic" in2="effect2_dropShadow" result="shape"/>
</filter>
<filter id="filter2_dd" x="166.769" y="185.426" width="648.954" height="651.422" filterUnits="userSpaceOnUse" color-interpolation-filters="sRGB">
<feFlood flood-opacity="0" result="BackgroundImageFix"/>
<feColorMatrix in="SourceAlpha" type="matrix" values="0 0 0 0 0 0 0 0 0 0 0 0 0 0 0 0 0 0 127 0"/>
<feOffset dx="10" dy="10"/>
<feGaussianBlur stdDeviation="15"/>
<feColorMatrix type="matrix" values="0 0 0 0 0.682353 0 0 0 0 0.682353 0 0 0 0 0.752941 0 0 0 0.5 0"/>
<feBlend mode="normal" in2="BackgroundImageFix" result="effect1_dropShadow"/>
<feColorMatrix in="SourceAlpha" type="matrix" values="0 0 0 0 0 0 0 0 0 0 0 0 0 0 0 0 0 0 127 0"/>
<feOffset dx="-10" dy="-10"/>
<feGaussianBlur stdDeviation="12.5"/>
<feColorMatrix type="matrix" values="0 0 0 0 1 0 0 0 0 1 0 0 0 0 1 0 0 0 1 0"/>
<feBlend mode="normal" in2="effect1_dropShadow" result="effect2_dropShadow"/>
<feBlend mode="normal" in="SourceGraphic" in2="effect2_dropShadow" result="shape"/>
</filter>
</defs>
</svg>
