<svg width="704" height="331" viewBox="0 0 704 331" fill="none" xmlns="http://www.w3.org/2000/svg">
<g filter="url(#filter0_dd)">
<path d="M50.2812 69.4844H161.094C161.281 69.4844 161.375 69.5781 161.375 69.7656V106.328C161.375 106.516 161.281 106.609 161.094 106.609H50.2812C50.0938 106.609 50 106.516 50 106.328V69.7656C50 69.5781 50.0938 69.4844 50.2812 69.4844ZM86.8438 149.078H124.391C124.578 149.078 124.672 149.172 124.672 149.359V233.875H161.094C161.281 233.875 161.375 233.969 161.375 234.156V270.719C161.375 270.906 161.281 271 161.094 271H50.2812C50.0938 271 50 270.906 50 270.719V234.156C50 233.969 50.0938 233.875 50.2812 233.875H86.5625V149.359C86.5625 149.172 86.6562 149.078 86.8438 149.078ZM203.934 68.5H315.309C315.496 68.5 315.59 68.5938 315.59 68.7812V106.047C315.59 106.234 315.496 106.328 315.309 106.328H203.934C203.746 106.328 203.652 106.234 203.652 106.047V68.7812C203.652 68.5938 203.746 68.5 203.934 68.5ZM239.934 149.219H278.465C278.652 149.219 278.746 149.266 278.746 149.359V270.719C278.746 270.906 278.652 271 278.465 271H239.934C239.746 271 239.652 270.906 239.652 270.719V149.359C239.652 149.266 239.746 149.219 239.934 149.219ZM517.426 69.0625H552.864C576.207 69.0625 592.848 71.9688 602.786 77.7812C605.786 79.375 609.02 81.6719 612.489 84.6719C623.364 94.3281 628.801 106.516 628.801 121.234C628.801 136.984 621.911 149.781 608.129 159.625C612.536 161.969 616.426 164.219 619.801 166.375C635.551 177.156 643.426 192.438 643.426 212.219C643.426 229.844 636.348 244.984 622.192 257.641C614.786 263.453 606.817 267.156 598.286 268.75C591.442 270.25 583.848 271 575.504 271H517.426C517.239 271 517.145 270.906 517.145 270.719V148.375C517.145 148.188 517.239 148.094 517.426 148.094H565.239C577.989 148.094 586.192 143.734 589.848 135.016C590.973 132.484 591.536 129.531 591.536 126.156C591.536 118.094 587.973 112.234 580.848 108.578C576.817 106.703 572.036 105.766 566.504 105.766H517.426C517.239 105.766 517.145 105.672 517.145 105.484V69.3438C517.145 69.1563 517.239 69.0625 517.426 69.0625ZM555.676 182.547V234.297H565.942C583.942 234.297 595.286 231.484 599.973 225.859C603.817 222.016 605.739 217 605.739 210.812C605.739 199.938 600.77 192.062 590.832 187.188C584.926 184.094 574.801 182.547 560.457 182.547H555.676Z" fill="#252525"/>
</g>
<g filter="url(#filter1_d)">
<path d="M353.18 227.802C353.27 227.811 353.339 227.792 353.358 227.787C353.395 227.777 353.423 227.764 353.436 227.758M353.636 227.6L397.849 189.409L397.85 189.408C408.819 179.402 418.061 168.909 425.573 157.93C427.276 155.441 428.789 152.964 430.109 150.5H480.476C477.003 160.562 471.588 170.233 464.225 179.513C450.239 196.947 438.191 212.778 416.52 229.462L488.308 231.588V270.62H344.732V234.785C347.899 232.27 350.213 230.423 351.674 229.245C352.418 228.645 352.944 228.216 353.248 227.961C353.393 227.839 353.506 227.742 353.563 227.684L353.565 227.683C353.573 227.674 353.605 227.642 353.636 227.6ZM467.716 77.0706L467.719 77.0735C475.871 85.2263 481.163 95.1133 483.593 106.748H431.154C427.387 102.309 421.806 100.124 414.504 100.124C407.06 100.124 401.149 102.975 396.826 108.674L396.824 108.676C392.771 114.08 390.744 121.715 390.678 131.516H344.169C344.611 115.487 348.048 102.116 354.452 91.3789C361.125 80.512 369.79 72.518 380.448 67.3792C391.318 62.2302 403.34 59.652 416.52 59.652C439.288 59.652 456.322 65.4865 467.716 77.0706Z" stroke="#BDBDBD"/>
</g>
<defs>
<filter id="filter0_dd" x="0" y="18.5" width="703.426" height="312.5" filterUnits="userSpaceOnUse" color-interpolation-filters="sRGB">
<feFlood flood-opacity="0" result="BackgroundImageFix"/>
<feColorMatrix in="SourceAlpha" type="matrix" values="0 0 0 0 0 0 0 0 0 0 0 0 0 0 0 0 0 0 127 0"/>
<feOffset dx="15" dy="15"/>
<feGaussianBlur stdDeviation="22.5"/>
<feColorMatrix type="matrix" values="0 0 0 0 0 0 0 0 0 0 0 0 0 0 0 0 0 0 0.8 0"/>
<feBlend mode="normal" in2="BackgroundImageFix" result="effect1_dropShadow"/>
<feColorMatrix in="SourceAlpha" type="matrix" values="0 0 0 0 0 0 0 0 0 0 0 0 0 0 0 0 0 0 127 0"/>
<feOffset dx="-10" dy="-10"/>
<feGaussianBlur stdDeviation="20"/>
<feColorMatrix type="matrix" values="0 0 0 0 0.219608 0 0 0 0 0.219608 0 0 0 0 0.219608 0 0 0 0.6 0"/>
<feBlend mode="normal" in2="effect1_dropShadow" result="effect2_dropShadow"/>
<feBlend mode="normal" in="SourceGraphic" in2="effect2_dropShadow" result="shape"/>
</filter>
<filter id="filter1_d" x="336.655" y="52.152" width="159.153" height="225.968" filterUnits="userSpaceOnUse" color-interpolation-filters="sRGB">
<feFlood flood-opacity="0" result="BackgroundImageFix"/>
<feColorMatrix in="SourceAlpha" type="matrix" values="0 0 0 0 0 0 0 0 0 0 0 0 0 0 0 0 0 0 127 0"/>
<feOffset/>
<feGaussianBlur stdDeviation="3.5"/>
<feColorMatrix type="matrix" values="0 0 0 0 0.8625 0 0 0 0 0.8625 0 0 0 0 0.8625 0 0 0 1 0"/>
<feBlend mode="normal" in2="BackgroundImageFix" result="effect1_dropShadow"/>
<feBlend mode="normal" in="SourceGraphic" in2="effect1_dropShadow" result="shape"/>
</filter>
</defs>
</svg>
