<svg width="161" height="170" viewBox="0 0 161 170" fill="none" xmlns="http://www.w3.org/2000/svg">
<g filter="url(#filter0_d)">
<path d="M121.937 105.4H152.437C152.437 88.7165 144.384 74.3443 132.793 67.8324C137.202 63.9892 139.992 58.3028 139.992 51.9577C139.992 40.3831 130.706 31 119.252 31C113.924 31 109.066 33.0294 105.393 36.3649C103.627 37.9682 102.136 39.8734 100.997 42" stroke="#828282" stroke-linecap="round" stroke-linejoin="round"/>
</g>
<g filter="url(#filter1_d)">
<path d="M40.0574 105.4H9.5573C9.5573 88.7165 17.6104 74.3443 29.2007 67.8324C24.7922 63.9892 22.0017 58.3028 22.0017 51.9577C22.0017 40.3831 31.2877 31 42.7425 31C48.0697 31 52.9278 33.0294 56.6009 36.3649C58.3666 37.9682 59.8585 39.8734 60.9971 42" stroke="#828282" stroke-linecap="round" stroke-linejoin="round"/>
</g>
<g filter="url(#filter2_dd)">
<path d="M105.786 65.6142C105.786 79.4291 94.7311 90.6283 81.0944 90.6283C67.4578 90.6283 56.4031 79.4291 56.4031 65.6142C56.4031 51.7993 67.4578 40.6001 81.0944 40.6001C94.7311 40.6001 105.786 51.7993 105.786 65.6142Z" fill="#F0F0F3"/>
<path fill-rule="evenodd" clip-rule="evenodd" d="M120.601 129.4C120.601 102.185 102.692 80.1224 80.6006 80.1224C58.5092 80.1224 40.6006 102.185 40.6006 129.4H120.601Z" fill="#F0F0F3"/>
</g>
<defs>
<filter id="filter0_d" x="93.4971" y="23.5" width="66.4399" height="89.4" filterUnits="userSpaceOnUse" color-interpolation-filters="sRGB">
<feFlood flood-opacity="0" result="BackgroundImageFix"/>
<feColorMatrix in="SourceAlpha" type="matrix" values="0 0 0 0 0 0 0 0 0 0 0 0 0 0 0 0 0 0 127 0"/>
<feOffset/>
<feGaussianBlur stdDeviation="3.5"/>
<feColorMatrix type="matrix" values="0 0 0 0 0.4875 0 0 0 0 0.4875 0 0 0 0 0.4875 0 0 0 1 0"/>
<feBlend mode="normal" in2="BackgroundImageFix" result="effect1_dropShadow"/>
<feBlend mode="normal" in="SourceGraphic" in2="effect1_dropShadow" result="shape"/>
</filter>
<filter id="filter1_d" x="2.05762" y="23.5" width="66.4399" height="89.4" filterUnits="userSpaceOnUse" color-interpolation-filters="sRGB">
<feFlood flood-opacity="0" result="BackgroundImageFix"/>
<feColorMatrix in="SourceAlpha" type="matrix" values="0 0 0 0 0 0 0 0 0 0 0 0 0 0 0 0 0 0 127 0"/>
<feOffset/>
<feGaussianBlur stdDeviation="3.5"/>
<feColorMatrix type="matrix" values="0 0 0 0 0.4875 0 0 0 0 0.4875 0 0 0 0 0.4875 0 0 0 1 0"/>
<feBlend mode="normal" in2="BackgroundImageFix" result="effect1_dropShadow"/>
<feBlend mode="normal" in="SourceGraphic" in2="effect1_dropShadow" result="shape"/>
</filter>
<filter id="filter2_dd" x="0.600586" y="0.600098" width="160" height="168.8" filterUnits="userSpaceOnUse" color-interpolation-filters="sRGB">
<feFlood flood-opacity="0" result="BackgroundImageFix"/>
<feColorMatrix in="SourceAlpha" type="matrix" values="0 0 0 0 0 0 0 0 0 0 0 0 0 0 0 0 0 0 127 0"/>
<feOffset dx="10" dy="10"/>
<feGaussianBlur stdDeviation="15"/>
<feColorMatrix type="matrix" values="0 0 0 0 0.682353 0 0 0 0 0.682353 0 0 0 0 0.752941 0 0 0 0.5 0"/>
<feBlend mode="normal" in2="BackgroundImageFix" result="effect1_dropShadow"/>
<feColorMatrix in="SourceAlpha" type="matrix" values="0 0 0 0 0 0 0 0 0 0 0 0 0 0 0 0 0 0 127 0"/>
<feOffset dx="-10" dy="-10"/>
<feGaussianBlur stdDeviation="15"/>
<feColorMatrix type="matrix" values="0 0 0 0 1 0 0 0 0 1 0 0 0 0 1 0 0 0 1 0"/>
<feBlend mode="normal" in2="effect1_dropShadow" result="effect2_dropShadow"/>
<feBlend mode="normal" in="SourceGraphic" in2="effect2_dropShadow" result="shape"/>
</filter>
</defs>
</svg>
