<svg width="208" height="176" viewBox="0 0 208 176" fill="none" xmlns="http://www.w3.org/2000/svg">
<g filter="url(#filter0_dd)">
<path d="M151.185 40.9207C150.031 39.8402 148.237 39.8401 147.083 40.9204L86.1844 97.9468C85.0308 99.027 83.2371 99.0271 82.0834 97.9469L60.9177 78.129C59.764 77.0487 57.9701 77.0488 56.8165 78.1293L41.338 92.6265C40.0723 93.8119 40.0723 95.8204 41.3381 97.0058L82.0837 135.163C83.2374 136.244 85.0313 136.244 86.185 135.163L166.662 59.7973C167.928 58.6119 167.928 56.6035 166.662 55.4181L151.185 40.9207Z" fill="#252525"/>
</g>
<g filter="url(#filter1_d)">
<path d="M116.81 88.4312L100.446 103.805L86.1358 117.25C84.9812 118.335 83.1821 118.335 82.0275 117.25L72.828 108.607L67.2012 103.321" stroke="#BDBDBD"/>
</g>
<defs>
<filter id="filter0_dd" x="0.388672" y="0.110352" width="207.223" height="175.863" filterUnits="userSpaceOnUse" color-interpolation-filters="sRGB">
<feFlood flood-opacity="0" result="BackgroundImageFix"/>
<feColorMatrix in="SourceAlpha" type="matrix" values="0 0 0 0 0 0 0 0 0 0 0 0 0 0 0 0 0 0 127 0"/>
<feOffset dx="10" dy="10"/>
<feGaussianBlur stdDeviation="15"/>
<feColorMatrix type="matrix" values="0 0 0 0 0 0 0 0 0 0 0 0 0 0 0 0 0 0 1 0"/>
<feBlend mode="normal" in2="BackgroundImageFix" result="effect1_dropShadow"/>
<feColorMatrix in="SourceAlpha" type="matrix" values="0 0 0 0 0 0 0 0 0 0 0 0 0 0 0 0 0 0 127 0"/>
<feOffset dx="-10" dy="-10"/>
<feGaussianBlur stdDeviation="15"/>
<feColorMatrix type="matrix" values="0 0 0 0 0.219608 0 0 0 0 0.219608 0 0 0 0 0.219608 0 0 0 0.7 0"/>
<feBlend mode="normal" in2="effect1_dropShadow" result="effect2_dropShadow"/>
<feBlend mode="normal" in="SourceGraphic" in2="effect2_dropShadow" result="shape"/>
</filter>
<filter id="filter1_d" x="59.8584" y="81.0669" width="64.2936" height="44.4966" filterUnits="userSpaceOnUse" color-interpolation-filters="sRGB">
<feFlood flood-opacity="0" result="BackgroundImageFix"/>
<feColorMatrix in="SourceAlpha" type="matrix" values="0 0 0 0 0 0 0 0 0 0 0 0 0 0 0 0 0 0 127 0"/>
<feOffset/>
<feGaussianBlur stdDeviation="3.5"/>
<feColorMatrix type="matrix" values="0 0 0 0 0.8625 0 0 0 0 0.8625 0 0 0 0 0.8625 0 0 0 1 0"/>
<feBlend mode="normal" in2="BackgroundImageFix" result="effect1_dropShadow"/>
<feBlend mode="normal" in="SourceGraphic" in2="effect1_dropShadow" result="shape"/>
</filter>
</defs>
</svg>
