<svg width="226" height="226" viewBox="0 0 226 226" fill="none" xmlns="http://www.w3.org/2000/svg">
<path d="M36.2802 122.22L45.6267 120.707L45.8308 121.969L37.6038 123.3L38.5528 129.164L46.7797 127.832L46.9839 129.094L37.6375 130.607L36.2802 122.22Z" fill="#636369"/>
<path d="M45.7536 107.723C45.6658 108.63 45.3836 109.429 44.907 110.118C44.4185 110.806 43.7897 111.324 43.0207 111.672C42.2516 112.019 41.4073 112.149 40.4876 112.06C39.5679 111.971 38.7639 111.682 38.0758 111.193C37.3876 110.705 36.8757 110.077 36.5401 109.309C36.2045 108.541 36.0806 107.703 36.1684 106.795C36.2562 105.888 36.5384 105.089 37.015 104.4C37.4916 103.71 38.1138 103.198 38.8817 102.862C39.6508 102.515 40.4951 102.385 41.4148 102.474C42.3345 102.563 43.1385 102.852 43.8266 103.341C44.5159 103.817 45.0344 104.44 45.3819 105.209C45.7176 105.977 45.8415 106.815 45.7536 107.723ZM44.6249 107.613C44.6896 106.944 44.5981 106.333 44.3503 105.778C44.0918 105.211 43.6963 104.751 43.1638 104.398C42.6313 104.045 42.0067 103.834 41.29 103.764C40.5734 103.695 39.9199 103.783 39.3297 104.027C38.7394 104.271 38.269 104.648 37.9184 105.156C37.557 105.652 37.3439 106.234 37.2792 106.903C37.2145 107.572 37.3114 108.19 37.57 108.757C37.8177 109.312 38.2073 109.771 38.7386 110.136C39.2711 110.489 39.8957 110.7 40.6124 110.77C41.329 110.839 41.9825 110.751 42.5727 110.507C43.1642 110.251 43.6406 109.875 44.002 109.38C44.3526 108.871 44.5602 108.282 44.6249 107.613Z" fill="#636369"/>
<path d="M45.1057 90.5755L44.3881 92.6128L48.3609 94.0121L47.9363 95.2175L39.006 92.0721L39.4306 90.8667L43.3525 92.248L44.076 90.1937L41.2604 85.6715L41.7208 84.3643L44.8123 89.4035L50.7408 87.2549L50.2385 88.681L45.1057 90.5755Z" fill="#636369"/>
<path d="M47.7813 72.9296C48.4519 71.8914 49.2284 71.2643 50.1106 71.0485C50.9828 70.8262 51.928 71.0438 52.9461 71.7014L57.8752 74.8852L57.2111 75.9134L55.9712 75.1126C56.2283 75.6214 56.3197 76.1876 56.2455 76.8111C56.1779 77.4246 55.9357 78.0539 55.519 78.699C54.946 79.586 54.2786 80.1549 53.5166 80.4056C52.7547 80.6563 52.026 80.557 51.3305 80.1078C50.6551 79.6715 50.267 79.078 50.1663 78.3272C50.072 77.5664 50.37 76.6517 51.0601 75.5832L52.6911 73.0581L52.2073 72.7456C51.5218 72.3029 50.879 72.1591 50.2788 72.3142C49.6685 72.4629 49.1257 72.9051 48.6504 73.641C48.3248 74.145 48.098 74.6842 47.9699 75.2585C47.8316 75.8264 47.8013 76.3711 47.8787 76.8925L46.7648 76.8587C46.6825 76.2342 46.733 75.581 46.9162 74.8994C47.0892 74.2112 47.3776 73.5546 47.7813 72.9296ZM54.7797 77.9857C55.1703 77.3809 55.3696 76.7739 55.3774 76.1647C55.3751 75.5489 55.1803 74.9659 54.7928 74.4157L53.4925 73.5758L51.881 76.0706C51.0021 77.4314 51.0363 78.4178 51.9839 79.0298C52.4475 79.3293 52.9294 79.3906 53.4294 79.2136C53.9194 79.0301 54.3695 78.6208 54.7797 77.9857Z" fill="#636369"/>
<path d="M63.1988 61.5417C63.79 61.186 64.3484 61.0208 64.8742 61.046C65.4085 61.0628 65.8678 61.2694 66.252 61.6658C66.6362 62.0621 66.8407 62.5491 66.8656 63.1265C66.8992 63.6956 66.7668 64.2918 66.4685 64.9152C66.1619 65.5299 65.7285 66.1087 65.1684 66.6515C64.6773 67.1276 64.1279 67.5263 63.5204 67.8478C62.9045 68.1607 62.2862 68.3504 61.6657 68.4171L61.3119 67.4314C61.8476 67.3634 62.3849 67.1936 62.9238 66.922C63.4627 66.6503 63.9433 66.3099 64.3655 65.9007C64.9945 65.291 65.3945 64.6777 65.5653 64.0609C65.7365 63.4271 65.6258 62.9077 65.2333 62.5027C64.8825 62.1408 64.4474 62.0195 63.9278 62.1386C63.3999 62.2492 62.8516 62.5801 62.2829 63.1313L61.1197 64.2588L60.4682 63.5866L61.5798 62.5093C62.0882 62.0165 62.4056 61.525 62.5321 61.0348C62.6502 60.536 62.5506 60.1228 62.2332 59.7954C61.8825 59.4335 61.4302 59.3203 60.8765 59.4559C60.3314 59.5832 59.7788 59.9183 59.2187 60.4611C58.4862 61.171 57.942 62.0578 57.5859 63.1215L56.6384 62.6612C57.0391 61.4539 57.6747 60.4285 58.545 59.585C59.062 59.0839 59.6025 58.7105 60.1664 58.4647C60.7306 58.2019 61.2627 58.0957 61.7626 58.1459C62.2711 58.1878 62.7007 58.3897 63.0515 58.7516C63.3856 59.0963 63.5614 59.5191 63.579 60.0201C63.6053 60.5127 63.4786 61.0199 63.1988 61.5417Z" fill="#636369"/>
<path d="M72.2895 48.9105C73.3482 48.2726 74.3212 48.0506 75.2085 48.2445C76.0897 48.4281 76.843 49.039 77.4685 50.0771L80.4967 55.1034L79.4483 55.735L78.6866 54.4708C78.6938 55.0408 78.5271 55.5896 78.1865 56.117C77.8561 56.6383 77.362 57.0971 76.7041 57.4934C75.7996 58.0384 74.9501 58.2561 74.1555 58.1464C73.3609 58.0367 72.75 57.6273 72.3227 56.918C71.9077 56.2294 71.82 55.5257 72.0595 54.807C72.3092 54.0821 72.9789 53.3915 74.0684 52.7351L76.6432 51.1838L76.3459 50.6904C75.9248 49.9915 75.4106 49.5798 74.8033 49.4553C74.1898 49.3206 73.5078 49.4793 72.7575 49.9314C72.2436 50.241 71.8028 50.6257 71.4353 51.0853C71.0615 51.5346 70.7949 52.0105 70.6353 52.5129L69.6496 51.993C69.8502 51.3958 70.1825 50.8313 70.6467 50.2995C71.1046 49.7574 71.6522 49.2944 72.2895 48.9105ZM76.3535 56.5279C76.9703 56.1563 77.416 55.6986 77.6908 55.1548C77.9594 54.6007 78.0406 53.9914 77.9344 53.3269L77.1355 52.0009L74.5916 53.5336C73.204 54.3697 72.8012 55.2708 73.3833 56.237C73.6682 56.7098 74.0741 56.9766 74.6011 57.0373C75.1218 57.0878 75.706 56.918 76.3535 56.5279Z" fill="#636369"/>
<path d="M91.9853 41.5757L88.5875 42.7095L91.2254 50.615L90.0131 51.0195L87.3752 43.114L83.9774 44.2478L83.6184 43.1722L91.6264 40.5L91.9853 41.5757Z" fill="#636369"/>
<path d="M104.902 41.5369C106.085 41.428 107.007 41.5991 107.669 42.0502C108.342 42.5 108.728 43.2084 108.827 44.1754C108.929 45.1782 108.674 45.9823 108.06 46.5879C107.458 47.1922 106.53 47.5525 105.276 47.6687L101.478 48.0389L100.515 38.62L101.786 38.49L102.123 41.7848L104.902 41.5369ZM105.105 46.709C105.978 46.6319 106.617 46.3917 107.022 45.9884C107.438 45.5719 107.609 45.0115 107.537 44.3072C107.467 43.6148 107.193 43.1241 106.717 42.835C106.242 42.5459 105.561 42.4405 104.677 42.5189L102.22 42.7339L102.648 46.924L105.105 46.709Z" fill="#636369"/>
<path d="M137.611 42.2288L134.863 51.2894L133.64 50.9185L136.058 42.9431L130.374 41.2193L127.955 49.1946L126.732 48.8237L129.48 39.7632L137.611 42.2288Z" fill="#636369"/>
<path d="M152.392 49.4482C153.145 49.9189 153.718 50.5181 154.113 51.2457C154.513 51.9631 154.693 52.7403 154.651 53.5773C154.608 54.4143 154.339 55.2296 153.843 56.0233C153.341 56.8272 152.723 57.4313 151.989 57.8358C151.255 58.2402 150.474 58.4246 149.647 58.3889C148.837 58.3494 148.05 58.0912 147.287 57.6141C146.636 57.207 146.129 56.7058 145.765 56.1105C145.418 55.5114 145.238 54.8474 145.227 54.1185L142.431 58.5907L141.348 57.9133L148.217 46.9237L149.255 47.5725L148.263 49.1599C148.919 48.8343 149.601 48.6944 150.308 48.7402C151.026 48.7924 151.72 49.0284 152.392 49.4482ZM147.812 56.6048C148.372 56.9547 148.96 57.1455 149.577 57.1773C150.2 57.199 150.788 57.0502 151.342 56.731C151.905 56.4181 152.378 55.9564 152.76 55.3459C153.141 54.7353 153.346 54.1133 153.374 53.4799C153.419 52.8426 153.295 52.2486 153.002 51.6978C152.71 51.147 152.284 50.6967 151.724 50.3469C151.154 49.9907 150.557 49.8017 149.934 49.7801C149.321 49.7648 148.733 49.9135 148.169 50.2264C147.622 50.5355 147.158 50.9953 146.776 51.6058C146.395 52.2163 146.182 52.8402 146.137 53.4775C146.103 54.1211 146.227 54.7152 146.509 55.2596C146.808 55.8002 147.242 56.2486 147.812 56.6048Z" fill="#636369"/>
<path d="M160.089 68.105C159.464 67.441 159.049 66.7026 158.845 65.89C158.649 65.0691 158.673 64.2549 158.918 63.4474C159.163 62.6398 159.622 61.9193 160.295 61.2859C160.968 60.6526 161.715 60.2379 162.535 60.0419C163.356 59.846 164.166 59.8746 164.965 60.1279C165.764 60.3812 166.476 60.8399 167.101 61.5039C167.726 62.1679 168.141 62.9063 168.346 63.7189C168.55 64.5316 168.526 65.3373 168.273 66.1361C168.028 66.9437 167.569 67.6642 166.896 68.2975C166.223 68.9309 165.476 69.3456 164.656 69.5415C163.843 69.7462 163.033 69.7261 162.225 69.481C161.426 69.2277 160.714 68.769 160.089 68.105ZM160.915 67.3277C161.376 67.817 161.896 68.151 162.476 68.3298C163.074 68.5091 163.681 68.5147 164.297 68.3465C164.913 68.1783 165.483 67.8475 166.008 67.3539C166.532 66.8604 166.897 66.3111 167.102 65.7061C167.307 65.101 167.333 64.4991 167.181 63.9003C167.047 63.302 166.749 62.7582 166.288 62.2689C165.828 61.7796 165.299 61.4453 164.701 61.266C164.121 61.0872 163.519 61.0775 162.894 61.237C162.278 61.4052 161.708 61.736 161.183 62.2296C160.659 62.7231 160.294 63.2724 160.089 63.8774C159.893 64.4912 159.862 65.0972 159.996 65.6955C160.148 66.2943 160.454 66.8384 160.915 67.3277Z" fill="#636369"/>
<path d="M175.885 83.1015L172.048 76.1728C171.222 76.7125 170.707 77.4298 170.503 78.3246C170.31 79.2136 170.466 80.1148 170.972 81.0282C171.256 81.5426 171.607 81.9655 172.024 82.2971C172.451 82.6229 172.931 82.8445 173.462 82.9618L173.086 83.9927C172.442 83.8695 171.85 83.5936 171.311 83.1651C170.778 82.7471 170.328 82.2074 169.962 81.546C169.491 80.6957 169.251 79.841 169.242 78.982C169.249 78.1276 169.471 77.3395 169.908 76.6174C170.345 75.8954 170.967 75.3106 171.776 74.863C172.584 74.4153 173.404 74.1875 174.236 74.1793C175.074 74.1816 175.841 74.3884 176.535 74.7996C177.235 75.2214 177.797 75.8154 178.221 76.5818C178.645 77.3481 178.848 78.1346 178.828 78.9411C178.808 79.7476 178.574 80.5014 178.125 81.2024C177.687 81.8976 177.059 82.472 176.24 82.9254L175.885 83.1015ZM177.26 77.1137C176.819 76.3158 176.189 75.7864 175.373 75.5253C174.572 75.269 173.742 75.3307 172.883 75.7107L176.135 81.5843C176.913 81.0574 177.403 80.3815 177.605 79.5565C177.823 78.7363 177.708 77.922 177.26 77.1137Z" fill="#636369"/>
<path d="M180.139 95.1844L179.576 93.099L175.509 94.1961L175.177 92.9622L184.318 90.496L184.651 91.7299L180.636 92.813L181.203 94.9158L186.085 97.0478L186.446 98.386L181.044 95.9841L177.375 101.113L176.982 99.653L180.139 95.1844Z" fill="#636369"/>
<path d="M186.868 114.577L186.713 110.998L178.387 111.359L178.331 110.082L186.658 109.721L186.502 106.142L187.635 106.093L188.001 114.527L186.868 114.577Z" fill="#636369"/>
<path d="M183.362 127.052C183.107 128.212 182.663 129.045 182.03 129.55C181.397 130.055 180.605 130.208 179.654 130.009C178.667 129.803 177.978 129.315 177.587 128.547C177.197 127.779 177.135 126.785 177.402 125.566L178.186 121.905L187.454 123.844L187.192 125.094L183.95 124.416L183.362 127.052ZM185.567 132.864L185.305 134.115L176.037 132.177L176.299 130.926L185.567 132.864ZM178.368 125.694C178.177 126.549 178.212 127.231 178.474 127.739C178.744 128.262 179.226 128.596 179.919 128.741C180.6 128.883 181.151 128.771 181.571 128.406C181.991 128.04 182.297 127.424 182.491 126.557L183.016 124.221L178.894 123.359L178.368 125.694Z" fill="#636369"/>
<path d="M109.907 192.95L108.576 192.901L109.045 180.309L110.376 180.359L109.907 192.95Z" fill="#636369"/>
<path d="M94.6925 189.901L98.9984 190.934L98.7297 192.054L88.8227 189.678L89.0914 188.557L93.3973 189.59L96.0675 178.458L97.3627 178.769L94.6925 189.901Z" fill="#636369"/>
<path d="M77.6388 172.345L78.1608 171.318L86.0394 175.323L85.6234 176.141L78.6294 178.341C77.7475 178.619 77.0988 178.915 76.6835 179.229C76.2521 179.548 75.9276 179.922 75.7101 180.35C75.3729 181.013 75.3419 181.643 75.617 182.241C75.876 182.844 76.428 183.36 77.2731 183.79C78.5889 184.458 79.8226 184.56 80.9741 184.096L81.4336 185.218C80.734 185.508 79.9765 185.621 79.1612 185.557C78.3352 185.487 77.4943 185.235 76.6385 184.8C75.4939 184.218 74.7287 183.486 74.3427 182.603C73.9407 181.725 73.9789 180.816 74.4574 179.875C74.751 179.297 75.1622 178.806 75.6908 178.402C76.2194 177.997 77.0188 177.63 78.089 177.299L83.8165 175.485L77.6388 172.345Z" fill="#636369"/>
<path d="M61.1313 166.411C60.6323 165.726 60.3965 165.034 60.4238 164.336C60.4341 163.638 60.7185 162.976 61.2768 162.348C61.9948 161.541 62.8495 161.185 63.841 161.281C64.8156 161.377 65.8856 161.943 67.051 162.98L71.381 166.833L63.0052 176.246L58.9441 172.633C57.8952 171.699 57.2714 170.767 57.0726 169.835C56.8648 168.895 57.1039 168.04 57.7899 167.269C58.2526 166.749 58.7774 166.421 59.3644 166.285C59.9345 166.149 60.5235 166.191 61.1313 166.411ZM62.74 174.541L65.7792 171.125L62.7805 168.457C62.0185 167.779 61.3036 167.4 60.636 167.32C59.9604 167.248 59.3753 167.491 58.8807 168.047C58.3861 168.602 58.2174 169.207 58.3745 169.861C58.5237 170.524 58.9792 171.194 59.7413 171.872L62.74 174.541ZM66.3346 163.813C65.4919 163.063 64.7277 162.64 64.0422 162.544C63.3566 162.448 62.7426 162.705 62.2001 163.314C61.1552 164.489 61.4843 165.834 63.1876 167.349L66.5091 170.305L69.656 166.768L66.3346 163.813Z" fill="#636369"/>
<path d="M176.136 155C163.982 174.519 145.826 183.198 135 186.826" stroke="#636369"/>
</svg>
