<svg width="300" height="633" viewBox="0 0 300 633" fill="none" xmlns="http://www.w3.org/2000/svg">
<g filter="url(#filter0_dd)">
<path fill-rule="evenodd" clip-rule="evenodd" d="M-57.3669 553.349C-107.044 549.869 -161.093 536.978 -192.236 498.107C-222.525 460.303 -203.466 405.291 -213.897 357.978C-225.301 306.247 -280.508 255.756 -256.019 208.781C-231.461 161.672 -157.282 180.214 -109.324 157.383C-63.7147 135.671 -34.03 73.5311 16.1568 79.2128C66.1731 84.8751 85.4308 147.114 120.344 183.384C154.182 218.537 203.626 241.359 217.326 288.198C231.72 337.41 221.446 392.953 194.38 436.501C168.453 478.216 119.757 496.17 75.2159 516.844C32.5921 536.627 -10.4959 556.632 -57.3669 553.349Z" fill="#252525"/>
</g>
<g filter="url(#filter1_dd)">
<path fill-rule="evenodd" clip-rule="evenodd" d="M-66.3921 460.773C-103.408 458.185 -143.68 448.574 -166.879 419.572C-189.441 391.364 -175.23 350.307 -182.994 314.999C-191.482 276.395 -232.61 238.725 -214.354 203.664C-196.046 168.503 -140.775 182.327 -105.036 165.28C-71.0464 149.068 -48.9158 102.689 -11.5205 106.92C25.7478 111.137 40.0862 157.581 66.0948 184.642C91.303 210.87 128.141 227.893 138.341 262.846C149.058 299.569 141.393 341.022 121.216 373.526C101.889 404.661 65.6007 418.069 32.4077 433.506C0.643279 448.278 -31.4671 463.215 -66.3921 460.773Z" fill="#242424"/>
</g>
<g filter="url(#filter2_dd)">
<path fill-rule="evenodd" clip-rule="evenodd" d="M-80.4202 401.503C-106.52 399.67 -134.919 392.901 -151.286 372.511C-167.205 352.681 -157.2 323.833 -162.687 299.019C-168.687 271.887 -197.699 245.399 -184.84 220.768C-171.944 196.065 -132.969 205.8 -107.777 193.834C-83.8177 182.454 -68.2311 149.87 -41.8631 152.857C-15.5845 155.834 -5.4576 188.478 12.8905 207.504C30.6739 225.945 56.654 237.921 63.8589 262.488C71.4288 288.299 66.0392 317.426 51.8254 340.261C38.2102 362.133 12.6289 371.542 -10.769 382.377C-33.1598 392.747 -55.7945 403.232 -80.4202 401.503Z" fill="#222222"/>
</g>
<defs>
<filter id="filter0_dd" x="-346.604" y="0.541992" width="646.396" height="631.875" filterUnits="userSpaceOnUse" color-interpolation-filters="sRGB">
<feFlood flood-opacity="0" result="BackgroundImageFix"/>
<feColorMatrix in="SourceAlpha" type="matrix" values="0 0 0 0 0 0 0 0 0 0 0 0 0 0 0 0 0 0 127 0"/>
<feOffset dx="10" dy="10"/>
<feGaussianBlur stdDeviation="15"/>
<feColorMatrix type="matrix" values="0 0 0 0 0.0627451 0 0 0 0 0.0627451 0 0 0 0 0.0627451 0 0 0 0.8 0"/>
<feBlend mode="normal" in2="BackgroundImageFix" result="effect1_dropShadow"/>
<feColorMatrix in="SourceAlpha" type="matrix" values="0 0 0 0 0 0 0 0 0 0 0 0 0 0 0 0 0 0 127 0"/>
<feOffset dx="-10" dy="-10"/>
<feGaussianBlur stdDeviation="15"/>
<feColorMatrix type="matrix" values="0 0 0 0 0.219608 0 0 0 0 0.219608 0 0 0 0 0.219608 0 0 0 0.8 0"/>
<feBlend mode="normal" in2="effect1_dropShadow" result="effect2_dropShadow"/>
<feBlend mode="normal" in="SourceGraphic" in2="effect2_dropShadow" result="shape"/>
</filter>
<filter id="filter1_dd" x="-292.103" y="38.1055" width="502.118" height="491.779" filterUnits="userSpaceOnUse" color-interpolation-filters="sRGB">
<feFlood flood-opacity="0" result="BackgroundImageFix"/>
<feColorMatrix in="SourceAlpha" type="matrix" values="0 0 0 0 0 0 0 0 0 0 0 0 0 0 0 0 0 0 127 0"/>
<feOffset dx="10" dy="10"/>
<feGaussianBlur stdDeviation="15"/>
<feColorMatrix type="matrix" values="0 0 0 0 0.0627451 0 0 0 0 0.0627451 0 0 0 0 0.0627451 0 0 0 0.8 0"/>
<feBlend mode="normal" in2="BackgroundImageFix" result="effect1_dropShadow"/>
<feColorMatrix in="SourceAlpha" type="matrix" values="0 0 0 0 0 0 0 0 0 0 0 0 0 0 0 0 0 0 127 0"/>
<feOffset dx="-10" dy="-10"/>
<feGaussianBlur stdDeviation="15"/>
<feColorMatrix type="matrix" values="0 0 0 0 0.219608 0 0 0 0 0.219608 0 0 0 0 0.219608 0 0 0 0.8 0"/>
<feBlend mode="normal" in2="effect1_dropShadow" result="effect2_dropShadow"/>
<feBlend mode="normal" in="SourceGraphic" in2="effect2_dropShadow" result="shape"/>
</filter>
<filter id="filter2_dd" x="-251.371" y="92.5396" width="377.515" height="369.489" filterUnits="userSpaceOnUse" color-interpolation-filters="sRGB">
<feFlood flood-opacity="0" result="BackgroundImageFix"/>
<feColorMatrix in="SourceAlpha" type="matrix" values="0 0 0 0 0 0 0 0 0 0 0 0 0 0 0 0 0 0 127 0"/>
<feOffset dx="10" dy="10"/>
<feGaussianBlur stdDeviation="15"/>
<feColorMatrix type="matrix" values="0 0 0 0 0.0627451 0 0 0 0 0.0627451 0 0 0 0 0.0627451 0 0 0 0.8 0"/>
<feBlend mode="normal" in2="BackgroundImageFix" result="effect1_dropShadow"/>
<feColorMatrix in="SourceAlpha" type="matrix" values="0 0 0 0 0 0 0 0 0 0 0 0 0 0 0 0 0 0 127 0"/>
<feOffset dx="-10" dy="-10"/>
<feGaussianBlur stdDeviation="15"/>
<feColorMatrix type="matrix" values="0 0 0 0 0.219608 0 0 0 0 0.219608 0 0 0 0 0.219608 0 0 0 0.8 0"/>
<feBlend mode="normal" in2="effect1_dropShadow" result="effect2_dropShadow"/>
<feBlend mode="normal" in="SourceGraphic" in2="effect2_dropShadow" result="shape"/>
</filter>
</defs>
</svg>
