<svg width="552" height="554" viewBox="0 0 552 554" fill="none" xmlns="http://www.w3.org/2000/svg">
<g filter="url(#filter0_dd)">
<path fill-rule="evenodd" clip-rule="evenodd" d="M238.695 296.569C193.741 344.566 153.007 405.597 157.771 471.186C162.405 534.976 230.248 571.081 262.639 626.23C298.055 686.53 289.964 784.981 355.846 808.432C421.917 831.95 477.059 747.367 543.974 726.371C607.612 706.404 692.141 739.86 735.611 689.274C778.933 638.861 741.682 561.339 742.902 494.879C744.085 430.465 771.444 363.964 742.644 306.335C712.384 245.787 652.565 201.276 587.264 183.457C524.714 166.388 461.463 192.764 399.791 212.777C340.774 231.928 281.109 251.282 238.695 296.569Z" fill="#252525"/>
</g>
<g filter="url(#filter1_dd)">
<path fill-rule="evenodd" clip-rule="evenodd" d="M285.707 335.267C249.109 374.344 215.945 424.031 219.818 477.426C223.584 529.356 278.809 558.742 305.172 603.636C333.997 652.722 327.403 732.87 381.031 751.955C434.814 771.096 479.709 702.234 534.182 685.136C585.988 668.876 654.796 696.105 690.186 654.921C725.456 613.877 695.139 550.77 696.138 496.667C697.106 444.229 719.383 390.089 695.942 343.176C671.314 293.888 622.623 257.657 569.467 243.156C518.549 229.266 467.058 250.744 416.853 267.04C368.809 282.636 320.237 298.397 285.707 335.267Z" fill="#242424"/>
</g>
<g filter="url(#filter2_dd)">
<path fill-rule="evenodd" clip-rule="evenodd" d="M328.322 387.888C299.85 418.291 274.048 456.946 277.049 498.476C279.967 538.868 322.911 561.714 343.405 596.628C365.813 634.802 360.668 697.145 402.372 711.979C444.197 726.855 479.127 673.284 521.496 659.974C561.789 647.315 615.297 668.481 642.83 636.44C670.269 604.507 646.703 555.428 647.491 513.345C648.255 472.557 665.591 430.441 647.37 393.956C628.227 355.624 590.366 327.453 549.028 316.184C509.431 305.391 469.38 322.107 430.331 334.793C392.963 346.934 355.185 359.203 328.322 387.888Z" fill="#222222"/>
</g>
<defs>
<filter id="filter0_dd" x="0.998047" y="0.0722656" width="971.529" height="990.348" filterUnits="userSpaceOnUse" color-interpolation-filters="sRGB">
<feFlood flood-opacity="0" result="BackgroundImageFix"/>
<feColorMatrix in="SourceAlpha" type="matrix" values="0 0 0 0 0 0 0 0 0 0 0 0 0 0 0 0 0 0 127 0"/>
<feOffset dy="10"/>
<feGaussianBlur stdDeviation="15"/>
<feColorMatrix type="matrix" values="0 0 0 0 0.25098 0 0 0 0 0.25098 0 0 0 0 0.25098 0 0 0 0.7 0"/>
<feBlend mode="normal" in2="BackgroundImageFix" result="effect1_dropShadow"/>
<feColorMatrix in="SourceAlpha" type="matrix" values="0 0 0 0 0 0 0 0 0 0 0 0 0 0 0 0 0 0 127 0"/>
<feOffset dx="5" dy="-10"/>
<feGaussianBlur stdDeviation="15"/>
<feColorMatrix type="matrix" values="0 0 0 0 0 0 0 0 0 0 0 0 0 0 0 0 0 0 0.6 0"/>
<feBlend mode="normal" in2="effect1_dropShadow" result="effect2_dropShadow"/>
<feBlend mode="normal" in="SourceGraphic" in2="effect2_dropShadow" result="shape"/>
</filter>
<filter id="filter1_dd" x="86.6118" y="86.4414" width="802.964" height="821.09" filterUnits="userSpaceOnUse" color-interpolation-filters="sRGB">
<feFlood flood-opacity="0" result="BackgroundImageFix"/>
<feColorMatrix in="SourceAlpha" type="matrix" values="0 0 0 0 0 0 0 0 0 0 0 0 0 0 0 0 0 0 127 0"/>
<feOffset dy="10"/>
<feGaussianBlur stdDeviation="15"/>
<feColorMatrix type="matrix" values="0 0 0 0 0.25098 0 0 0 0 0.25098 0 0 0 0 0.25098 0 0 0 0.7 0"/>
<feBlend mode="normal" in2="BackgroundImageFix" result="effect1_dropShadow"/>
<feColorMatrix in="SourceAlpha" type="matrix" values="0 0 0 0 0 0 0 0 0 0 0 0 0 0 0 0 0 0 127 0"/>
<feOffset dx="5" dy="-10"/>
<feGaussianBlur stdDeviation="15"/>
<feColorMatrix type="matrix" values="0 0 0 0 0 0 0 0 0 0 0 0 0 0 0 0 0 0 0.6 0"/>
<feBlend mode="normal" in2="effect1_dropShadow" result="effect2_dropShadow"/>
<feBlend mode="normal" in="SourceGraphic" in2="effect2_dropShadow" result="shape"/>
</filter>
<filter id="filter2_dd" x="166.769" y="185.426" width="638.954" height="656.422" filterUnits="userSpaceOnUse" color-interpolation-filters="sRGB">
<feFlood flood-opacity="0" result="BackgroundImageFix"/>
<feColorMatrix in="SourceAlpha" type="matrix" values="0 0 0 0 0 0 0 0 0 0 0 0 0 0 0 0 0 0 127 0"/>
<feOffset dy="10"/>
<feGaussianBlur stdDeviation="15"/>
<feColorMatrix type="matrix" values="0 0 0 0 0.25098 0 0 0 0 0.25098 0 0 0 0 0.25098 0 0 0 0.7 0"/>
<feBlend mode="normal" in2="BackgroundImageFix" result="effect1_dropShadow"/>
<feColorMatrix in="SourceAlpha" type="matrix" values="0 0 0 0 0 0 0 0 0 0 0 0 0 0 0 0 0 0 127 0"/>
<feOffset dx="5" dy="-10"/>
<feGaussianBlur stdDeviation="15"/>
<feColorMatrix type="matrix" values="0 0 0 0 0 0 0 0 0 0 0 0 0 0 0 0 0 0 0.6 0"/>
<feBlend mode="normal" in2="effect1_dropShadow" result="effect2_dropShadow"/>
<feBlend mode="normal" in="SourceGraphic" in2="effect2_dropShadow" result="shape"/>
</filter>
</defs>
</svg>
