<?xml version="1.0" encoding="UTF-8"?>
<svg width="578px" height="286px" viewBox="0 0 578 286" version="1.1" xmlns="http://www.w3.org/2000/svg" xmlns:xlink="http://www.w3.org/1999/xlink">
    <title>it2b-04</title>
    <g id="Page-1" stroke="none" stroke-width="1" fill="none" fill-rule="evenodd">
        <g id="it2b-04" transform="translate(2.000000, 2.000000)">
            <ellipse id="Oval" stroke="#D40E31" stroke-width="5" cx="287.02" cy="141.05" rx="286.22" ry="140.45"></ellipse>
            <polygon id="Path" fill="#D40E31" fill-rule="nonzero" points="344.4 158.94 354.2 128.21 340.03 111.63 252.74 111.66 236.66 124.14 232.64 136.75 267.29 136.76 271.7 122.9 321.78 122.9 313.96 147.61 229.04 147.51 218.26 181.19 337.27 181.19 341.12 169.23 256.97 169.08 260.2 158.97"></polygon>
            <polygon id="Path" fill="#D40E31" fill-rule="nonzero" points="117.51 111.69 114.01 122.68 149.07 122.58 152.75 111.7"></polygon>
            <polygon id="Path" fill="#D40E31" fill-rule="nonzero" points="144.13 137.28 109.45 137.28 94.96 181.25 130.15 181.13"></polygon>
            <polygon id="Path" fill="#D40E31" fill-rule="nonzero" points="222.84 136.75 227.25 122.9 193.45 122.9 200.42 101.2 165.38 101.2 144.07 168.01 157.25 181.05 208.63 181.26 212.42 169.38 178.35 169.38 188.93 136.78"></polygon>
            <polygon id="Path" fill="#D40E31" fill-rule="nonzero" points="479.27 137.28 465.69 122.92 412.11 122.9 407.6 137.02 443.87 137 443.45 138.34 443.43 138.34 440.28 147.66 440.28 147.66 433.6 168.19 386.31 169.35 408.16 100.85 371.87 101.11 346.5 181.09 465.32 181.01"></polygon>
        </g>
    </g>
</svg>