<svg width="916" height="404" viewBox="0 0 916 404" fill="none" xmlns="http://www.w3.org/2000/svg">
<line opacity="0.9" x1="238.5" y1="-2.18557e-08" x2="238.5" y2="404" stroke="url(#paint0_radial)"/>
<line opacity="0.9" x1="295.5" y1="-2.18557e-08" x2="295.5" y2="404" stroke="url(#paint1_radial)" stroke-dasharray="2 2"/>
<line opacity="0.9" x1="249" y1="147.5" x2="916" y2="147.5" stroke="url(#paint2_radial)"/>
<path opacity="0.9" d="M293.28 147.6L293.941 147.954L294.533 146.85H293.28V147.6ZM272.4 186.552L271.739 186.198L271.737 186.201L272.4 186.552ZM264.264 196.056L263.846 195.433L263.841 195.436L264.264 196.056ZM244.896 197.424L244.182 197.194L243.966 197.864L244.621 198.122L244.896 197.424ZM248.28 186.912L248.491 186.192L247.79 185.987L247.566 186.682L248.28 186.912ZM256.992 186.84L256.623 186.187L256.617 186.191L256.61 186.194L256.992 186.84ZM260.016 183.888L260.637 184.309L260.892 183.932L260.676 183.532L260.016 183.888ZM240.432 147.6V146.85H239.175L239.772 147.956L240.432 147.6ZM255.48 147.6L256.156 147.274L255.951 146.85H255.48V147.6ZM267.216 171.936L266.54 172.262L267.204 173.637L267.887 172.271L267.216 171.936ZM279.384 147.6V146.85H278.92L278.713 147.265L279.384 147.6ZM292.619 147.246L271.739 186.198L273.061 186.906L293.941 147.954L292.619 147.246ZM271.737 186.201C269.574 190.292 266.939 193.356 263.846 195.433L264.682 196.679C268.021 194.436 270.81 191.164 273.063 186.903L271.737 186.201ZM263.841 195.436C260.797 197.512 257.463 198.546 253.824 198.546V200.046C257.769 200.046 261.395 198.92 264.687 196.676L263.841 195.436ZM253.824 198.546C251.153 198.546 248.27 197.947 245.171 196.726L244.621 198.122C247.858 199.397 250.927 200.046 253.824 200.046V198.546ZM245.61 197.654L248.994 187.142L247.566 186.682L244.182 197.194L245.61 197.654ZM248.069 187.632C250.077 188.219 251.832 188.526 253.32 188.526V187.026C252.024 187.026 250.419 186.757 248.491 186.192L248.069 187.632ZM253.32 188.526C254.828 188.526 256.187 188.187 257.374 187.486L256.61 186.194C255.685 186.741 254.596 187.026 253.32 187.026V188.526ZM257.361 187.493C258.59 186.798 259.677 185.723 260.637 184.309L259.395 183.467C258.531 184.741 257.602 185.634 256.623 186.187L257.361 187.493ZM260.676 183.532L241.092 147.244L239.772 147.956L259.356 184.244L260.676 183.532ZM240.432 148.35H255.48V146.85H240.432V148.35ZM254.804 147.926L266.54 172.262L267.892 171.61L256.156 147.274L254.804 147.926ZM267.887 172.271L280.055 147.935L278.713 147.265L266.545 171.601L267.887 172.271ZM279.384 148.35H293.28V146.85H279.384V148.35ZM309.966 195.696L309.609 196.356L309.619 196.361L309.966 195.696ZM300.102 186.336L299.46 186.723L300.102 186.336ZM300.102 159.264L299.46 158.877L300.102 159.264ZM309.966 149.976L310.317 150.639L310.319 150.638L309.966 149.976ZM336.678 149.04L336.375 149.726L336.678 149.04ZM345.894 156.096L346.397 156.652L346.92 156.18L346.481 155.629L345.894 156.096ZM336.822 164.304L336.245 164.783L336.745 165.386L337.325 164.86L336.822 164.304ZM317.598 160.2L317.234 159.544L317.227 159.548L317.598 160.2ZM312.63 165.312L311.971 164.954L311.968 164.959L312.63 165.312ZM312.63 180.36L311.965 180.707L311.97 180.716L311.974 180.724L312.63 180.36ZM317.598 185.4L317.227 186.052L317.234 186.056L317.598 185.4ZM336.822 181.296L337.325 180.74L336.745 180.214L336.245 180.817L336.822 181.296ZM345.894 189.504L346.481 189.971L346.92 189.42L346.397 188.948L345.894 189.504ZM336.678 196.56L336.981 197.246L336.678 196.56ZM324.222 198.258C319.05 198.258 314.419 197.177 310.313 195.031L309.619 196.361C313.961 198.631 318.834 199.758 324.222 199.758V198.258ZM310.322 195.036C306.262 192.843 303.074 189.816 300.744 185.949L299.46 186.723C301.93 190.824 305.318 194.037 309.61 196.356L310.322 195.036ZM300.744 185.949C298.421 182.092 297.252 177.715 297.252 172.8H295.752C295.752 177.965 296.983 182.612 299.46 186.723L300.744 185.949ZM297.252 172.8C297.252 167.885 298.421 163.508 300.744 159.651L299.46 158.877C296.983 162.988 295.752 167.635 295.752 172.8H297.252ZM300.744 159.651C303.073 155.786 306.259 152.784 310.317 150.639L309.615 149.313C305.321 151.584 301.931 154.774 299.46 158.877L300.744 159.651ZM310.319 150.638C314.424 148.445 319.052 147.342 324.222 147.342V145.842C318.832 145.842 313.956 146.995 309.613 149.314L310.319 150.638ZM324.222 147.342C328.74 147.342 332.787 148.142 336.375 149.726L336.981 148.354C333.177 146.674 328.92 145.842 324.222 145.842V147.342ZM336.375 149.726C339.964 151.311 342.937 153.589 345.307 156.563L346.481 155.629C343.955 152.459 340.784 150.033 336.981 148.354L336.375 149.726ZM345.391 155.54L336.319 163.748L337.325 164.86L346.397 156.652L345.391 155.54ZM337.399 163.825C334.009 159.737 329.845 157.65 324.942 157.65V159.15C329.351 159.15 333.107 160.999 336.245 164.783L337.399 163.825ZM324.942 157.65C322.093 157.65 319.517 158.276 317.234 159.544L317.962 160.856C319.999 159.724 322.319 159.15 324.942 159.15V157.65ZM317.227 159.548C314.989 160.82 313.235 162.627 311.971 164.954L313.289 165.67C314.425 163.581 315.983 161.98 317.969 160.852L317.227 159.548ZM311.968 164.959C310.75 167.244 310.152 169.864 310.152 172.8H311.652C311.652 170.072 312.206 167.7 313.292 165.665L311.968 164.959ZM310.152 172.8C310.152 175.736 310.75 178.378 311.965 180.707L313.295 180.013C312.206 177.926 311.652 175.528 311.652 172.8H310.152ZM311.974 180.724C313.24 183.002 314.994 184.783 317.227 186.052L317.969 184.748C315.978 183.617 314.42 182.038 313.286 179.996L311.974 180.724ZM317.234 186.056C319.517 187.324 322.093 187.95 324.942 187.95V186.45C322.319 186.45 319.999 185.876 317.962 184.744L317.234 186.056ZM324.942 187.95C329.845 187.95 334.009 185.863 337.399 181.775L336.245 180.817C333.107 184.601 329.351 186.45 324.942 186.45V187.95ZM336.319 181.852L345.391 190.06L346.397 188.948L337.325 180.74L336.319 181.852ZM345.307 189.037C342.937 192.011 339.964 194.289 336.375 195.874L336.981 197.246C340.784 195.567 343.955 193.141 346.481 189.971L345.307 189.037ZM336.375 195.874C332.787 197.458 328.74 198.258 324.222 198.258V199.758C328.92 199.758 333.177 198.926 336.981 197.246L336.375 195.874ZM400.675 147.6H401.425V146.85H400.675V147.6ZM400.675 198V198.75H401.425V198H400.675ZM386.635 198H385.885V198.75H386.635V198ZM386.635 158.904H387.385V158.154H386.635V158.904ZM372.163 158.904V158.154H371.439L371.413 158.878L372.163 158.904ZM371.875 167.112L371.125 167.086L371.125 167.087L371.875 167.112ZM370.075 184.68L369.341 184.524L369.34 184.531L370.075 184.68ZM365.323 195.192L365.874 195.7L365.879 195.695L365.323 195.192ZM349.267 198L348.518 197.949L348.476 198.581L349.092 198.729L349.267 198ZM350.059 186.336L350.227 185.605L349.37 185.407L349.31 186.285L350.059 186.336ZM358.483 178.128L359.223 178.249L359.223 178.247L358.483 178.128ZM359.347 167.688L358.597 167.661L358.597 167.663L359.347 167.688ZM360.067 147.6V146.85H359.343L359.317 147.573L360.067 147.6ZM399.925 147.6V198H401.425V147.6H399.925ZM400.675 197.25H386.635V198.75H400.675V197.25ZM387.385 198V158.904H385.885V198H387.385ZM386.635 158.154H372.163V159.654H386.635V158.154ZM371.413 158.878L371.125 167.086L372.624 167.138L372.912 158.93L371.413 158.878ZM371.125 167.087C370.886 174.264 370.288 180.072 369.341 184.524L370.808 184.836C371.781 180.264 372.384 174.359 372.624 167.137L371.125 167.087ZM369.34 184.531C368.445 188.958 366.905 192.323 364.766 194.689L365.879 195.695C368.253 193.069 369.881 189.426 370.81 184.829L369.34 184.531ZM364.771 194.684C362.69 196.942 359.719 198.114 355.747 198.114V199.614C360.03 199.614 363.443 198.338 365.874 195.7L364.771 194.684ZM355.747 198.114C353.9 198.114 351.8 197.837 349.442 197.271L349.092 198.729C351.534 199.315 353.754 199.614 355.747 199.614V198.114ZM350.015 198.051L350.807 186.387L349.31 186.285L348.518 197.949L350.015 198.051ZM349.89 187.067C350.572 187.224 351.277 187.302 352.003 187.302V185.802C351.385 185.802 350.793 185.736 350.227 185.605L349.89 187.067ZM352.003 187.302C354.111 187.302 355.789 186.445 356.944 184.741L355.702 183.899C354.84 185.171 353.638 185.802 352.003 185.802V187.302ZM356.944 184.741C358.035 183.13 358.781 180.949 359.223 178.249L357.743 178.007C357.32 180.587 356.626 182.534 355.702 183.899L356.944 184.741ZM359.223 178.247C359.662 175.516 359.952 172.001 360.096 167.713L358.597 167.663C358.454 171.919 358.167 175.364 357.742 178.009L359.223 178.247ZM360.096 167.715L360.816 147.627L359.317 147.573L358.597 167.661L360.096 167.715ZM360.067 148.35H400.675V146.85H360.067V148.35ZM461.856 147.6L462.517 147.954L463.109 146.85H461.856V147.6ZM440.976 186.552L440.315 186.198L440.313 186.201L440.976 186.552ZM432.84 196.056L432.421 195.433L432.417 195.436L432.84 196.056ZM413.472 197.424L412.758 197.194L412.542 197.864L413.197 198.122L413.472 197.424ZM416.856 186.912L417.066 186.192L416.365 185.987L416.142 186.682L416.856 186.912ZM425.568 186.84L425.199 186.187L425.192 186.191L425.186 186.194L425.568 186.84ZM428.592 183.888L429.212 184.309L429.468 183.932L429.252 183.532L428.592 183.888ZM409.008 147.6V146.85H407.751L408.348 147.956L409.008 147.6ZM424.056 147.6L424.731 147.274L424.527 146.85H424.056V147.6ZM435.792 171.936L435.116 172.262L435.779 173.637L436.462 172.271L435.792 171.936ZM447.96 147.6V146.85H447.496L447.289 147.265L447.96 147.6ZM461.195 147.246L440.315 186.198L441.637 186.906L462.517 147.954L461.195 147.246ZM440.313 186.201C438.15 190.292 435.514 193.356 432.421 195.433L433.258 196.679C436.597 194.436 439.385 191.164 441.639 186.903L440.313 186.201ZM432.417 195.436C429.372 197.512 426.039 198.546 422.4 198.546V200.046C426.344 200.046 429.971 198.92 433.262 196.676L432.417 195.436ZM422.4 198.546C419.728 198.546 416.846 197.947 413.747 196.726L413.197 198.122C416.433 199.397 419.503 200.046 422.4 200.046V198.546ZM414.186 197.654L417.57 187.142L416.142 186.682L412.758 197.194L414.186 197.654ZM416.645 187.632C418.652 188.219 420.407 188.526 421.896 188.526V187.026C420.6 187.026 418.995 186.757 417.066 186.192L416.645 187.632ZM421.896 188.526C423.403 188.526 424.763 188.187 425.949 187.486L425.186 186.194C424.261 186.741 423.172 187.026 421.896 187.026V188.526ZM425.937 187.493C427.165 186.798 428.253 185.723 429.212 184.309L427.971 183.467C427.106 184.741 426.178 185.634 425.199 186.187L425.937 187.493ZM429.252 183.532L409.668 147.244L408.348 147.956L427.932 184.244L429.252 183.532ZM409.008 148.35H424.056V146.85H409.008V148.35ZM423.38 147.926L435.116 172.262L436.467 171.61L424.731 147.274L423.38 147.926ZM436.462 172.271L448.63 147.935L447.289 147.265L435.121 171.601L436.462 172.271ZM447.96 148.35H461.856V146.85H447.96V148.35ZM505.813 158.904V159.654H506.558L506.563 158.909L505.813 158.904ZM482.989 158.904V158.154H482.239V158.904H482.989ZM482.989 198V198.75H483.739V198H482.989ZM468.949 198H468.199V198.75H468.949V198ZM468.949 147.6V146.85H468.199V147.6H468.949ZM505.885 147.6L506.635 147.605L506.64 146.85H505.885V147.6ZM505.813 158.154H482.989V159.654H505.813V158.154ZM482.239 158.904V198H483.739V158.904H482.239ZM482.989 197.25H468.949V198.75H482.989V197.25ZM469.699 198V147.6H468.199V198H469.699ZM468.949 148.35H505.885V146.85H468.949V148.35ZM505.135 147.595L505.063 158.899L506.563 158.909L506.635 147.605L505.135 147.595ZM514.781 147.6V146.85H514.031V147.6H514.781ZM528.821 147.6H529.571V146.85H528.821V147.6ZM528.821 177.192H528.071V179.563L529.435 177.623L528.821 177.192ZM549.629 147.6V146.85H549.24L549.016 147.169L549.629 147.6ZM563.021 147.6H563.771V146.85H563.021V147.6ZM563.021 198V198.75H563.771V198H563.021ZM548.981 198H548.231V198.75H548.981V198ZM548.981 168.48H549.731V166.107L548.368 168.049L548.981 168.48ZM528.245 198V198.75H528.635L528.859 198.431L528.245 198ZM514.781 198H514.031V198.75H514.781V198ZM514.781 148.35H528.821V146.85H514.781V148.35ZM528.071 147.6V177.192H529.571V147.6H528.071ZM529.435 177.623L550.243 148.031L549.016 147.169L528.208 176.761L529.435 177.623ZM549.629 148.35H563.021V146.85H549.629V148.35ZM562.271 147.6V198H563.771V147.6H562.271ZM563.021 197.25H548.981V198.75H563.021V197.25ZM549.731 198V168.48H548.231V198H549.731ZM548.368 168.049L527.632 197.569L528.859 198.431L549.595 168.911L548.368 168.049ZM528.245 197.25H514.781V198.75H528.245V197.25ZM515.531 198V147.6H514.031V198H515.531Z" fill="#C3C3C5" fill-opacity="0.9"/>
<line opacity="0.9" x1="-3" y1="198.5" x2="771" y2="198.5" stroke="url(#paint3_radial)"/>
<defs>
<radialGradient id="paint0_radial" cx="0" cy="0" r="1" gradientUnits="userSpaceOnUse" gradientTransform="translate(238 209.77) rotate(-173.078) scale(64.4702 26570.1)">
<stop offset="0.401042" stop-color="#C3C3C5"/>
<stop offset="1" stop-color="white" stop-opacity="0"/>
</radialGradient>
<radialGradient id="paint1_radial" cx="0" cy="0" r="1" gradientUnits="userSpaceOnUse" gradientTransform="translate(295 209.77) rotate(-173.078) scale(64.4702 26570.1)">
<stop offset="0.401042" stop-color="#C3C3C5"/>
<stop offset="1" stop-color="white" stop-opacity="0"/>
</radialGradient>
<radialGradient id="paint2_radial" cx="0" cy="0" r="1" gradientUnits="userSpaceOnUse" gradientTransform="translate(595.328 148) rotate(101.333) scale(65.2731 43327.4)">
<stop offset="0.401042" stop-color="#C3C3C5"/>
<stop offset="1" stop-color="white" stop-opacity="0"/>
</radialGradient>
<radialGradient id="paint3_radial" cx="0" cy="0" r="1" gradientUnits="userSpaceOnUse" gradientTransform="translate(398.885 199) rotate(103.093) scale(65.7085 49944.8)">
<stop stop-color="#AEAEC0"/>
<stop offset="1" stop-color="white" stop-opacity="0"/>
</radialGradient>
</defs>
</svg>
