<svg version="1.1" id="Layer_1" xmlns="http://www.w3.org/2000/svg" xmlns:xlink="http://www.w3.org/1999/xlink" x="0px" y="0px" enable-background="new 0 0 100 100" xml:space="preserve">
    <g>
        <symbol id="moon" viewBox="0 0 22 23">
            <path d="M6.50793 21.861C12.2229 24.6135 19.0844 22.2061 21.8334 16.4838C21.8912 16.3635 21.9467 16.2427 22 16.1214C19.5786 17.6375 16.4572 17.9154 13.6933 16.5843C9.40707 14.5199 7.60377 9.3673 9.66554 5.07564C10.762 2.79328 12.7308 1.21404 14.9787 0.546081C9.60731 -1.17864 3.65208 1.28208 1.13756 6.51615C-1.61147 12.2384 0.792928 19.1085 6.50793 21.861Z" fill="#636369"/>
        </symbol>
    </g>
    <g>
        <symbol id="eye" viewBox="0 0 46 24">
            <path d="M23.0663 17.4699C26.0676 17.4699 28.5007 15.0369 28.5007 12.0355C28.5007 9.03415 26.0676 6.60107 23.0663 6.60107C20.0649 6.60107 17.6318 9.03415 17.6318 12.0355C17.6318 15.0369 20.0649 17.4699 23.0663 17.4699Z" fill="#636369" stroke="#F0F0F3" stroke-width="0.5"/>
            <path d="M44.8594 11.3469C44.4613 10.9258 34.9932 1 23.0636 1C11.1354 1 1.66851 10.9258 1.27154 11.3469C0.909487 11.7337 0.909487 12.3367 1.27154 12.7216C1.67008 13.1427 11.1372 23.073 23.0636 23.073C34.9932 23.073 44.4642 13.1427 44.8594 12.7216C45.224 12.3367 45.224 11.7305 44.8594 11.3469ZM23.0662 20.4365C18.4352 20.4365 14.6677 16.6682 14.6677 12.0335C14.6677 7.40244 18.4352 3.63202 23.0662 3.63202C27.697 3.63202 31.4698 7.40113 31.4698 12.0335C31.4688 16.6656 27.697 20.4365 23.0662 20.4365ZM16.4065 4.1025C14.1368 6.01252 12.6602 8.83988 12.6602 12.0335C12.6602 15.2258 14.1368 18.0534 16.4065 19.9668C10.1264 17.9471 5.19476 13.6972 3.43203 12.0335C5.19502 10.3716 10.1277 6.12121 16.4065 4.1025ZM29.7291 19.9637C31.9973 18.0523 33.4757 15.2242 33.4757 12.0335C33.4757 8.84276 31.9986 6.01672 29.7273 4.10539C36.0071 6.12515 40.9351 10.3697 42.6989 12.0335C40.9348 13.6957 36.0069 17.941 29.7291 19.9637Z" fill="#636369" stroke="#F0F0F3" stroke-width="0.5"/>
        </symbol>
    </g>
    <g>
        <symbol id="eye-big" viewBox="0 0 46 24">
            <path d="M23.1318 19.6011C27.274 19.6011 30.6318 16.2432 30.6318 12.1011C30.6318 7.95894 27.274 4.60107 23.1318 4.60107C18.9897 4.60107 15.6318 7.95894 15.6318 12.1011C15.6318 16.2432 18.9897 19.6011 23.1318 19.6011Z" fill="#636369" stroke="#F0F0F3" stroke-width="0.5"/>
            <path d="M44.8594 11.3469C44.4613 10.9258 34.9932 1 23.0636 1C11.1354 1 1.66851 10.9258 1.27154 11.3469C0.909487 11.7337 0.909487 12.3367 1.27154 12.7216C1.67008 13.1427 11.1372 23.073 23.0636 23.073C34.9932 23.073 44.4642 13.1427 44.8594 12.7216C45.224 12.3367 45.224 11.7305 44.8594 11.3469ZM23.0662 20.4365C18.4352 20.4365 14.6677 16.6682 14.6677 12.0335C14.6677 7.40244 18.4352 3.63202 23.0662 3.63202C27.697 3.63202 31.4698 7.40113 31.4698 12.0335C31.4688 16.6656 27.697 20.4365 23.0662 20.4365ZM16.4065 4.1025C14.1368 6.01252 12.6602 8.83988 12.6602 12.0335C12.6602 15.2258 14.1368 18.0534 16.4065 19.9668C10.1264 17.9471 5.19476 13.6972 3.43203 12.0335C5.19502 10.3716 10.1277 6.12121 16.4065 4.1025ZM29.7291 19.9637C31.9973 18.0523 33.4757 15.2242 33.4757 12.0335C33.4757 8.84276 31.9986 6.01672 29.7273 4.10539C36.0071 6.12515 40.9351 10.3697 42.6989 12.0335C40.9348 13.6957 36.0069 17.941 29.7291 19.9637Z" fill="#636369" stroke="#F0F0F3" stroke-width="0.5"/>
        </symbol>
    </g>
    <g>
        <symbol id="eye-black" viewBox="0 0 46 24">
            <path d="M23.0663 17.4699C26.0676 17.4699 28.5007 15.0369 28.5007 12.0355C28.5007 9.03415 26.0676 6.60107 23.0663 6.60107C20.0649 6.60107 17.6318 9.03415 17.6318 12.0355C17.6318 15.0369 20.0649 17.4699 23.0663 17.4699Z" fill="white" fill-opacity="0.8" stroke="#252525" stroke-width="0.5"/>
            <path d="M44.8594 11.3469C44.4613 10.9258 34.9932 1 23.0636 1C11.1354 1 1.66851 10.9258 1.27154 11.3469C0.909487 11.7337 0.909487 12.3367 1.27154 12.7216C1.67008 13.1427 11.1372 23.073 23.0636 23.073C34.9932 23.073 44.4642 13.1427 44.8594 12.7216C45.224 12.3367 45.224 11.7305 44.8594 11.3469ZM23.0662 20.4365C18.4352 20.4365 14.6677 16.6682 14.6677 12.0335C14.6677 7.40244 18.4352 3.63202 23.0662 3.63202C27.697 3.63202 31.4698 7.40113 31.4698 12.0335C31.4688 16.6656 27.697 20.4365 23.0662 20.4365ZM16.4065 4.1025C14.1368 6.01252 12.6602 8.83988 12.6602 12.0335C12.6602 15.2258 14.1368 18.0534 16.4065 19.9668C10.1264 17.9471 5.19476 13.6972 3.43203 12.0335C5.19502 10.3716 10.1277 6.12121 16.4065 4.1025ZM29.7291 19.9637C31.9973 18.0523 33.4757 15.2242 33.4757 12.0335C33.4757 8.84276 31.9986 6.01672 29.7273 4.10539C36.0071 6.12515 40.9351 10.3697 42.6989 12.0335C40.9348 13.6957 36.0069 17.941 29.7291 19.9637Z" fill="white" fill-opacity="0.6" stroke="#252525" stroke-width="0.5"/>
        </symbol>
    </g>
    <g>
        <symbol id="eye-black-big" viewBox="0 0 46 24">
            <path d="M23.1318 19.6011C27.274 19.6011 30.6318 16.2432 30.6318 12.1011C30.6318 7.95894 27.274 4.60107 23.1318 4.60107C18.9897 4.60107 15.6318 7.95894 15.6318 12.1011C15.6318 16.2432 18.9897 19.6011 23.1318 19.6011Z" fill="white" fill-opacity="0.8"/>
            <path d="M44.8594 11.3469C44.4613 10.9258 34.9932 1 23.0636 1C11.1354 1 1.66851 10.9258 1.27154 11.3469C0.909487 11.7337 0.909487 12.3367 1.27154 12.7216C1.67008 13.1427 11.1372 23.073 23.0636 23.073C34.9932 23.073 44.4642 13.1427 44.8594 12.7216C45.224 12.3367 45.224 11.7305 44.8594 11.3469ZM23.0662 20.4365C18.4352 20.4365 14.6677 16.6682 14.6677 12.0335C14.6677 7.40244 18.4352 3.63202 23.0662 3.63202C27.697 3.63202 31.4698 7.40113 31.4698 12.0335C31.4688 16.6656 27.697 20.4365 23.0662 20.4365ZM16.4065 4.1025C14.1368 6.01252 12.6602 8.83988 12.6602 12.0335C12.6602 15.2258 14.1368 18.0534 16.4065 19.9668C10.1264 17.9471 5.19476 13.6972 3.43203 12.0335C5.19502 10.3716 10.1277 6.12121 16.4065 4.1025ZM29.7291 19.9637C31.9973 18.0523 33.4757 15.2242 33.4757 12.0335C33.4757 8.84276 31.9986 6.01672 29.7273 4.10539C36.0071 6.12515 40.9351 10.3697 42.6989 12.0335C40.9348 13.6957 36.0069 17.941 29.7291 19.9637Z" fill="white" fill-opacity="0.6" stroke="#252525" stroke-width="0.5"/>
        </symbol>
    </g>
    <g>
        <symbol id="sun" viewBox="0 0 30 30">
            <rect x="0.67627" y="8.55762" width="22.4779" height="22.4779" transform="rotate(-19.3115 0.67627 8.55762)" fill="#A8A8A8" fill-opacity="0.8"/>
            <rect x="9.74365" width="22.4779" height="22.4779" transform="rotate(25.6885 9.74365 0)" fill="#A8A8A8" fill-opacity="0.8"/>
            <circle cx="14.9997" cy="15.0005" r="7.86728" transform="rotate(25.6885 14.9997 15.0005)" fill="white" fill-opacity="0.6"/>
        </symbol>
    </g>
</svg>