<?xml version="1.0" encoding="utf-8"?><svg width="869" height="404" fill="none" xmlns="http://www.w3.org/2000/svg" viewBox="0 0 869 404"><path opacity=".9" stroke="url(#apaint0_radial)" d="M240.5 0v404"/><path opacity=".9" stroke="url(#apaint1_radial)" stroke-dasharray="2 2" d="M298.5 0v404"/><path opacity=".9" stroke="url(#apaint2_radial)" d="M202 100.5h667"/><path opacity=".9" d="M255.768 149.624l-.353.662.003.001.35-.663zm-10.008-9.36l-.642.387.003.006.639-.393zm0-26.928l-.639-.393-.003.006.642.387zm10.008-9.36l-.35-.663-.003.001.353.662zm28.728 0l-.353.662.003.001.35-.663zm10.008 9.36l-.642.387.003.006.639-.393zm0 26.928l-.639-.393-.003.006.642.387zm-10.008 9.36l-.35-.663-.003.001.353.662zM277.08 139.4l.377.648-.377-.648zm4.896-5.04l.656.364.003-.006-.659-.358zm0-15.048l-.659.358.003.006.656-.364zm-4.896-5.112l.377-.648-.377.648zm-13.824 0l-.377-.648.377.648zm-4.896 5.112l.656.364.003-.006-.659-.358zm0 15.048l-.659.358.003.006.656-.364zm4.896 5.04l.377-.648-.377.648zm6.912 12.858c-5.219 0-9.896-1.104-14.05-3.297l-.7 1.326c4.39 2.319 9.313 3.471 14.75 3.471v-1.5zm-14.047-3.296c-4.109-2.194-7.345-5.223-9.722-9.091l-1.278.786c2.519 4.1 5.955 7.311 10.294 9.629l.706-1.324zm-9.719-9.085c-2.324-3.859-3.492-8.211-3.492-13.077h-1.5c0 5.118 1.232 9.742 3.708 13.851l1.284-.774zM242.91 126.8c0-4.866 1.168-9.218 3.492-13.077l-1.284-.774c-2.476 4.109-3.708 8.733-3.708 13.851h1.5zm3.489-13.071c2.377-3.868 5.613-6.897 9.722-9.091l-.706-1.324c-4.339 2.318-7.775 5.529-10.294 9.629l1.278.786zm9.719-9.09c4.154-2.193 8.831-3.297 14.05-3.297v-1.5c-5.437 0-10.36 1.152-14.75 3.471l.7 1.326zm14.05-3.297c5.219 0 9.871 1.104 13.975 3.296l.706-1.324c-4.344-2.32-9.244-3.472-14.681-3.472v1.5zm13.978 3.297c4.156 2.195 7.389 5.222 9.716 9.084l1.284-.774c-2.473-4.106-5.912-7.319-10.3-9.636l-.7 1.326zm9.719 9.09c2.37 3.857 3.561 8.208 3.561 13.071h1.5c0-5.121-1.257-9.746-3.783-13.857l-1.278.786zm3.561 13.071c0 4.863-1.191 9.214-3.561 13.071l1.278.786c2.526-4.111 3.783-8.736 3.783-13.857h-1.5zm-3.564 13.077c-2.327 3.862-5.56 6.889-9.716 9.084l.7 1.326c4.388-2.317 7.827-5.53 10.3-9.636l-1.284-.774zm-9.719 9.085c-4.104 2.192-8.756 3.296-13.975 3.296v1.5c5.437 0 10.337-1.152 14.681-3.472l-.706-1.324zm-13.975-7.012c2.667 0 5.103-.631 7.289-1.902l-.754-1.296c-1.942 1.129-4.114 1.698-6.535 1.698v1.5zm7.289-1.902c2.185-1.27 3.911-3.05 5.175-5.324l-1.312-.728c-1.136 2.046-2.674 3.626-4.617 4.756l.754 1.296zm5.178-5.33c1.267-2.331 1.891-4.977 1.891-7.918h-1.5c0 2.723-.576 5.117-1.709 7.202l1.318.716zm1.891-7.918c0-2.941-.624-5.565-1.894-7.852l-1.312.728c1.13 2.033 1.706 4.401 1.706 7.124h1.5zm-1.891-7.846c-1.262-2.322-2.989-4.13-5.178-5.402l-.754 1.296c1.939 1.128 3.476 2.728 4.614 4.822l1.318-.716zm-5.178-5.402c-2.186-1.271-4.622-1.902-7.289-1.902v1.5c2.421 0 4.593.569 6.535 1.698l.754-1.296zm-7.289-1.902c-2.667 0-5.103.631-7.289 1.902l.754 1.296c1.942-1.129 4.114-1.698 6.535-1.698v-1.5zm-7.289 1.902c-2.189 1.272-3.916 3.08-5.178 5.402l1.318.716c1.138-2.094 2.675-3.694 4.614-4.822l-.754-1.296zm-5.175 5.396c-1.27 2.287-1.894 4.911-1.894 7.852h1.5c0-2.723.576-5.091 1.706-7.124l-1.312-.728zm-1.894 7.852c0 2.941.624 5.587 1.891 7.918l1.318-.716c-1.133-2.085-1.709-4.479-1.709-7.202h-1.5zm1.894 7.924c1.264 2.274 2.99 4.054 5.175 5.324l.754-1.296c-1.943-1.13-3.481-2.71-4.617-4.756l-1.312.728zm5.175 5.324c2.186 1.271 4.622 1.902 7.289 1.902v-1.5c-2.421 0-4.593-.569-6.535-1.698l-.754 1.296zM379.744 101.6h.75v-.75h-.75v.75zm0 50.4v.75h.75V152h-.75zm-14.256 0h-.75v.75h.75V152zm0-19.656h.75v-.75h-.75v.75zm-19.44 0v-.75h-.75v.75h.75zm0 19.656v.75h.75V152h-.75zm-14.256 0h-.75v.75h.75V152zm0-50.4v-.75h-.75v.75h.75zm14.256 0h.75v-.75h-.75v.75zm0 18.936h-.75v.75h.75v-.75zm19.44 0v.75h.75v-.75h-.75zm0-18.936v-.75h-.75v.75h.75zm13.506 0V152h1.5v-50.4h-1.5zm.75 49.65h-14.256v1.5h14.256v-1.5zm-13.506.75v-19.656h-1.5V152h1.5zm-.75-20.406h-19.44v1.5h19.44v-1.5zm-20.19.75V152h1.5v-19.656h-1.5zm.75 18.906h-14.256v1.5h14.256v-1.5zm-13.506.75v-50.4h-1.5V152h1.5zm-.75-49.65h14.256v-1.5h-14.256v1.5zm13.506-.75v18.936h1.5V101.6h-1.5zm.75 19.686h19.44v-1.5h-19.44v1.5zm20.19-.75V101.6h-1.5v18.936h1.5zm-.75-18.186h14.256v-1.5h-14.256v1.5zm62.381 39.858l.695-.281-.189-.469h-.506v.75zm-21.312 0v-.75h-.506l-.189.469.695.281zm-3.96 9.792v.75h.506l.189-.469-.695-.281zm-14.544 0l-.686-.303-.465 1.053h1.151V152zm22.248-50.4v-.75h-.489l-.197.447.686.303zm14.04 0l.686-.304-.198-.446h-.488v.75zm22.32 50.4v.75h1.152l-.466-1.054-.686.304zm-14.832 0l-.695.281.189.469h.506V152zm-8.136-20.304v.75h1.109l-.413-1.03-.696.28zm-6.48-16.128l.696-.28-.696-1.732-.696 1.732.696.28zm-6.48 16.128l-.696-.28-.414 1.03h1.11v-.75zm17.136 9.762h-21.312v1.5h21.312v-1.5zm-22.007.469l-3.96 9.792 1.39.562 3.96-9.792-1.39-.562zm-3.265 9.323h-14.544v1.5h14.544v-1.5zm-13.858 1.053l22.248-50.4-1.372-.606-22.248 50.4 1.372.606zm21.562-49.953h14.04v-1.5h-14.04v1.5zm13.354-.446l22.32 50.4 1.372-.608-22.32-50.4-1.372.608zm23.006 49.346h-14.832v1.5h14.832v-1.5zm-14.137.469l-3.96-9.792-1.39.562 3.96 9.792 1.39-.562zm-8.135-20.303l-6.48-16.128-1.392.56 6.48 16.128 1.392-.56zm-7.872-16.128l-6.48 16.128 1.392.56 6.48-16.128-1.392-.56zm-5.784 17.158h12.96v-1.5h-12.96v1.5zm53.816 17.25l-.356.66.009.005.347-.665zm-9.864-9.36l-.642.387.642-.387zm0-27.072l-.642-.387.642.387zm9.864-9.288l.351.663.003-.001-.354-.662zm26.712-.936l-.303.686.303-.686zm9.216 7.056l.504.556.522-.472-.439-.551-.587.467zm-9.072 8.208l-.577.479.5.603.581-.526-.504-.556zm-19.224-4.104l-.364-.656-.006.004.37.652zm-4.968 5.112l-.659-.358-.002.005.661.353zm0 15.048l-.664.347.004.009.005.008.655-.364zm4.968 5.04l-.37.652.006.004.364-.656zm19.224-4.104l.504-.556-.581-.526-.5.603.577.479zm9.072 8.208l.587.467.439-.551-.522-.472-.504.556zm-9.216 7.056l.303.686-.303-.686zm-12.456 1.698c-5.172 0-9.803-1.081-13.908-3.227l-.695 1.33c4.342 2.27 9.216 3.397 14.603 3.397v-1.5zm-13.899-3.222c-4.061-2.193-7.249-5.22-9.578-9.087l-1.285.774c2.471 4.101 5.859 7.314 10.15 9.633l.713-1.32zm-9.578-9.087c-2.324-3.857-3.493-8.234-3.493-13.149h-1.5c0 5.165 1.232 9.812 3.708 13.923l1.285-.774zm-3.493-13.149c0-4.915 1.169-9.292 3.493-13.149l-1.285-.774c-2.476 4.111-3.708 8.758-3.708 13.923h1.5zm3.493-13.149c2.328-3.865 5.515-6.867 9.572-9.012l-.701-1.326c-4.295 2.271-7.684 5.461-10.156 9.564l1.285.774zm9.575-9.013c4.104-2.193 8.733-3.296 13.902-3.296v-1.5c-5.39 0-10.265 1.153-14.609 3.472l.707 1.324zm13.902-3.296c4.519 0 8.565.8 12.153 2.384l.606-1.372c-3.804-1.68-8.061-2.512-12.759-2.512v1.5zm12.153 2.384c3.589 1.585 6.563 3.863 8.933 6.837l1.173-.934c-2.526-3.17-5.696-5.596-9.5-7.275l-.606 1.372zm9.016 5.814l-9.072 8.208 1.007 1.112 9.072-8.208-1.007-1.112zm-7.991 8.285c-3.391-4.088-7.555-6.175-12.458-6.175v1.5c4.409 0 8.166 1.849 11.303 5.633l1.155-.958zm-12.458-6.175c-2.849 0-5.425.626-7.708 1.894l.729 1.312c2.037-1.132 4.357-1.706 6.979-1.706v-1.5zm-7.714 1.898c-2.238 1.272-3.992 3.079-5.257 5.406l1.318.716c1.136-2.089 2.694-3.69 4.68-4.818l-.741-1.304zm-5.259 5.411c-1.219 2.285-1.817 4.905-1.817 7.841h1.5c0-2.728.555-5.1 1.64-7.135l-1.323-.706zm-1.817 7.841c0 2.936.598 5.578 1.814 7.907l1.329-.694c-1.088-2.087-1.643-4.485-1.643-7.213h-1.5zm1.823 7.924c1.265 2.278 3.019 4.059 5.253 5.328l.741-1.304c-1.99-1.131-3.549-2.71-4.683-4.752l-1.311.728zm5.259 5.332c2.283 1.268 4.859 1.894 7.708 1.894v-1.5c-2.622 0-4.942-.574-6.979-1.706l-.729 1.312zm7.708 1.894c4.903 0 9.067-2.087 12.458-6.175l-1.155-.958c-3.137 3.784-6.894 5.633-11.303 5.633v1.5zm11.377-6.098l9.072 8.208 1.007-1.112-9.072-8.208-1.007 1.112zm8.989 7.185c-2.37 2.974-5.344 5.252-8.933 6.837l.606 1.372c3.804-1.679 6.974-4.105 9.5-7.275l-1.173-.934zm-8.933 6.837c-3.588 1.584-7.634 2.384-12.153 2.384v1.5c4.698 0 8.955-.832 12.759-2.512l-.606-1.372z" fill="#C3C3C5" fill-opacity=".9"/><path opacity=".9" stroke="url(#apaint3_radial)" d="M0 152.5h774"/><defs><radialGradient id="apaint0_radial" cx="0" cy="0" r="1" gradientUnits="userSpaceOnUse" gradientTransform="matrix(-64.00029 -7.76982 3202.17588 -26376.43425 240 209.77)"><stop offset=".401" stop-color="#C3C3C5"/><stop offset="1" stop-color="#fff" stop-opacity="0"/></radialGradient><radialGradient id="apaint1_radial" cx="0" cy="0" r="1" gradientUnits="userSpaceOnUse" gradientTransform="matrix(-64.00029 -7.76982 3202.17588 -26376.43425 298 209.77)"><stop offset=".401" stop-color="#C3C3C5"/><stop offset="1" stop-color="#fff" stop-opacity="0"/></radialGradient><radialGradient id="apaint2_radial" cx="0" cy="0" r="1" gradientUnits="userSpaceOnUse" gradientTransform="rotate(101.333 232.78 275.168) scale(65.2731 43327.4)"><stop offset=".401" stop-color="#C3C3C5"/><stop offset="1" stop-color="#fff" stop-opacity="0"/></radialGradient><radialGradient id="apaint3_radial" cx="0" cy="0" r="1" gradientUnits="userSpaceOnUse" gradientTransform="matrix(-14.8851 64.00032 -48646.41753 -11314.11102 401.885 153)"><stop stop-color="#AEAEC0"/><stop offset="1" stop-color="#fff" stop-opacity="0"/></radialGradient></defs></svg>