<?xml version="1.0" encoding="utf-8"?><svg width="552" height="554" fill="none" xmlns="http://www.w3.org/2000/svg" viewBox="0 0 552 554"><g filter="url(#kfilter0_dd)"><path fill-rule="evenodd" clip-rule="evenodd" d="M238.695 296.569c-44.954 47.997-85.688 109.028-80.924 174.617 4.634 63.79 72.477 99.895 104.868 155.044 35.416 60.3 27.325 158.751 93.207 182.202 66.071 23.518 121.213-61.065 188.128-82.061 63.638-19.967 148.167 13.489 191.637-37.097 43.322-50.413 6.071-127.935 7.291-194.395 1.183-64.414 28.542-130.915-.258-188.544-30.26-60.548-90.079-105.059-155.38-122.878-62.55-17.069-125.801 9.307-187.473 29.32-59.017 19.151-118.682 38.505-161.096 83.792z" fill="#252525"/></g><g filter="url(#kfilter1_dd)"><path fill-rule="evenodd" clip-rule="evenodd" d="M285.707 335.267c-36.598 39.077-69.762 88.764-65.889 142.159 3.766 51.93 58.991 81.316 85.354 126.21 28.825 49.086 22.231 129.234 75.859 148.319 53.783 19.141 98.678-49.721 153.151-66.819 51.806-16.26 120.614 10.969 156.004-30.215 35.27-41.044 4.953-104.151 5.952-158.254.968-52.438 23.245-106.578-.196-153.491-24.628-49.288-73.319-85.519-126.475-100.02-50.918-13.89-102.409 7.588-152.614 23.884-48.044 15.596-96.616 31.357-131.146 68.227z" fill="#242424"/></g><g filter="url(#kfilter2_dd)"><path fill-rule="evenodd" clip-rule="evenodd" d="M328.322 387.888c-28.472 30.403-54.274 69.058-51.273 110.588 2.918 40.392 45.862 63.238 66.356 98.152 22.408 38.174 17.263 100.517 58.967 115.351 41.825 14.876 76.755-38.695 119.124-52.005 40.293-12.659 93.801 8.507 121.334-23.534 27.439-31.933 3.873-81.012 4.661-123.095.764-40.788 18.1-82.904-.121-119.389-19.143-38.332-57.004-66.503-98.342-77.772-39.597-10.793-79.648 5.923-118.697 18.609-37.368 12.141-75.146 24.41-102.009 53.095z" fill="#222"/></g><defs><filter id="kfilter0_dd" x=".998" y=".072" width="971.529" height="990.348" filterUnits="userSpaceOnUse" color-interpolation-filters="sRGB"><feFlood flood-opacity="0" result="BackgroundImageFix"/><feColorMatrix in="SourceAlpha" values="0 0 0 0 0 0 0 0 0 0 0 0 0 0 0 0 0 0 127 0"/><feOffset dy="10"/><feGaussianBlur stdDeviation="15"/><feColorMatrix values="0 0 0 0 0.25098 0 0 0 0 0.25098 0 0 0 0 0.25098 0 0 0 0.7 0"/><feBlend in2="BackgroundImageFix" result="effect1_dropShadow"/><feColorMatrix in="SourceAlpha" values="0 0 0 0 0 0 0 0 0 0 0 0 0 0 0 0 0 0 127 0"/><feOffset dx="5" dy="-10"/><feGaussianBlur stdDeviation="15"/><feColorMatrix values="0 0 0 0 0 0 0 0 0 0 0 0 0 0 0 0 0 0 0.6 0"/><feBlend in2="effect1_dropShadow" result="effect2_dropShadow"/><feBlend in="SourceGraphic" in2="effect2_dropShadow" result="shape"/></filter><filter id="kfilter1_dd" x="86.612" y="86.441" width="802.964" height="821.09" filterUnits="userSpaceOnUse" color-interpolation-filters="sRGB"><feFlood flood-opacity="0" result="BackgroundImageFix"/><feColorMatrix in="SourceAlpha" values="0 0 0 0 0 0 0 0 0 0 0 0 0 0 0 0 0 0 127 0"/><feOffset dy="10"/><feGaussianBlur stdDeviation="15"/><feColorMatrix values="0 0 0 0 0.25098 0 0 0 0 0.25098 0 0 0 0 0.25098 0 0 0 0.7 0"/><feBlend in2="BackgroundImageFix" result="effect1_dropShadow"/><feColorMatrix in="SourceAlpha" values="0 0 0 0 0 0 0 0 0 0 0 0 0 0 0 0 0 0 127 0"/><feOffset dx="5" dy="-10"/><feGaussianBlur stdDeviation="15"/><feColorMatrix values="0 0 0 0 0 0 0 0 0 0 0 0 0 0 0 0 0 0 0.6 0"/><feBlend in2="effect1_dropShadow" result="effect2_dropShadow"/><feBlend in="SourceGraphic" in2="effect2_dropShadow" result="shape"/></filter><filter id="kfilter2_dd" x="166.769" y="185.426" width="638.954" height="656.422" filterUnits="userSpaceOnUse" color-interpolation-filters="sRGB"><feFlood flood-opacity="0" result="BackgroundImageFix"/><feColorMatrix in="SourceAlpha" values="0 0 0 0 0 0 0 0 0 0 0 0 0 0 0 0 0 0 127 0"/><feOffset dy="10"/><feGaussianBlur stdDeviation="15"/><feColorMatrix values="0 0 0 0 0.25098 0 0 0 0 0.25098 0 0 0 0 0.25098 0 0 0 0.7 0"/><feBlend in2="BackgroundImageFix" result="effect1_dropShadow"/><feColorMatrix in="SourceAlpha" values="0 0 0 0 0 0 0 0 0 0 0 0 0 0 0 0 0 0 127 0"/><feOffset dx="5" dy="-10"/><feGaussianBlur stdDeviation="15"/><feColorMatrix values="0 0 0 0 0 0 0 0 0 0 0 0 0 0 0 0 0 0 0.6 0"/><feBlend in2="effect1_dropShadow" result="effect2_dropShadow"/><feBlend in="SourceGraphic" in2="effect2_dropShadow" result="shape"/></filter></defs></svg>