<?xml version="1.0" encoding="utf-8"?><svg width="324" height="790" fill="none" xmlns="http://www.w3.org/2000/svg" viewBox="0 0 324 790"><g filter="url(#ffilter0_dd)"><path fill-rule="evenodd" clip-rule="evenodd" d="M-111.174 78.576c-65.695 2.958-137.472 18.191-179.869 68.462-41.234 48.892-17.892 122.114-33.224 184.207-16.765 67.891-91.313 132.705-60.537 195.5 30.864 62.975 129.402 40.947 191.958 72.653C-133.354 629.55-96.22 712.529-29.78 706.683c66.215-5.827 93.694-87.326 140.981-134.041 45.833-45.276 111.858-73.765 131.492-135.126 20.628-64.468 8.9-138.102-25.392-196.461-32.849-55.901-96.54-81.196-154.656-109.943C7.03 103.602-49.19 75.785-111.174 78.576z" fill="#F0F0F3"/></g><g filter="url(#ffilter1_dd)"><path fill-rule="evenodd" clip-rule="evenodd" d="M-98.337 127.008c-53.485 2.409-111.922 14.81-146.44 55.73-33.571 39.798-14.569 99.399-27.053 149.942-13.65 55.263-74.344 108.022-49.29 159.135 25.127 51.26 105.351 33.328 156.28 59.134 48.434 24.542 78.665 92.085 132.757 87.325 53.908-4.744 76.281-71.084 114.781-109.11 37.316-36.855 91.07-60.046 107.056-109.993 16.796-52.476 7.249-112.413-20.669-159.915-26.741-45.502-78.595-66.09-125.91-89.489-45.277-22.391-91.048-45.032-141.512-42.759z" fill="#F4F4F6"/></g><g filter="url(#ffilter2_dd)"><path fill-rule="evenodd" clip-rule="evenodd" d="M-108.356 175.385c-41.61 1.876-87.074 11.522-113.93 43.342-26.12 30.947-11.34 77.29-21.055 116.592-10.623 42.971-57.844 83.998-38.355 123.74 19.545 39.857 81.959 25.91 121.579 45.973 37.679 19.081 61.194 71.598 103.277 67.894 41.94-3.692 59.35-55.277 89.304-84.846 29.032-28.66 70.853-46.696 83.292-85.533 13.07-40.806 5.646-87.41-16.07-124.345-20.803-35.379-61.143-51.385-97.95-69.576-35.225-17.409-70.832-35.012-110.092-33.241z" fill="#F9F9FA"/></g><defs><filter id="ffilter0_dd" x="-471.431" y=".029" width="794.525" height="789.492" filterUnits="userSpaceOnUse" color-interpolation-filters="sRGB"><feFlood flood-opacity="0" result="BackgroundImageFix"/><feColorMatrix in="SourceAlpha" values="0 0 0 0 0 0 0 0 0 0 0 0 0 0 0 0 0 0 127 0"/><feOffset dy="10"/><feGaussianBlur stdDeviation="15"/><feColorMatrix values="0 0 0 0 0.682353 0 0 0 0 0.682353 0 0 0 0 0.752941 0 0 0 0.4 0"/><feBlend in2="BackgroundImageFix" result="effect1_dropShadow"/><feColorMatrix in="SourceAlpha" values="0 0 0 0 0 0 0 0 0 0 0 0 0 0 0 0 0 0 127 0"/><feOffset dx="5" dy="-10"/><feGaussianBlur stdDeviation="12.5"/><feColorMatrix values="0 0 0 0 1 0 0 0 0 1 0 0 0 0 1 0 0 0 1 0"/><feBlend in2="effect1_dropShadow" result="effect2_dropShadow"/><feBlend in="SourceGraphic" in2="effect2_dropShadow" result="shape"/></filter><filter id="ffilter1_dd" x="-397.214" y="56.555" width="657.996" height="656.596" filterUnits="userSpaceOnUse" color-interpolation-filters="sRGB"><feFlood flood-opacity="0" result="BackgroundImageFix"/><feColorMatrix in="SourceAlpha" values="0 0 0 0 0 0 0 0 0 0 0 0 0 0 0 0 0 0 127 0"/><feOffset dy="10"/><feGaussianBlur stdDeviation="15"/><feColorMatrix values="0 0 0 0 0.682353 0 0 0 0 0.682353 0 0 0 0 0.752941 0 0 0 0.4 0"/><feBlend in2="BackgroundImageFix" result="effect1_dropShadow"/><feColorMatrix in="SourceAlpha" values="0 0 0 0 0 0 0 0 0 0 0 0 0 0 0 0 0 0 127 0"/><feOffset dx="5" dy="-10"/><feGaussianBlur stdDeviation="12.5"/><feColorMatrix values="0 0 0 0 1 0 0 0 0 1 0 0 0 0 1 0 0 0 1 0"/><feBlend in2="effect1_dropShadow" result="effect2_dropShadow"/><feBlend in="SourceGraphic" in2="effect2_dropShadow" result="shape"/></filter><filter id="ffilter2_dd" x="-347.538" y="112.803" width="525.204" height="527.256" filterUnits="userSpaceOnUse" color-interpolation-filters="sRGB"><feFlood flood-opacity="0" result="BackgroundImageFix"/><feColorMatrix in="SourceAlpha" values="0 0 0 0 0 0 0 0 0 0 0 0 0 0 0 0 0 0 127 0"/><feOffset dy="10"/><feGaussianBlur stdDeviation="15"/><feColorMatrix values="0 0 0 0 0.682353 0 0 0 0 0.682353 0 0 0 0 0.752941 0 0 0 0.4 0"/><feBlend in2="BackgroundImageFix" result="effect1_dropShadow"/><feColorMatrix in="SourceAlpha" values="0 0 0 0 0 0 0 0 0 0 0 0 0 0 0 0 0 0 127 0"/><feOffset dx="5" dy="-10"/><feGaussianBlur stdDeviation="12.5"/><feColorMatrix values="0 0 0 0 1 0 0 0 0 1 0 0 0 0 1 0 0 0 1 0"/><feBlend in2="effect1_dropShadow" result="effect2_dropShadow"/><feBlend in="SourceGraphic" in2="effect2_dropShadow" result="shape"/></filter></defs></svg>