<?xml version="1.0" encoding="utf-8"?><svg width="300" height="633" fill="none" xmlns="http://www.w3.org/2000/svg" viewBox="0 0 300 633"><g filter="url(#efilter0_dd)"><path fill-rule="evenodd" clip-rule="evenodd" d="M-57.367 553.349c-49.677-3.48-103.726-16.371-134.869-55.242-30.289-37.804-11.23-92.816-21.661-140.129-11.404-51.731-66.611-102.222-42.122-149.197 24.558-47.109 98.737-28.567 146.695-51.398 45.61-21.712 75.294-83.852 125.48-78.17 50.017 5.662 69.275 67.901 104.188 104.171 33.838 35.153 83.282 57.975 96.982 104.814 14.394 49.212 4.12 104.755-22.946 148.303-25.927 41.715-74.623 59.669-119.164 80.343-42.624 19.783-85.712 39.788-132.583 36.505z" fill="#252525"/></g><g filter="url(#efilter1_dd)"><path fill-rule="evenodd" clip-rule="evenodd" d="M-66.392 460.773c-37.016-2.588-77.288-12.199-100.487-41.201-22.562-28.208-8.351-69.265-16.115-104.573-8.488-38.604-49.616-76.274-31.36-111.335 18.308-35.161 73.579-21.337 109.318-38.384 33.99-16.212 56.12-62.591 93.516-58.36 37.268 4.217 51.606 50.661 77.615 77.722 25.208 26.228 62.046 43.251 72.246 78.204 10.717 36.723 3.052 78.176-17.125 110.68-19.327 31.135-55.615 44.543-88.808 59.98-31.765 14.772-63.875 29.709-98.8 27.267z" fill="#242424"/></g><g filter="url(#efilter2_dd)"><path fill-rule="evenodd" clip-rule="evenodd" d="M-80.42 401.503c-26.1-1.833-54.499-8.602-70.866-28.992-15.919-19.83-5.914-48.678-11.401-73.492-6-27.132-35.012-53.62-22.153-78.251 12.896-24.703 51.871-14.968 77.063-26.934 23.96-11.38 39.546-43.964 65.914-40.977 26.279 2.977 36.405 35.621 54.754 54.647 17.783 18.441 43.763 30.417 50.968 54.984 7.57 25.811 2.18 54.938-12.034 77.773-13.615 21.872-39.196 31.281-62.594 42.116-22.39 10.37-45.026 20.855-69.651 19.126z" fill="#222"/></g><defs><filter id="efilter0_dd" x="-346.604" y=".542" width="646.396" height="631.875" filterUnits="userSpaceOnUse" color-interpolation-filters="sRGB"><feFlood flood-opacity="0" result="BackgroundImageFix"/><feColorMatrix in="SourceAlpha" values="0 0 0 0 0 0 0 0 0 0 0 0 0 0 0 0 0 0 127 0"/><feOffset dx="10" dy="10"/><feGaussianBlur stdDeviation="15"/><feColorMatrix values="0 0 0 0 0.0627451 0 0 0 0 0.0627451 0 0 0 0 0.0627451 0 0 0 0.8 0"/><feBlend in2="BackgroundImageFix" result="effect1_dropShadow"/><feColorMatrix in="SourceAlpha" values="0 0 0 0 0 0 0 0 0 0 0 0 0 0 0 0 0 0 127 0"/><feOffset dx="-10" dy="-10"/><feGaussianBlur stdDeviation="15"/><feColorMatrix values="0 0 0 0 0.219608 0 0 0 0 0.219608 0 0 0 0 0.219608 0 0 0 0.8 0"/><feBlend in2="effect1_dropShadow" result="effect2_dropShadow"/><feBlend in="SourceGraphic" in2="effect2_dropShadow" result="shape"/></filter><filter id="efilter1_dd" x="-292.103" y="38.105" width="502.118" height="491.779" filterUnits="userSpaceOnUse" color-interpolation-filters="sRGB"><feFlood flood-opacity="0" result="BackgroundImageFix"/><feColorMatrix in="SourceAlpha" values="0 0 0 0 0 0 0 0 0 0 0 0 0 0 0 0 0 0 127 0"/><feOffset dx="10" dy="10"/><feGaussianBlur stdDeviation="15"/><feColorMatrix values="0 0 0 0 0.0627451 0 0 0 0 0.0627451 0 0 0 0 0.0627451 0 0 0 0.8 0"/><feBlend in2="BackgroundImageFix" result="effect1_dropShadow"/><feColorMatrix in="SourceAlpha" values="0 0 0 0 0 0 0 0 0 0 0 0 0 0 0 0 0 0 127 0"/><feOffset dx="-10" dy="-10"/><feGaussianBlur stdDeviation="15"/><feColorMatrix values="0 0 0 0 0.219608 0 0 0 0 0.219608 0 0 0 0 0.219608 0 0 0 0.8 0"/><feBlend in2="effect1_dropShadow" result="effect2_dropShadow"/><feBlend in="SourceGraphic" in2="effect2_dropShadow" result="shape"/></filter><filter id="efilter2_dd" x="-251.371" y="92.54" width="377.515" height="369.489" filterUnits="userSpaceOnUse" color-interpolation-filters="sRGB"><feFlood flood-opacity="0" result="BackgroundImageFix"/><feColorMatrix in="SourceAlpha" values="0 0 0 0 0 0 0 0 0 0 0 0 0 0 0 0 0 0 127 0"/><feOffset dx="10" dy="10"/><feGaussianBlur stdDeviation="15"/><feColorMatrix values="0 0 0 0 0.0627451 0 0 0 0 0.0627451 0 0 0 0 0.0627451 0 0 0 0.8 0"/><feBlend in2="BackgroundImageFix" result="effect1_dropShadow"/><feColorMatrix in="SourceAlpha" values="0 0 0 0 0 0 0 0 0 0 0 0 0 0 0 0 0 0 127 0"/><feOffset dx="-10" dy="-10"/><feGaussianBlur stdDeviation="15"/><feColorMatrix values="0 0 0 0 0.219608 0 0 0 0 0.219608 0 0 0 0 0.219608 0 0 0 0.8 0"/><feBlend in2="effect1_dropShadow" result="effect2_dropShadow"/><feBlend in="SourceGraphic" in2="effect2_dropShadow" result="shape"/></filter></defs></svg>