<?xml version="1.0" encoding="utf-8"?><svg width="916" height="404" fill="none" xmlns="http://www.w3.org/2000/svg" viewBox="0 0 916 404"><path opacity=".9" stroke="url(#opaint0_radial)" d="M238.5 0v404"/><path opacity=".9" stroke="url(#opaint1_radial)" stroke-dasharray="2 2" d="M295.5 0v404"/><path opacity=".9" stroke="url(#opaint2_radial)" d="M249 147.5h667"/><path opacity=".9" d="M293.28 147.6l.661.354.592-1.104h-1.253v.75zm-20.88 38.952l-.661-.354-.002.003.663.351zm-8.136 9.504l-.418-.623-.005.003.423.62zm-19.368 1.368l-.714-.23-.216.67.655.258.275-.698zm3.384-10.512l.211-.72-.701-.205-.224.695.714.23zm8.712-.072l-.369-.653-.006.004-.007.003.382.646zm3.024-2.952l.621.421.255-.377-.216-.4-.66.356zM240.432 147.6v-.75h-1.257l.597 1.106.66-.356zm15.048 0l.676-.326-.205-.424h-.471v.75zm11.736 24.336l-.676.326.664 1.375.683-1.366-.671-.335zm12.168-24.336v-.75h-.464l-.207.415.671.335zm13.235-.354l-20.88 38.952 1.322.708 20.88-38.952-1.322-.708zm-20.882 38.955c-2.163 4.091-4.798 7.155-7.891 9.232l.836 1.246c3.339-2.243 6.128-5.515 8.381-9.776l-1.326-.702zm-7.896 9.235c-3.044 2.076-6.378 3.11-10.017 3.11v1.5c3.945 0 7.571-1.126 10.863-3.37l-.846-1.24zm-10.017 3.11c-2.671 0-5.554-.599-8.653-1.82l-.55 1.396c3.237 1.275 6.306 1.924 9.203 1.924v-1.5zm-8.214-.892l3.384-10.512-1.428-.46-3.384 10.512 1.428.46zm2.459-10.022c2.008.587 3.763.894 5.251.894v-1.5c-1.296 0-2.901-.269-4.829-.834l-.422 1.44zm5.251.894c1.508 0 2.867-.339 4.054-1.04l-.764-1.292c-.925.547-2.014.832-3.29.832v1.5zm4.041-1.033c1.229-.695 2.316-1.77 3.276-3.184l-1.242-.842c-.864 1.274-1.793 2.167-2.772 2.72l.738 1.306zm3.315-3.961l-19.584-36.288-1.32.712 19.584 36.288 1.32-.712zm-20.244-35.182h15.048v-1.5h-15.048v1.5zm14.372-.424l11.736 24.336 1.352-.652-11.736-24.336-1.352.652zm13.083 24.345l12.168-24.336-1.342-.67-12.168 24.336 1.342.67zm11.497-23.921h13.896v-1.5h-13.896v1.5zm30.582 47.346l-.357.66.01.005.347-.665zm-9.864-9.36l-.642.387.642-.387zm0-27.072l-.642-.387.642.387zm9.864-9.288l.351.663.002-.001-.353-.662zm26.712-.936l-.303.686.303-.686zm9.216 7.056l.503.556.523-.472-.439-.551-.587.467zm-9.072 8.208l-.577.479.5.603.58-.526-.503-.556zm-19.224-4.104l-.364-.656-.007.004.371.652zm-4.968 5.112l-.659-.358-.003.005.662.353zm0 15.048l-.665.347.005.009.004.008.656-.364zm4.968 5.04l-.371.652.007.004.364-.656zm19.224-4.104l.503-.556-.58-.526-.5.603.577.479zm9.072 8.208l.587.467.439-.551-.523-.472-.503.556zm-9.216 7.056l.303.686-.303-.686zm-12.456 1.698c-5.172 0-9.803-1.081-13.909-3.227l-.694 1.33c4.342 2.27 9.215 3.397 14.603 3.397v-1.5zm-13.9-3.222c-4.06-2.193-7.248-5.22-9.578-9.087l-1.284.774c2.47 4.101 5.858 7.314 10.15 9.633l.712-1.32zm-9.578-9.087c-2.323-3.857-3.492-8.234-3.492-13.149h-1.5c0 5.165 1.231 9.812 3.708 13.923l1.284-.774zm-3.492-13.149c0-4.915 1.169-9.292 3.492-13.149l-1.284-.774c-2.477 4.111-3.708 8.758-3.708 13.923h1.5zm3.492-13.149c2.329-3.865 5.515-6.867 9.573-9.012l-.702-1.326c-4.294 2.271-7.684 5.461-10.155 9.564l1.284.774zm9.575-9.013c4.105-2.193 8.733-3.296 13.903-3.296v-1.5c-5.39 0-10.266 1.153-14.609 3.472l.706 1.324zm13.903-3.296c4.518 0 8.565.8 12.153 2.384l.606-1.372c-3.804-1.68-8.061-2.512-12.759-2.512v1.5zm12.153 2.384c3.589 1.585 6.562 3.863 8.932 6.837l1.174-.934c-2.526-3.17-5.697-5.596-9.5-7.275l-.606 1.372zm9.016 5.814l-9.072 8.208 1.006 1.112 9.072-8.208-1.006-1.112zm-7.992 8.285c-3.39-4.088-7.554-6.175-12.457-6.175v1.5c4.409 0 8.165 1.849 11.303 5.633l1.154-.958zm-12.457-6.175c-2.849 0-5.425.626-7.708 1.894l.728 1.312c2.037-1.132 4.357-1.706 6.98-1.706v-1.5zm-7.715 1.898c-2.238 1.272-3.992 3.079-5.256 5.406l1.318.716c1.136-2.089 2.694-3.69 4.68-4.818l-.742-1.304zm-5.259 5.411c-1.218 2.285-1.816 4.905-1.816 7.841h1.5c0-2.728.554-5.1 1.64-7.135l-1.324-.706zm-1.816 7.841c0 2.936.598 5.578 1.813 7.907l1.33-.694c-1.089-2.087-1.643-4.485-1.643-7.213h-1.5zm1.822 7.924c1.266 2.278 3.02 4.059 5.253 5.328l.742-1.304c-1.991-1.131-3.549-2.71-4.683-4.752l-1.312.728zm5.26 5.332c2.283 1.268 4.859 1.894 7.708 1.894v-1.5c-2.623 0-4.943-.574-6.98-1.706l-.728 1.312zm7.708 1.894c4.903 0 9.067-2.087 12.457-6.175l-1.154-.958c-3.138 3.784-6.894 5.633-11.303 5.633v1.5zm11.377-6.098l9.072 8.208 1.006-1.112-9.072-8.208-1.006 1.112zm8.988 7.185c-2.37 2.974-5.343 5.252-8.932 6.837l.606 1.372c3.803-1.679 6.974-4.105 9.5-7.275l-1.174-.934zm-8.932 6.837c-3.588 1.584-7.635 2.384-12.153 2.384v1.5c4.698 0 8.955-.832 12.759-2.512l-.606-1.372zm64.3-48.274h.75v-.75h-.75v.75zm0 50.4v.75h.75V198h-.75zm-14.04 0h-.75v.75h.75V198zm0-39.096h.75v-.75h-.75v.75zm-14.472 0v-.75h-.724l-.026.724.75.026zm-.288 8.208l-.75-.026v.001l.75.025zm-1.8 17.568l-.734-.156-.001.007.735.149zm-4.752 10.512l.551.508.005-.005-.556-.503zM349.267 198l-.749-.051-.042.632.616.148.175-.729zm.792-11.664l.168-.731-.857-.198-.06.878.749.051zm8.424-8.208l.74.121v-.002l-.74-.119zm.864-10.44l-.75-.027v.002l.75.025zm.72-20.088v-.75h-.724l-.026.723.75.027zm39.858 0V198h1.5v-50.4h-1.5zm.75 49.65h-14.04v1.5h14.04v-1.5zm-13.29.75v-39.096h-1.5V198h1.5zm-.75-39.846h-14.472v1.5h14.472v-1.5zm-15.222.724l-.288 8.208 1.499.052.288-8.208-1.499-.052zm-.288 8.209c-.239 7.177-.837 12.985-1.784 17.437l1.467.312c.973-4.572 1.576-10.477 1.816-17.699l-1.499-.05zm-1.785 17.444c-.895 4.427-2.435 7.792-4.574 10.158l1.113 1.006c2.374-2.626 4.002-6.269 4.931-10.866l-1.47-.298zm-4.569 10.153c-2.081 2.258-5.052 3.43-9.024 3.43v1.5c4.283 0 7.696-1.276 10.127-3.914l-1.103-1.016zm-9.024 3.43c-1.847 0-3.947-.277-6.305-.843l-.35 1.458c2.442.586 4.662.885 6.655.885v-1.5zm-5.732-.063l.792-11.664-1.497-.102-.792 11.664 1.497.102zm-.125-10.984a9.393 9.393 0 002.113.235v-1.5c-.618 0-1.21-.066-1.776-.197l-.337 1.462zm2.113.235c2.108 0 3.786-.857 4.941-2.561l-1.242-.842c-.862 1.272-2.064 1.903-3.699 1.903v1.5zm4.941-2.561c1.091-1.611 1.837-3.792 2.279-6.492l-1.48-.242c-.423 2.58-1.117 4.527-2.041 5.892l1.242.842zm2.279-6.494c.439-2.731.729-6.246.873-10.534l-1.499-.05c-.143 4.256-.43 7.701-.855 10.346l1.481.238zm.873-10.532l.72-20.088-1.499-.054-.72 20.088 1.499.054zm-.029-19.365h40.608v-1.5h-40.608v1.5zm101.789-.75l.661.354.592-1.104h-1.253v.75zm-20.88 38.952l-.661-.354-.002.003.663.351zm-8.136 9.504l-.419-.623-.004.003.423.62zm-19.368 1.368l-.714-.23-.216.67.655.258.275-.698zm3.384-10.512l.21-.72-.701-.205-.223.695.714.23zm8.712-.072l-.369-.653-.007.004-.006.003.382.646zm3.024-2.952l.62.421.256-.377-.216-.4-.66.356zM409.008 147.6v-.75h-1.257l.597 1.106.66-.356zm15.048 0l.675-.326-.204-.424h-.471v.75zm11.736 24.336l-.676.326.663 1.375.683-1.366-.67-.335zM447.96 147.6v-.75h-.464l-.207.415.671.335zm13.235-.354l-20.88 38.952 1.322.708 20.88-38.952-1.322-.708zm-20.882 38.955c-2.163 4.091-4.799 7.155-7.892 9.232l.837 1.246c3.339-2.243 6.127-5.515 8.381-9.776l-1.326-.702zm-7.896 9.235c-3.045 2.076-6.378 3.11-10.017 3.11v1.5c3.944 0 7.571-1.126 10.862-3.37l-.845-1.24zm-10.017 3.11c-2.672 0-5.554-.599-8.653-1.82l-.55 1.396c3.236 1.275 6.306 1.924 9.203 1.924v-1.5zm-8.214-.892l3.384-10.512-1.428-.46-3.384 10.512 1.428.46zm2.459-10.022c2.007.587 3.762.894 5.251.894v-1.5c-1.296 0-2.901-.269-4.83-.834l-.421 1.44zm5.251.894c1.507 0 2.867-.339 4.053-1.04l-.763-1.292c-.925.547-2.014.832-3.29.832v1.5zm4.041-1.033c1.228-.695 2.316-1.77 3.275-3.184l-1.241-.842c-.865 1.274-1.793 2.167-2.772 2.72l.738 1.306zm3.315-3.961l-19.584-36.288-1.32.712 19.584 36.288 1.32-.712zm-20.244-35.182h15.048v-1.5h-15.048v1.5zm14.372-.424l11.736 24.336 1.351-.652-11.736-24.336-1.351.652zm13.082 24.345l12.168-24.336-1.341-.67-12.168 24.336 1.341.67zm11.498-23.921h13.896v-1.5H447.96v1.5zm57.853 10.554v.75h.745l.005-.745-.75-.005zm-22.824 0v-.75h-.75v.75h.75zm0 39.096v.75h.75V198h-.75zm-14.04 0h-.75v.75h.75V198zm0-50.4v-.75h-.75v.75h.75zm36.936 0l.75.005.005-.755h-.755v.75zm-.072 10.554h-22.824v1.5h22.824v-1.5zm-23.574.75V198h1.5v-39.096h-1.5zm.75 38.346h-14.04v1.5h14.04v-1.5zm-13.29.75v-50.4h-1.5V198h1.5zm-.75-49.65h36.936v-1.5h-36.936v1.5zm36.186-.755l-.072 11.304 1.5.01.072-11.304-1.5-.01zm9.646.005v-.75h-.75v.75h.75zm14.04 0h.75v-.75h-.75v.75zm0 29.592h-.75v2.371l1.364-1.94-.614-.431zm20.808-29.592v-.75h-.389l-.224.319.613.431zm13.392 0h.75v-.75h-.75v.75zm0 50.4v.75h.75V198h-.75zm-14.04 0h-.75v.75h.75V198zm0-29.52h.75v-2.373l-1.363 1.942.613.431zM528.245 198v.75h.39l.224-.319-.614-.431zm-13.464 0h-.75v.75h.75V198zm0-49.65h14.04v-1.5h-14.04v1.5zm13.29-.75v29.592h1.5V147.6h-1.5zm1.364 30.023l20.808-29.592-1.227-.862-20.808 29.592 1.227.862zm20.194-29.273h13.392v-1.5h-13.392v1.5zm12.642-.75V198h1.5v-50.4h-1.5zm.75 49.65h-14.04v1.5h14.04v-1.5zm-13.29.75v-29.52h-1.5V198h1.5zm-1.363-29.951l-20.736 29.52 1.227.862 20.736-29.52-1.227-.862zm-20.123 29.201h-13.464v1.5h13.464v-1.5zm-12.714.75v-50.4h-1.5V198h1.5z" fill="#C3C3C5" fill-opacity=".9"/><path opacity=".9" stroke="url(#opaint3_radial)" d="M-3 198.5h774"/><defs><radialGradient id="opaint0_radial" cx="0" cy="0" r="1" gradientUnits="userSpaceOnUse" gradientTransform="matrix(-64.00029 -7.76982 3202.17588 -26376.43425 238 209.77)"><stop offset=".401" stop-color="#C3C3C5"/><stop offset="1" stop-color="#fff" stop-opacity="0"/></radialGradient><radialGradient id="opaint1_radial" cx="0" cy="0" r="1" gradientUnits="userSpaceOnUse" gradientTransform="matrix(-64.00029 -7.76982 3202.17588 -26376.43425 295 209.77)"><stop offset=".401" stop-color="#C3C3C5"/><stop offset="1" stop-color="#fff" stop-opacity="0"/></radialGradient><radialGradient id="opaint2_radial" cx="0" cy="0" r="1" gradientUnits="userSpaceOnUse" gradientTransform="rotate(101.333 237.023 317.926) scale(65.2731 43327.4)"><stop offset=".401" stop-color="#C3C3C5"/><stop offset="1" stop-color="#fff" stop-opacity="0"/></radialGradient><radialGradient id="opaint3_radial" cx="0" cy="0" r="1" gradientUnits="userSpaceOnUse" gradientTransform="matrix(-14.8851 64.00032 -48646.41753 -11314.11102 398.885 199)"><stop stop-color="#AEAEC0"/><stop offset="1" stop-color="#fff" stop-opacity="0"/></radialGradient></defs></svg>