<?xml version="1.0" encoding="utf-8"?><svg width="161" height="170" fill="none" xmlns="http://www.w3.org/2000/svg" viewBox="0 0 161 170"><g filter="url(#tfilter0_d)"><path d="M121.937 105.4h30.5c0-16.684-8.053-31.056-19.644-37.568a21 21 0 007.199-15.874c0-11.575-9.286-20.958-20.74-20.958-5.328 0-10.186 2.03-13.859 5.365A21.012 21.012 0 00100.997 42" stroke="#BDBDBD" stroke-linecap="round" stroke-linejoin="round"/></g><g filter="url(#tfilter1_d)"><path d="M40.057 105.4h-30.5c0-16.684 8.053-31.056 19.644-37.568A21.001 21.001 0 0122 51.958C22.002 40.383 31.289 31 42.743 31c5.328 0 10.186 2.03 13.859 5.365A21.011 21.011 0 0160.997 42" stroke="#BDBDBD" stroke-linecap="round" stroke-linejoin="round"/></g><g filter="url(#tfilter2_dd)" fill="#252525"><path d="M105.786 65.614c0 13.815-11.055 25.014-24.692 25.014-13.636 0-24.69-11.199-24.69-25.014S67.457 40.6 81.093 40.6c13.637 0 24.692 11.2 24.692 25.014z"/><path fill-rule="evenodd" clip-rule="evenodd" d="M120.601 129.4c0-27.215-17.909-49.278-40-49.278-22.092 0-40 22.063-40 49.278h80z"/></g><defs><filter id="tfilter0_d" x="93.497" y="23.5" width="66.44" height="89.4" filterUnits="userSpaceOnUse" color-interpolation-filters="sRGB"><feFlood flood-opacity="0" result="BackgroundImageFix"/><feColorMatrix in="SourceAlpha" values="0 0 0 0 0 0 0 0 0 0 0 0 0 0 0 0 0 0 127 0"/><feOffset/><feGaussianBlur stdDeviation="3.5"/><feColorMatrix values="0 0 0 0 0.8625 0 0 0 0 0.8625 0 0 0 0 0.8625 0 0 0 1 0"/><feBlend in2="BackgroundImageFix" result="effect1_dropShadow"/><feBlend in="SourceGraphic" in2="effect1_dropShadow" result="shape"/></filter><filter id="tfilter1_d" x="2.058" y="23.5" width="66.44" height="89.4" filterUnits="userSpaceOnUse" color-interpolation-filters="sRGB"><feFlood flood-opacity="0" result="BackgroundImageFix"/><feColorMatrix in="SourceAlpha" values="0 0 0 0 0 0 0 0 0 0 0 0 0 0 0 0 0 0 127 0"/><feOffset/><feGaussianBlur stdDeviation="3.5"/><feColorMatrix values="0 0 0 0 0.8625 0 0 0 0 0.8625 0 0 0 0 0.8625 0 0 0 1 0"/><feBlend in2="BackgroundImageFix" result="effect1_dropShadow"/><feBlend in="SourceGraphic" in2="effect1_dropShadow" result="shape"/></filter><filter id="tfilter2_dd" x=".601" y=".6" width="160" height="168.8" filterUnits="userSpaceOnUse" color-interpolation-filters="sRGB"><feFlood flood-opacity="0" result="BackgroundImageFix"/><feColorMatrix in="SourceAlpha" values="0 0 0 0 0 0 0 0 0 0 0 0 0 0 0 0 0 0 127 0"/><feOffset dx="10" dy="10"/><feGaussianBlur stdDeviation="15"/><feColorMatrix values="0 0 0 0 0 0 0 0 0 0 0 0 0 0 0 0 0 0 1 0"/><feBlend in2="BackgroundImageFix" result="effect1_dropShadow"/><feColorMatrix in="SourceAlpha" values="0 0 0 0 0 0 0 0 0 0 0 0 0 0 0 0 0 0 127 0"/><feOffset dx="-10" dy="-10"/><feGaussianBlur stdDeviation="15"/><feColorMatrix values="0 0 0 0 0.219608 0 0 0 0 0.219608 0 0 0 0 0.219608 0 0 0 0.7 0"/><feBlend in2="effect1_dropShadow" result="effect2_dropShadow"/><feBlend in="SourceGraphic" in2="effect2_dropShadow" result="shape"/></filter></defs></svg>