<?xml version="1.0" encoding="utf-8"?><svg viewBox="0 0 916 795" xmlns="http://www.w3.org/2000/svg" xmlns:xlink="http://www.w3.org/1999/xlink"><style>:root>svg{display:none}:root>svg:target{display:block}</style><svg fill="none" viewBox="0 0 869 404" id="about-headline" xmlns="http://www.w3.org/2000/svg"><path opacity=".9" stroke="url(#apaint0_radial)" d="M240.5 0v404"/><path opacity=".9" stroke="url(#apaint1_radial)" stroke-dasharray="2 2" d="M298.5 0v404"/><path opacity=".9" stroke="url(#apaint2_radial)" d="M202 100.5h667"/><path opacity=".9" d="M255.768 149.624l-.353.662.003.001.35-.663zm-10.008-9.36l-.642.387.003.006.639-.393zm0-26.928l-.639-.393-.003.006.642.387zm10.008-9.36l-.35-.663-.003.001.353.662zm28.728 0l-.353.662.003.001.35-.663zm10.008 9.36l-.642.387.003.006.639-.393zm0 26.928l-.639-.393-.003.006.642.387zm-10.008 9.36l-.35-.663-.003.001.353.662zM277.08 139.4l.377.648-.377-.648zm4.896-5.04l.656.364.003-.006-.659-.358zm0-15.048l-.659.358.003.006.656-.364zm-4.896-5.112l.377-.648-.377.648zm-13.824 0l-.377-.648.377.648zm-4.896 5.112l.656.364.003-.006-.659-.358zm0 15.048l-.659.358.003.006.656-.364zm4.896 5.04l.377-.648-.377.648zm6.912 12.858c-5.219 0-9.896-1.104-14.05-3.297l-.7 1.326c4.39 2.319 9.313 3.471 14.75 3.471v-1.5zm-14.047-3.296c-4.109-2.194-7.345-5.223-9.722-9.091l-1.278.786c2.519 4.1 5.955 7.311 10.294 9.629l.706-1.324zm-9.719-9.085c-2.324-3.859-3.492-8.211-3.492-13.077h-1.5c0 5.118 1.232 9.742 3.708 13.851l1.284-.774zM242.91 126.8c0-4.866 1.168-9.218 3.492-13.077l-1.284-.774c-2.476 4.109-3.708 8.733-3.708 13.851h1.5zm3.489-13.071c2.377-3.868 5.613-6.897 9.722-9.091l-.706-1.324c-4.339 2.318-7.775 5.529-10.294 9.629l1.278.786zm9.719-9.09c4.154-2.193 8.831-3.297 14.05-3.297v-1.5c-5.437 0-10.36 1.152-14.75 3.471l.7 1.326zm14.05-3.297c5.219 0 9.871 1.104 13.975 3.296l.706-1.324c-4.344-2.32-9.244-3.472-14.681-3.472v1.5zm13.978 3.297c4.156 2.195 7.389 5.222 9.716 9.084l1.284-.774c-2.473-4.106-5.912-7.319-10.3-9.636l-.7 1.326zm9.719 9.09c2.37 3.857 3.561 8.208 3.561 13.071h1.5c0-5.121-1.257-9.746-3.783-13.857l-1.278.786zm3.561 13.071c0 4.863-1.191 9.214-3.561 13.071l1.278.786c2.526-4.111 3.783-8.736 3.783-13.857h-1.5zm-3.564 13.077c-2.327 3.862-5.56 6.889-9.716 9.084l.7 1.326c4.388-2.317 7.827-5.53 10.3-9.636l-1.284-.774zm-9.719 9.085c-4.104 2.192-8.756 3.296-13.975 3.296v1.5c5.437 0 10.337-1.152 14.681-3.472l-.706-1.324zm-13.975-7.012c2.667 0 5.103-.631 7.289-1.902l-.754-1.296c-1.942 1.129-4.114 1.698-6.535 1.698v1.5zm7.289-1.902c2.185-1.27 3.911-3.05 5.175-5.324l-1.312-.728c-1.136 2.046-2.674 3.626-4.617 4.756l.754 1.296zm5.178-5.33c1.267-2.331 1.891-4.977 1.891-7.918h-1.5c0 2.723-.576 5.117-1.709 7.202l1.318.716zm1.891-7.918c0-2.941-.624-5.565-1.894-7.852l-1.312.728c1.13 2.033 1.706 4.401 1.706 7.124h1.5zm-1.891-7.846c-1.262-2.322-2.989-4.13-5.178-5.402l-.754 1.296c1.939 1.128 3.476 2.728 4.614 4.822l1.318-.716zm-5.178-5.402c-2.186-1.271-4.622-1.902-7.289-1.902v1.5c2.421 0 4.593.569 6.535 1.698l.754-1.296zm-7.289-1.902c-2.667 0-5.103.631-7.289 1.902l.754 1.296c1.942-1.129 4.114-1.698 6.535-1.698v-1.5zm-7.289 1.902c-2.189 1.272-3.916 3.08-5.178 5.402l1.318.716c1.138-2.094 2.675-3.694 4.614-4.822l-.754-1.296zm-5.175 5.396c-1.27 2.287-1.894 4.911-1.894 7.852h1.5c0-2.723.576-5.091 1.706-7.124l-1.312-.728zm-1.894 7.852c0 2.941.624 5.587 1.891 7.918l1.318-.716c-1.133-2.085-1.709-4.479-1.709-7.202h-1.5zm1.894 7.924c1.264 2.274 2.99 4.054 5.175 5.324l.754-1.296c-1.943-1.13-3.481-2.71-4.617-4.756l-1.312.728zm5.175 5.324c2.186 1.271 4.622 1.902 7.289 1.902v-1.5c-2.421 0-4.593-.569-6.535-1.698l-.754 1.296zM379.744 101.6h.75v-.75h-.75v.75zm0 50.4v.75h.75V152h-.75zm-14.256 0h-.75v.75h.75V152zm0-19.656h.75v-.75h-.75v.75zm-19.44 0v-.75h-.75v.75h.75zm0 19.656v.75h.75V152h-.75zm-14.256 0h-.75v.75h.75V152zm0-50.4v-.75h-.75v.75h.75zm14.256 0h.75v-.75h-.75v.75zm0 18.936h-.75v.75h.75v-.75zm19.44 0v.75h.75v-.75h-.75zm0-18.936v-.75h-.75v.75h.75zm13.506 0V152h1.5v-50.4h-1.5zm.75 49.65h-14.256v1.5h14.256v-1.5zm-13.506.75v-19.656h-1.5V152h1.5zm-.75-20.406h-19.44v1.5h19.44v-1.5zm-20.19.75V152h1.5v-19.656h-1.5zm.75 18.906h-14.256v1.5h14.256v-1.5zm-13.506.75v-50.4h-1.5V152h1.5zm-.75-49.65h14.256v-1.5h-14.256v1.5zm13.506-.75v18.936h1.5V101.6h-1.5zm.75 19.686h19.44v-1.5h-19.44v1.5zm20.19-.75V101.6h-1.5v18.936h1.5zm-.75-18.186h14.256v-1.5h-14.256v1.5zm62.381 39.858l.695-.281-.189-.469h-.506v.75zm-21.312 0v-.75h-.506l-.189.469.695.281zm-3.96 9.792v.75h.506l.189-.469-.695-.281zm-14.544 0l-.686-.303-.465 1.053h1.151V152zm22.248-50.4v-.75h-.489l-.197.447.686.303zm14.04 0l.686-.304-.198-.446h-.488v.75zm22.32 50.4v.75h1.152l-.466-1.054-.686.304zm-14.832 0l-.695.281.189.469h.506V152zm-8.136-20.304v.75h1.109l-.413-1.03-.696.28zm-6.48-16.128l.696-.28-.696-1.732-.696 1.732.696.28zm-6.48 16.128l-.696-.28-.414 1.03h1.11v-.75zm17.136 9.762h-21.312v1.5h21.312v-1.5zm-22.007.469l-3.96 9.792 1.39.562 3.96-9.792-1.39-.562zm-3.265 9.323h-14.544v1.5h14.544v-1.5zm-13.858 1.053l22.248-50.4-1.372-.606-22.248 50.4 1.372.606zm21.562-49.953h14.04v-1.5h-14.04v1.5zm13.354-.446l22.32 50.4 1.372-.608-22.32-50.4-1.372.608zm23.006 49.346h-14.832v1.5h14.832v-1.5zm-14.137.469l-3.96-9.792-1.39.562 3.96 9.792 1.39-.562zm-8.135-20.303l-6.48-16.128-1.392.56 6.48 16.128 1.392-.56zm-7.872-16.128l-6.48 16.128 1.392.56 6.48-16.128-1.392-.56zm-5.784 17.158h12.96v-1.5h-12.96v1.5zm53.816 17.25l-.356.66.009.005.347-.665zm-9.864-9.36l-.642.387.642-.387zm0-27.072l-.642-.387.642.387zm9.864-9.288l.351.663.003-.001-.354-.662zm26.712-.936l-.303.686.303-.686zm9.216 7.056l.504.556.522-.472-.439-.551-.587.467zm-9.072 8.208l-.577.479.5.603.581-.526-.504-.556zm-19.224-4.104l-.364-.656-.006.004.37.652zm-4.968 5.112l-.659-.358-.002.005.661.353zm0 15.048l-.664.347.004.009.005.008.655-.364zm4.968 5.04l-.37.652.006.004.364-.656zm19.224-4.104l.504-.556-.581-.526-.5.603.577.479zm9.072 8.208l.587.467.439-.551-.522-.472-.504.556zm-9.216 7.056l.303.686-.303-.686zm-12.456 1.698c-5.172 0-9.803-1.081-13.908-3.227l-.695 1.33c4.342 2.27 9.216 3.397 14.603 3.397v-1.5zm-13.899-3.222c-4.061-2.193-7.249-5.22-9.578-9.087l-1.285.774c2.471 4.101 5.859 7.314 10.15 9.633l.713-1.32zm-9.578-9.087c-2.324-3.857-3.493-8.234-3.493-13.149h-1.5c0 5.165 1.232 9.812 3.708 13.923l1.285-.774zm-3.493-13.149c0-4.915 1.169-9.292 3.493-13.149l-1.285-.774c-2.476 4.111-3.708 8.758-3.708 13.923h1.5zm3.493-13.149c2.328-3.865 5.515-6.867 9.572-9.012l-.701-1.326c-4.295 2.271-7.684 5.461-10.156 9.564l1.285.774zm9.575-9.013c4.104-2.193 8.733-3.296 13.902-3.296v-1.5c-5.39 0-10.265 1.153-14.609 3.472l.707 1.324zm13.902-3.296c4.519 0 8.565.8 12.153 2.384l.606-1.372c-3.804-1.68-8.061-2.512-12.759-2.512v1.5zm12.153 2.384c3.589 1.585 6.563 3.863 8.933 6.837l1.173-.934c-2.526-3.17-5.696-5.596-9.5-7.275l-.606 1.372zm9.016 5.814l-9.072 8.208 1.007 1.112 9.072-8.208-1.007-1.112zm-7.991 8.285c-3.391-4.088-7.555-6.175-12.458-6.175v1.5c4.409 0 8.166 1.849 11.303 5.633l1.155-.958zm-12.458-6.175c-2.849 0-5.425.626-7.708 1.894l.729 1.312c2.037-1.132 4.357-1.706 6.979-1.706v-1.5zm-7.714 1.898c-2.238 1.272-3.992 3.079-5.257 5.406l1.318.716c1.136-2.089 2.694-3.69 4.68-4.818l-.741-1.304zm-5.259 5.411c-1.219 2.285-1.817 4.905-1.817 7.841h1.5c0-2.728.555-5.1 1.64-7.135l-1.323-.706zm-1.817 7.841c0 2.936.598 5.578 1.814 7.907l1.329-.694c-1.088-2.087-1.643-4.485-1.643-7.213h-1.5zm1.823 7.924c1.265 2.278 3.019 4.059 5.253 5.328l.741-1.304c-1.99-1.131-3.549-2.71-4.683-4.752l-1.311.728zm5.259 5.332c2.283 1.268 4.859 1.894 7.708 1.894v-1.5c-2.622 0-4.942-.574-6.979-1.706l-.729 1.312zm7.708 1.894c4.903 0 9.067-2.087 12.458-6.175l-1.155-.958c-3.137 3.784-6.894 5.633-11.303 5.633v1.5zm11.377-6.098l9.072 8.208 1.007-1.112-9.072-8.208-1.007 1.112zm8.989 7.185c-2.37 2.974-5.344 5.252-8.933 6.837l.606 1.372c3.804-1.679 6.974-4.105 9.5-7.275l-1.173-.934zm-8.933 6.837c-3.588 1.584-7.634 2.384-12.153 2.384v1.5c4.698 0 8.955-.832 12.759-2.512l-.606-1.372z" fill="#C3C3C5" fill-opacity=".9"/><path opacity=".9" stroke="url(#apaint3_radial)" d="M0 152.5h774"/><defs><radialGradient id="apaint0_radial" cx="0" cy="0" r="1" gradientUnits="userSpaceOnUse" gradientTransform="matrix(-64.00029 -7.76982 3202.17588 -26376.43425 240 209.77)"><stop offset=".401" stop-color="#C3C3C5"/><stop offset="1" stop-color="#fff" stop-opacity="0"/></radialGradient><radialGradient id="apaint1_radial" cx="0" cy="0" r="1" gradientUnits="userSpaceOnUse" gradientTransform="matrix(-64.00029 -7.76982 3202.17588 -26376.43425 298 209.77)"><stop offset=".401" stop-color="#C3C3C5"/><stop offset="1" stop-color="#fff" stop-opacity="0"/></radialGradient><radialGradient id="apaint2_radial" cx="0" cy="0" r="1" gradientUnits="userSpaceOnUse" gradientTransform="rotate(101.333 232.78 275.168) scale(65.2731 43327.4)"><stop offset=".401" stop-color="#C3C3C5"/><stop offset="1" stop-color="#fff" stop-opacity="0"/></radialGradient><radialGradient id="apaint3_radial" cx="0" cy="0" r="1" gradientUnits="userSpaceOnUse" gradientTransform="matrix(-14.8851 64.00032 -48646.41753 -11314.11102 401.885 153)"><stop stop-color="#AEAEC0"/><stop offset="1" stop-color="#fff" stop-opacity="0"/></radialGradient></defs></svg><svg fill="none" viewBox="0 0 483 434" id="down-line-section" xmlns="http://www.w3.org/2000/svg"><path opacity=".9" transform="matrix(0 1 1 0 365 0)" stroke="url(#bpaint0_radial)" d="M0-.5h400"/><path opacity=".9" transform="matrix(0 1 1 0 315 34)" stroke="url(#bpaint1_radial)" stroke-dasharray="2 2" d="M0-.5h400"/><path opacity=".9" stroke="url(#bpaint2_radial)" d="M64 286.5h419"/><path opacity=".9" stroke="url(#bpaint3_radial)" stroke-dasharray="2 2" d="M0 235.5h419"/><defs><radialGradient id="bpaint0_radial" cx="0" cy="0" r="1" gradientUnits="userSpaceOnUse" gradientTransform="rotate(96.854 103.846 92.112) scale(64.4609 26310.8)"><stop offset=".401" stop-color="#C3C3C5"/><stop offset="1" stop-color="#fff" stop-opacity="0"/></radialGradient><radialGradient id="bpaint1_radial" cx="0" cy="0" r="1" gradientUnits="userSpaceOnUse" gradientTransform="rotate(96.854 103.846 92.112) scale(64.4609 26310.8)"><stop offset=".401" stop-color="#C3C3C5"/><stop offset="1" stop-color="#fff" stop-opacity="0"/></radialGradient><radialGradient id="bpaint2_radial" cx="0" cy="0" r="1" gradientUnits="userSpaceOnUse" gradientTransform="rotate(97.176 14.213 267.666) scale(64.5056 27541.5)"><stop offset=".401" stop-color="#C3C3C5"/><stop offset="1" stop-color="#fff" stop-opacity="0"/></radialGradient><radialGradient id="bpaint3_radial" cx="0" cy="0" r="1" gradientUnits="userSpaceOnUse" gradientTransform="rotate(97.176 4.704 213.942) scale(64.5056 27541.5)"><stop offset=".401" stop-color="#C3C3C5"/><stop offset="1" stop-color="#fff" stop-opacity="0"/></radialGradient></defs></svg><svg fill="none" viewBox="0 0 433 431" id="down-line-section-left" xmlns="http://www.w3.org/2000/svg"><path opacity=".9" stroke="url(#cpaint0_radial)" d="M98.5 0v403"/><path opacity=".9" stroke="url(#cpaint1_radial)" stroke-dasharray="2 2" d="M148.5 28v403"/><path opacity=".9" transform="matrix(-1 0 0 1 419 302)" stroke="url(#cpaint2_radial)" d="M0-.5h419"/><path opacity=".9" transform="matrix(-1 0 0 1 433 251)" stroke="url(#cpaint3_radial)" stroke-dasharray="2 2" d="M0-.5h419"/><defs><radialGradient id="cpaint0_radial" cx="0" cy="0" r="1" gradientUnits="userSpaceOnUse" gradientTransform="rotate(-173.095 55.312 101.669) scale(64.4679 26505.3)"><stop offset=".401" stop-color="#C3C3C5"/><stop offset="1" stop-color="#fff" stop-opacity="0"/></radialGradient><radialGradient id="cpaint1_radial" cx="0" cy="0" r="1" gradientUnits="userSpaceOnUse" gradientTransform="rotate(-173.095 81.157 114.16) scale(64.4679 26505.3)"><stop offset=".401" stop-color="#C3C3C5"/><stop offset="1" stop-color="#fff" stop-opacity="0"/></radialGradient><radialGradient id="cpaint2_radial" cx="0" cy="0" r="1" gradientUnits="userSpaceOnUse" gradientTransform="rotate(97.176 108.779 95.942) scale(64.5056 27541.5)"><stop offset=".401" stop-color="#C3C3C5"/><stop offset="1" stop-color="#fff" stop-opacity="0"/></radialGradient><radialGradient id="cpaint3_radial" cx="0" cy="0" r="1" gradientUnits="userSpaceOnUse" gradientTransform="rotate(97.176 108.779 95.942) scale(64.5056 27541.5)"><stop offset=".401" stop-color="#C3C3C5"/><stop offset="1" stop-color="#fff" stop-opacity="0"/></radialGradient></defs></svg><svg fill="none" viewBox="0 0 290 628" id="graphFormLeft" xmlns="http://www.w3.org/2000/svg"><g filter="url(#dfilter0_dd)"><path fill-rule="evenodd" clip-rule="evenodd" d="M-57.367 548.349c-49.677-3.48-103.726-16.371-134.869-55.242-30.289-37.804-11.23-92.816-21.661-140.129-11.404-51.731-66.611-102.222-42.122-149.197 24.558-47.109 98.737-28.567 146.695-51.398 45.61-21.712 75.294-83.852 125.48-78.17 50.017 5.662 69.275 67.901 104.188 104.171 33.838 35.153 83.282 57.975 96.982 104.814 14.394 49.212 4.12 104.755-22.946 148.303-25.927 41.715-74.623 59.669-119.164 80.343-42.624 19.783-85.712 39.788-132.583 36.505z" fill="#F0F0F3"/></g><g filter="url(#dfilter1_dd)"><path fill-rule="evenodd" clip-rule="evenodd" d="M-66.392 455.773c-37.016-2.588-77.288-12.198-100.487-41.201-22.562-28.208-8.351-69.265-16.115-104.572-8.488-38.605-49.616-76.275-31.36-111.336 18.308-35.161 73.579-21.337 109.318-38.384 33.99-16.211 56.12-62.591 93.516-58.36 37.268 4.217 51.606 50.661 77.615 77.722 25.208 26.229 62.046 43.251 72.246 78.204 10.717 36.723 3.052 78.176-17.125 110.68-19.327 31.136-55.615 44.544-88.808 59.98-31.765 14.772-63.875 29.709-98.8 27.267z" fill="#F4F4F6"/></g><g filter="url(#dfilter2_dd)"><path fill-rule="evenodd" clip-rule="evenodd" d="M-80.421 396.502c-26.1-1.832-54.498-8.601-70.866-28.991-15.919-19.831-5.914-48.678-11.401-73.492-6-27.132-35.012-53.62-22.153-78.252 12.896-24.702 51.871-14.967 77.063-26.933 23.96-11.38 39.546-43.964 65.914-40.977 26.278 2.977 36.405 35.621 54.753 54.647 17.784 18.441 43.764 30.417 50.969 54.984 7.57 25.811 2.18 54.938-12.034 77.772-13.615 21.873-39.196 31.282-62.594 42.117-22.39 10.369-45.025 20.854-69.651 19.125z" fill="#F9F9FA"/></g><defs><filter id="dfilter0_dd" x="-336.604" y=".542" width="626.396" height="626.875" filterUnits="userSpaceOnUse" color-interpolation-filters="sRGB"><feFlood flood-opacity="0" result="BackgroundImageFix"/><feColorMatrix in="SourceAlpha" values="0 0 0 0 0 0 0 0 0 0 0 0 0 0 0 0 0 0 127 0"/><feOffset dy="10"/><feGaussianBlur stdDeviation="15"/><feColorMatrix values="0 0 0 0 0.682353 0 0 0 0 0.682353 0 0 0 0 0.752941 0 0 0 0.4 0"/><feBlend in2="BackgroundImageFix" result="effect1_dropShadow"/><feColorMatrix in="SourceAlpha" values="0 0 0 0 0 0 0 0 0 0 0 0 0 0 0 0 0 0 127 0"/><feOffset dx="5" dy="-10"/><feGaussianBlur stdDeviation="12.5"/><feColorMatrix values="0 0 0 0 1 0 0 0 0 1 0 0 0 0 1 0 0 0 1 0"/><feBlend in2="effect1_dropShadow" result="effect2_dropShadow"/><feBlend in="SourceGraphic" in2="effect2_dropShadow" result="shape"/></filter><filter id="dfilter1_dd" x="-282.103" y="38.106" width="482.118" height="486.779" filterUnits="userSpaceOnUse" color-interpolation-filters="sRGB"><feFlood flood-opacity="0" result="BackgroundImageFix"/><feColorMatrix in="SourceAlpha" values="0 0 0 0 0 0 0 0 0 0 0 0 0 0 0 0 0 0 127 0"/><feOffset dy="10"/><feGaussianBlur stdDeviation="15"/><feColorMatrix values="0 0 0 0 0.682353 0 0 0 0 0.682353 0 0 0 0 0.752941 0 0 0 0.4 0"/><feBlend in2="BackgroundImageFix" result="effect1_dropShadow"/><feColorMatrix in="SourceAlpha" values="0 0 0 0 0 0 0 0 0 0 0 0 0 0 0 0 0 0 127 0"/><feOffset dx="5" dy="-10"/><feGaussianBlur stdDeviation="12.5"/><feColorMatrix values="0 0 0 0 1 0 0 0 0 1 0 0 0 0 1 0 0 0 1 0"/><feBlend in2="effect1_dropShadow" result="effect2_dropShadow"/><feBlend in="SourceGraphic" in2="effect2_dropShadow" result="shape"/></filter><filter id="dfilter2_dd" x="-241.372" y="92.539" width="357.515" height="364.489" filterUnits="userSpaceOnUse" color-interpolation-filters="sRGB"><feFlood flood-opacity="0" result="BackgroundImageFix"/><feColorMatrix in="SourceAlpha" values="0 0 0 0 0 0 0 0 0 0 0 0 0 0 0 0 0 0 127 0"/><feOffset dy="10"/><feGaussianBlur stdDeviation="15"/><feColorMatrix values="0 0 0 0 0.682353 0 0 0 0 0.682353 0 0 0 0 0.752941 0 0 0 0.4 0"/><feBlend in2="BackgroundImageFix" result="effect1_dropShadow"/><feColorMatrix in="SourceAlpha" values="0 0 0 0 0 0 0 0 0 0 0 0 0 0 0 0 0 0 127 0"/><feOffset dx="5" dy="-10"/><feGaussianBlur stdDeviation="12.5"/><feColorMatrix values="0 0 0 0 1 0 0 0 0 1 0 0 0 0 1 0 0 0 1 0"/><feBlend in2="effect1_dropShadow" result="effect2_dropShadow"/><feBlend in="SourceGraphic" in2="effect2_dropShadow" result="shape"/></filter></defs></svg><svg fill="none" viewBox="0 0 300 633" id="graphFormLeftBlack" xmlns="http://www.w3.org/2000/svg"><g filter="url(#efilter0_dd)"><path fill-rule="evenodd" clip-rule="evenodd" d="M-57.367 553.349c-49.677-3.48-103.726-16.371-134.869-55.242-30.289-37.804-11.23-92.816-21.661-140.129-11.404-51.731-66.611-102.222-42.122-149.197 24.558-47.109 98.737-28.567 146.695-51.398 45.61-21.712 75.294-83.852 125.48-78.17 50.017 5.662 69.275 67.901 104.188 104.171 33.838 35.153 83.282 57.975 96.982 104.814 14.394 49.212 4.12 104.755-22.946 148.303-25.927 41.715-74.623 59.669-119.164 80.343-42.624 19.783-85.712 39.788-132.583 36.505z" fill="#252525"/></g><g filter="url(#efilter1_dd)"><path fill-rule="evenodd" clip-rule="evenodd" d="M-66.392 460.773c-37.016-2.588-77.288-12.199-100.487-41.201-22.562-28.208-8.351-69.265-16.115-104.573-8.488-38.604-49.616-76.274-31.36-111.335 18.308-35.161 73.579-21.337 109.318-38.384 33.99-16.212 56.12-62.591 93.516-58.36 37.268 4.217 51.606 50.661 77.615 77.722 25.208 26.228 62.046 43.251 72.246 78.204 10.717 36.723 3.052 78.176-17.125 110.68-19.327 31.135-55.615 44.543-88.808 59.98-31.765 14.772-63.875 29.709-98.8 27.267z" fill="#242424"/></g><g filter="url(#efilter2_dd)"><path fill-rule="evenodd" clip-rule="evenodd" d="M-80.42 401.503c-26.1-1.833-54.499-8.602-70.866-28.992-15.919-19.83-5.914-48.678-11.401-73.492-6-27.132-35.012-53.62-22.153-78.251 12.896-24.703 51.871-14.968 77.063-26.934 23.96-11.38 39.546-43.964 65.914-40.977 26.279 2.977 36.405 35.621 54.754 54.647 17.783 18.441 43.763 30.417 50.968 54.984 7.57 25.811 2.18 54.938-12.034 77.773-13.615 21.872-39.196 31.281-62.594 42.116-22.39 10.37-45.026 20.855-69.651 19.126z" fill="#222"/></g><defs><filter id="efilter0_dd" x="-346.604" y=".542" width="646.396" height="631.875" filterUnits="userSpaceOnUse" color-interpolation-filters="sRGB"><feFlood flood-opacity="0" result="BackgroundImageFix"/><feColorMatrix in="SourceAlpha" values="0 0 0 0 0 0 0 0 0 0 0 0 0 0 0 0 0 0 127 0"/><feOffset dx="10" dy="10"/><feGaussianBlur stdDeviation="15"/><feColorMatrix values="0 0 0 0 0.0627451 0 0 0 0 0.0627451 0 0 0 0 0.0627451 0 0 0 0.8 0"/><feBlend in2="BackgroundImageFix" result="effect1_dropShadow"/><feColorMatrix in="SourceAlpha" values="0 0 0 0 0 0 0 0 0 0 0 0 0 0 0 0 0 0 127 0"/><feOffset dx="-10" dy="-10"/><feGaussianBlur stdDeviation="15"/><feColorMatrix values="0 0 0 0 0.219608 0 0 0 0 0.219608 0 0 0 0 0.219608 0 0 0 0.8 0"/><feBlend in2="effect1_dropShadow" result="effect2_dropShadow"/><feBlend in="SourceGraphic" in2="effect2_dropShadow" result="shape"/></filter><filter id="efilter1_dd" x="-292.103" y="38.105" width="502.118" height="491.779" filterUnits="userSpaceOnUse" color-interpolation-filters="sRGB"><feFlood flood-opacity="0" result="BackgroundImageFix"/><feColorMatrix in="SourceAlpha" values="0 0 0 0 0 0 0 0 0 0 0 0 0 0 0 0 0 0 127 0"/><feOffset dx="10" dy="10"/><feGaussianBlur stdDeviation="15"/><feColorMatrix values="0 0 0 0 0.0627451 0 0 0 0 0.0627451 0 0 0 0 0.0627451 0 0 0 0.8 0"/><feBlend in2="BackgroundImageFix" result="effect1_dropShadow"/><feColorMatrix in="SourceAlpha" values="0 0 0 0 0 0 0 0 0 0 0 0 0 0 0 0 0 0 127 0"/><feOffset dx="-10" dy="-10"/><feGaussianBlur stdDeviation="15"/><feColorMatrix values="0 0 0 0 0.219608 0 0 0 0 0.219608 0 0 0 0 0.219608 0 0 0 0.8 0"/><feBlend in2="effect1_dropShadow" result="effect2_dropShadow"/><feBlend in="SourceGraphic" in2="effect2_dropShadow" result="shape"/></filter><filter id="efilter2_dd" x="-251.371" y="92.54" width="377.515" height="369.489" filterUnits="userSpaceOnUse" color-interpolation-filters="sRGB"><feFlood flood-opacity="0" result="BackgroundImageFix"/><feColorMatrix in="SourceAlpha" values="0 0 0 0 0 0 0 0 0 0 0 0 0 0 0 0 0 0 127 0"/><feOffset dx="10" dy="10"/><feGaussianBlur stdDeviation="15"/><feColorMatrix values="0 0 0 0 0.0627451 0 0 0 0 0.0627451 0 0 0 0 0.0627451 0 0 0 0.8 0"/><feBlend in2="BackgroundImageFix" result="effect1_dropShadow"/><feColorMatrix in="SourceAlpha" values="0 0 0 0 0 0 0 0 0 0 0 0 0 0 0 0 0 0 127 0"/><feOffset dx="-10" dy="-10"/><feGaussianBlur stdDeviation="15"/><feColorMatrix values="0 0 0 0 0.219608 0 0 0 0 0.219608 0 0 0 0 0.219608 0 0 0 0.8 0"/><feBlend in2="effect1_dropShadow" result="effect2_dropShadow"/><feBlend in="SourceGraphic" in2="effect2_dropShadow" result="shape"/></filter></defs></svg><svg fill="none" viewBox="0 0 324 790" id="graphFormLeftTwo" xmlns="http://www.w3.org/2000/svg"><g filter="url(#ffilter0_dd)"><path fill-rule="evenodd" clip-rule="evenodd" d="M-111.174 78.576c-65.695 2.958-137.472 18.191-179.869 68.462-41.234 48.892-17.892 122.114-33.224 184.207-16.765 67.891-91.313 132.705-60.537 195.5 30.864 62.975 129.402 40.947 191.958 72.653C-133.354 629.55-96.22 712.529-29.78 706.683c66.215-5.827 93.694-87.326 140.981-134.041 45.833-45.276 111.858-73.765 131.492-135.126 20.628-64.468 8.9-138.102-25.392-196.461-32.849-55.901-96.54-81.196-154.656-109.943C7.03 103.602-49.19 75.785-111.174 78.576z" fill="#F0F0F3"/></g><g filter="url(#ffilter1_dd)"><path fill-rule="evenodd" clip-rule="evenodd" d="M-98.337 127.008c-53.485 2.409-111.922 14.81-146.44 55.73-33.571 39.798-14.569 99.399-27.053 149.942-13.65 55.263-74.344 108.022-49.29 159.135 25.127 51.26 105.351 33.328 156.28 59.134 48.434 24.542 78.665 92.085 132.757 87.325 53.908-4.744 76.281-71.084 114.781-109.11 37.316-36.855 91.07-60.046 107.056-109.993 16.796-52.476 7.249-112.413-20.669-159.915-26.741-45.502-78.595-66.09-125.91-89.489-45.277-22.391-91.048-45.032-141.512-42.759z" fill="#F4F4F6"/></g><g filter="url(#ffilter2_dd)"><path fill-rule="evenodd" clip-rule="evenodd" d="M-108.356 175.385c-41.61 1.876-87.074 11.522-113.93 43.342-26.12 30.947-11.34 77.29-21.055 116.592-10.623 42.971-57.844 83.998-38.355 123.74 19.545 39.857 81.959 25.91 121.579 45.973 37.679 19.081 61.194 71.598 103.277 67.894 41.94-3.692 59.35-55.277 89.304-84.846 29.032-28.66 70.853-46.696 83.292-85.533 13.07-40.806 5.646-87.41-16.07-124.345-20.803-35.379-61.143-51.385-97.95-69.576-35.225-17.409-70.832-35.012-110.092-33.241z" fill="#F9F9FA"/></g><defs><filter id="ffilter0_dd" x="-471.431" y=".029" width="794.525" height="789.492" filterUnits="userSpaceOnUse" color-interpolation-filters="sRGB"><feFlood flood-opacity="0" result="BackgroundImageFix"/><feColorMatrix in="SourceAlpha" values="0 0 0 0 0 0 0 0 0 0 0 0 0 0 0 0 0 0 127 0"/><feOffset dy="10"/><feGaussianBlur stdDeviation="15"/><feColorMatrix values="0 0 0 0 0.682353 0 0 0 0 0.682353 0 0 0 0 0.752941 0 0 0 0.4 0"/><feBlend in2="BackgroundImageFix" result="effect1_dropShadow"/><feColorMatrix in="SourceAlpha" values="0 0 0 0 0 0 0 0 0 0 0 0 0 0 0 0 0 0 127 0"/><feOffset dx="5" dy="-10"/><feGaussianBlur stdDeviation="12.5"/><feColorMatrix values="0 0 0 0 1 0 0 0 0 1 0 0 0 0 1 0 0 0 1 0"/><feBlend in2="effect1_dropShadow" result="effect2_dropShadow"/><feBlend in="SourceGraphic" in2="effect2_dropShadow" result="shape"/></filter><filter id="ffilter1_dd" x="-397.214" y="56.555" width="657.996" height="656.596" filterUnits="userSpaceOnUse" color-interpolation-filters="sRGB"><feFlood flood-opacity="0" result="BackgroundImageFix"/><feColorMatrix in="SourceAlpha" values="0 0 0 0 0 0 0 0 0 0 0 0 0 0 0 0 0 0 127 0"/><feOffset dy="10"/><feGaussianBlur stdDeviation="15"/><feColorMatrix values="0 0 0 0 0.682353 0 0 0 0 0.682353 0 0 0 0 0.752941 0 0 0 0.4 0"/><feBlend in2="BackgroundImageFix" result="effect1_dropShadow"/><feColorMatrix in="SourceAlpha" values="0 0 0 0 0 0 0 0 0 0 0 0 0 0 0 0 0 0 127 0"/><feOffset dx="5" dy="-10"/><feGaussianBlur stdDeviation="12.5"/><feColorMatrix values="0 0 0 0 1 0 0 0 0 1 0 0 0 0 1 0 0 0 1 0"/><feBlend in2="effect1_dropShadow" result="effect2_dropShadow"/><feBlend in="SourceGraphic" in2="effect2_dropShadow" result="shape"/></filter><filter id="ffilter2_dd" x="-347.538" y="112.803" width="525.204" height="527.256" filterUnits="userSpaceOnUse" color-interpolation-filters="sRGB"><feFlood flood-opacity="0" result="BackgroundImageFix"/><feColorMatrix in="SourceAlpha" values="0 0 0 0 0 0 0 0 0 0 0 0 0 0 0 0 0 0 127 0"/><feOffset dy="10"/><feGaussianBlur stdDeviation="15"/><feColorMatrix values="0 0 0 0 0.682353 0 0 0 0 0.682353 0 0 0 0 0.752941 0 0 0 0.4 0"/><feBlend in2="BackgroundImageFix" result="effect1_dropShadow"/><feColorMatrix in="SourceAlpha" values="0 0 0 0 0 0 0 0 0 0 0 0 0 0 0 0 0 0 127 0"/><feOffset dx="5" dy="-10"/><feGaussianBlur stdDeviation="12.5"/><feColorMatrix values="0 0 0 0 1 0 0 0 0 1 0 0 0 0 1 0 0 0 1 0"/><feBlend in2="effect1_dropShadow" result="effect2_dropShadow"/><feBlend in="SourceGraphic" in2="effect2_dropShadow" result="shape"/></filter></defs></svg><svg fill="none" viewBox="0 0 334 795" id="graphFormLeftTwoBlack" xmlns="http://www.w3.org/2000/svg"><g filter="url(#gfilter0_dd)"><path fill-rule="evenodd" clip-rule="evenodd" d="M-111.174 83.576c-65.695 2.958-137.472 18.191-179.869 68.462-41.234 48.892-17.892 122.114-33.224 184.207-16.765 67.891-91.313 132.705-60.537 195.5 30.864 62.975 129.402 40.947 191.958 72.653C-133.354 634.55-96.22 717.529-29.78 711.683c66.215-5.827 93.694-87.326 140.981-134.041 45.833-45.276 111.858-73.765 131.492-135.126 20.628-64.468 8.9-138.102-25.392-196.461-32.849-55.901-96.54-81.196-154.656-109.943C7.03 108.602-49.19 80.785-111.174 83.576z" fill="#252525"/></g><g filter="url(#gfilter1_dd)"><path fill-rule="evenodd" clip-rule="evenodd" d="M-98.337 132.008c-53.485 2.409-111.922 14.81-146.44 55.73-33.571 39.798-14.569 99.399-27.053 149.942-13.65 55.263-74.344 108.022-49.29 159.135 25.127 51.26 105.351 33.328 156.28 59.134 48.434 24.542 78.665 92.085 132.757 87.325 53.908-4.744 76.281-71.084 114.781-109.11 37.316-36.855 91.07-60.046 107.056-109.993 16.796-52.476 7.249-112.413-20.669-159.915-26.741-45.502-78.595-66.09-125.91-89.489-45.277-22.391-91.048-45.032-141.512-42.759z" fill="#242424"/></g><g filter="url(#gfilter2_dd)"><path fill-rule="evenodd" clip-rule="evenodd" d="M-108.356 180.385c-41.61 1.876-87.074 11.522-113.93 43.342-26.12 30.947-11.34 77.29-21.055 116.592-10.623 42.971-57.844 83.998-38.355 123.74 19.545 39.857 81.959 25.91 121.579 45.973 37.679 19.081 61.194 71.598 103.277 67.894 41.94-3.692 59.35-55.277 89.304-84.846 29.032-28.66 70.853-46.696 83.292-85.533 13.07-40.806 5.646-87.41-16.07-124.345-20.803-35.379-61.143-51.385-97.95-69.576-35.225-17.409-70.832-35.012-110.092-33.241z" fill="#222"/></g><defs><filter id="gfilter0_dd" x="-481.431" y=".029" width="814.525" height="794.492" filterUnits="userSpaceOnUse" color-interpolation-filters="sRGB"><feFlood flood-opacity="0" result="BackgroundImageFix"/><feColorMatrix in="SourceAlpha" values="0 0 0 0 0 0 0 0 0 0 0 0 0 0 0 0 0 0 127 0"/><feOffset dx="10" dy="10"/><feGaussianBlur stdDeviation="15"/><feColorMatrix values="0 0 0 0 0.0627451 0 0 0 0 0.0627451 0 0 0 0 0.0627451 0 0 0 0.8 0"/><feBlend in2="BackgroundImageFix" result="effect1_dropShadow"/><feColorMatrix in="SourceAlpha" values="0 0 0 0 0 0 0 0 0 0 0 0 0 0 0 0 0 0 127 0"/><feOffset dx="-10" dy="-10"/><feGaussianBlur stdDeviation="15"/><feColorMatrix values="0 0 0 0 0.219608 0 0 0 0 0.219608 0 0 0 0 0.219608 0 0 0 0.8 0"/><feBlend in2="effect1_dropShadow" result="effect2_dropShadow"/><feBlend in="SourceGraphic" in2="effect2_dropShadow" result="shape"/></filter><filter id="gfilter1_dd" x="-407.214" y="56.555" width="677.996" height="661.596" filterUnits="userSpaceOnUse" color-interpolation-filters="sRGB"><feFlood flood-opacity="0" result="BackgroundImageFix"/><feColorMatrix in="SourceAlpha" values="0 0 0 0 0 0 0 0 0 0 0 0 0 0 0 0 0 0 127 0"/><feOffset dx="10" dy="10"/><feGaussianBlur stdDeviation="15"/><feColorMatrix values="0 0 0 0 0.0627451 0 0 0 0 0.0627451 0 0 0 0 0.0627451 0 0 0 0.8 0"/><feBlend in2="BackgroundImageFix" result="effect1_dropShadow"/><feColorMatrix in="SourceAlpha" values="0 0 0 0 0 0 0 0 0 0 0 0 0 0 0 0 0 0 127 0"/><feOffset dx="-10" dy="-10"/><feGaussianBlur stdDeviation="15"/><feColorMatrix values="0 0 0 0 0.219608 0 0 0 0 0.219608 0 0 0 0 0.219608 0 0 0 0.8 0"/><feBlend in2="effect1_dropShadow" result="effect2_dropShadow"/><feBlend in="SourceGraphic" in2="effect2_dropShadow" result="shape"/></filter><filter id="gfilter2_dd" x="-357.538" y="112.803" width="545.204" height="532.256" filterUnits="userSpaceOnUse" color-interpolation-filters="sRGB"><feFlood flood-opacity="0" result="BackgroundImageFix"/><feColorMatrix in="SourceAlpha" values="0 0 0 0 0 0 0 0 0 0 0 0 0 0 0 0 0 0 127 0"/><feOffset dx="10" dy="10"/><feGaussianBlur stdDeviation="15"/><feColorMatrix values="0 0 0 0 0.0627451 0 0 0 0 0.0627451 0 0 0 0 0.0627451 0 0 0 0.8 0"/><feBlend in2="BackgroundImageFix" result="effect1_dropShadow"/><feColorMatrix in="SourceAlpha" values="0 0 0 0 0 0 0 0 0 0 0 0 0 0 0 0 0 0 127 0"/><feOffset dx="-10" dy="-10"/><feGaussianBlur stdDeviation="15"/><feColorMatrix values="0 0 0 0 0.219608 0 0 0 0 0.219608 0 0 0 0 0.219608 0 0 0 0.8 0"/><feBlend in2="effect1_dropShadow" result="effect2_dropShadow"/><feBlend in="SourceGraphic" in2="effect2_dropShadow" result="shape"/></filter></defs></svg><svg fill="none" viewBox="0 0 408 511" id="graphFormRight" xmlns="http://www.w3.org/2000/svg"><g filter="url(#hfilter0_dd)"><path fill-rule="evenodd" clip-rule="evenodd" d="M360.564-163.278c65.53-5.509 138.67.374 187.175 44.779C594.914-75.312 581.176.303 604.361 59.911c25.35 65.174 107.609 119.87 85.159 186.099-22.515 66.419-123.067 57.237-181.029 96.719-55.124 37.548-81.286 124.612-147.927 127.352-66.414 2.731-104.139-74.562-157.038-114.811-51.271-39.011-120.41-58.78-147.767-117.108-28.742-61.283-26.574-135.813-.066-198.095 25.392-59.659 85.305-92.93 139.245-128.907 51.618-34.429 103.797-69.24 165.626-74.438z" fill="#F0F0F3"/></g><g filter="url(#hfilter1_dd)"><path fill-rule="evenodd" clip-rule="evenodd" d="M354.056-113.598c53.352-4.484 112.898.304 152.388 36.449 38.408 35.153 27.222 96.702 46.099 145.222 20.639 53.05 87.609 97.571 69.331 151.48-18.33 54.064-100.194 46.591-147.384 78.728-44.878 30.563-66.178 101.431-120.434 103.662-54.071 2.223-84.784-60.692-127.851-93.454-41.742-31.754-98.032-47.845-120.304-95.323-23.4-49.883-21.635-110.55-.054-161.246 20.673-48.56 69.45-75.642 113.365-104.927 42.025-28.024 84.507-56.36 134.844-60.591z" fill="#F4F4F6"/></g><g filter="url(#hfilter2_dd)"><path fill-rule="evenodd" clip-rule="evenodd" d="M375.21-71.91c41.506-3.487 87.832.236 118.555 28.341 29.881 27.335 21.179 75.192 35.864 112.92 16.057 41.249 68.159 75.868 53.939 117.785-14.261 42.038-77.949 36.227-114.662 61.216-34.915 23.765-51.486 78.869-93.696 80.603-42.067 1.729-65.961-47.191-99.467-72.666-32.475-24.691-76.267-37.202-93.594-74.12-18.205-38.787-16.832-85.959-.042-125.378 16.083-37.76 54.031-58.817 88.196-81.588 32.695-21.79 65.745-43.823 104.907-47.113z" fill="#F9F9FA"/></g><defs><filter id="hfilter0_dd" x="0" y="-200" width="733.359" height="710.151" filterUnits="userSpaceOnUse" color-interpolation-filters="sRGB"><feFlood flood-opacity="0" result="BackgroundImageFix"/><feColorMatrix in="SourceAlpha" values="0 0 0 0 0 0 0 0 0 0 0 0 0 0 0 0 0 0 127 0"/><feOffset dx="10" dy="10"/><feGaussianBlur stdDeviation="15"/><feColorMatrix values="0 0 0 0 0.682353 0 0 0 0 0.682353 0 0 0 0 0.752941 0 0 0 0.5 0"/><feBlend in2="BackgroundImageFix" result="effect1_dropShadow"/><feColorMatrix in="SourceAlpha" values="0 0 0 0 0 0 0 0 0 0 0 0 0 0 0 0 0 0 127 0"/><feOffset dx="-10" dy="-10"/><feGaussianBlur stdDeviation="12.5"/><feColorMatrix values="0 0 0 0 1 0 0 0 0 1 0 0 0 0 1 0 0 0 1 0"/><feBlend in2="effect1_dropShadow" result="effect2_dropShadow"/><feBlend in="SourceGraphic" in2="effect2_dropShadow" result="shape"/></filter><filter id="hfilter1_dd" x="54" y="-150" width="611" height="592" filterUnits="userSpaceOnUse" color-interpolation-filters="sRGB"><feFlood flood-opacity="0" result="BackgroundImageFix"/><feColorMatrix in="SourceAlpha" values="0 0 0 0 0 0 0 0 0 0 0 0 0 0 0 0 0 0 127 0"/><feOffset dx="10" dy="10"/><feGaussianBlur stdDeviation="15"/><feColorMatrix values="0 0 0 0 0.682353 0 0 0 0 0.682353 0 0 0 0 0.752941 0 0 0 0.5 0"/><feBlend in2="BackgroundImageFix" result="effect1_dropShadow"/><feColorMatrix in="SourceAlpha" values="0 0 0 0 0 0 0 0 0 0 0 0 0 0 0 0 0 0 127 0"/><feOffset dx="-10" dy="-10"/><feGaussianBlur stdDeviation="12.5"/><feColorMatrix values="0 0 0 0 1 0 0 0 0 1 0 0 0 0 1 0 0 0 1 0"/><feBlend in2="effect1_dropShadow" result="effect2_dropShadow"/><feBlend in="SourceGraphic" in2="effect2_dropShadow" result="shape"/></filter><filter id="hfilter2_dd" x="134" y="-108" width="492" height="477" filterUnits="userSpaceOnUse" color-interpolation-filters="sRGB"><feFlood flood-opacity="0" result="BackgroundImageFix"/><feColorMatrix in="SourceAlpha" values="0 0 0 0 0 0 0 0 0 0 0 0 0 0 0 0 0 0 127 0"/><feOffset dx="10" dy="10"/><feGaussianBlur stdDeviation="15"/><feColorMatrix values="0 0 0 0 0.682353 0 0 0 0 0.682353 0 0 0 0 0.752941 0 0 0 0.5 0"/><feBlend in2="BackgroundImageFix" result="effect1_dropShadow"/><feColorMatrix in="SourceAlpha" values="0 0 0 0 0 0 0 0 0 0 0 0 0 0 0 0 0 0 127 0"/><feOffset dx="-10" dy="-10"/><feGaussianBlur stdDeviation="12.5"/><feColorMatrix values="0 0 0 0 1 0 0 0 0 1 0 0 0 0 1 0 0 0 1 0"/><feBlend in2="effect1_dropShadow" result="effect2_dropShadow"/><feBlend in="SourceGraphic" in2="effect2_dropShadow" result="shape"/></filter></defs></svg><svg fill="none" viewBox="0 0 403 511" id="graphFormRightBlack" xmlns="http://www.w3.org/2000/svg"><g filter="url(#ifilter0_dd)"><path fill-rule="evenodd" clip-rule="evenodd" d="M355.564-163.278c65.53-5.509 138.67.374 187.175 44.779C589.914-75.312 576.176.303 599.361 59.911c25.35 65.174 107.609 119.87 85.159 186.099-22.515 66.419-123.067 57.237-181.029 96.719-55.124 37.548-81.286 124.612-147.927 127.352-66.414 2.731-104.139-74.562-157.038-114.811-51.271-39.011-120.41-58.78-147.767-117.108-28.742-61.283-26.574-135.813-.066-198.095 25.392-59.659 85.305-92.93 139.245-128.907 51.618-34.429 103.797-69.24 165.626-74.438z" fill="#252525"/></g><g filter="url(#ifilter1_dd)"><path fill-rule="evenodd" clip-rule="evenodd" d="M349.056-113.598c53.352-4.484 112.898.304 152.388 36.449 38.408 35.153 27.222 96.702 46.099 145.222 20.639 53.05 87.609 97.571 69.331 151.48-18.33 54.064-100.194 46.591-147.384 78.728-44.878 30.563-66.178 101.431-120.434 103.662-54.071 2.223-84.784-60.692-127.851-93.454-41.742-31.754-98.032-47.845-120.304-95.323-23.4-49.883-21.635-110.55-.054-161.246 20.673-48.56 69.45-75.642 113.365-104.927 42.025-28.024 84.507-56.36 134.844-60.591z" fill="#242424"/></g><g filter="url(#ifilter2_dd)"><path fill-rule="evenodd" clip-rule="evenodd" d="M370.21-71.91c41.506-3.487 87.832.236 118.555 28.341 29.881 27.335 21.179 75.192 35.864 112.92 16.057 41.249 68.159 75.868 53.939 117.785-14.26 42.038-77.949 36.227-114.662 61.216-34.915 23.765-51.486 78.869-93.696 80.603-42.067 1.729-65.961-47.191-99.467-72.666-32.475-24.691-76.267-37.202-93.594-74.12-18.205-38.787-16.832-85.959-.042-125.378 16.083-37.76 54.031-58.817 88.196-81.588 32.695-21.79 65.745-43.823 104.907-47.113z" fill="#222"/></g><defs><filter id="ifilter0_dd" x="0" y="-205" width="723.359" height="715.151" filterUnits="userSpaceOnUse" color-interpolation-filters="sRGB"><feFlood flood-opacity="0" result="BackgroundImageFix"/><feColorMatrix in="SourceAlpha" values="0 0 0 0 0 0 0 0 0 0 0 0 0 0 0 0 0 0 127 0"/><feOffset dy="10"/><feGaussianBlur stdDeviation="15"/><feColorMatrix values="0 0 0 0 0 0 0 0 0 0 0 0 0 0 0 0 0 0 0.7 0"/><feBlend in2="BackgroundImageFix" result="effect1_dropShadow"/><feColorMatrix in="SourceAlpha" values="0 0 0 0 0 0 0 0 0 0 0 0 0 0 0 0 0 0 127 0"/><feOffset dx="5" dy="-10"/><feGaussianBlur stdDeviation="15"/><feColorMatrix values="0 0 0 0 0.25098 0 0 0 0 0.25098 0 0 0 0 0.25098 0 0 0 1 0"/><feBlend in2="effect1_dropShadow" result="effect2_dropShadow"/><feBlend in="SourceGraphic" in2="effect2_dropShadow" result="shape"/></filter><filter id="ifilter1_dd" x="54" y="-155" width="601" height="597" filterUnits="userSpaceOnUse" color-interpolation-filters="sRGB"><feFlood flood-opacity="0" result="BackgroundImageFix"/><feColorMatrix in="SourceAlpha" values="0 0 0 0 0 0 0 0 0 0 0 0 0 0 0 0 0 0 127 0"/><feOffset dy="10"/><feGaussianBlur stdDeviation="15"/><feColorMatrix values="0 0 0 0 0 0 0 0 0 0 0 0 0 0 0 0 0 0 0.7 0"/><feBlend in2="BackgroundImageFix" result="effect1_dropShadow"/><feColorMatrix in="SourceAlpha" values="0 0 0 0 0 0 0 0 0 0 0 0 0 0 0 0 0 0 127 0"/><feOffset dx="5" dy="-10"/><feGaussianBlur stdDeviation="15"/><feColorMatrix values="0 0 0 0 0.25098 0 0 0 0 0.25098 0 0 0 0 0.25098 0 0 0 1 0"/><feBlend in2="effect1_dropShadow" result="effect2_dropShadow"/><feBlend in="SourceGraphic" in2="effect2_dropShadow" result="shape"/></filter><filter id="ifilter2_dd" x="134" y="-113" width="482" height="482" filterUnits="userSpaceOnUse" color-interpolation-filters="sRGB"><feFlood flood-opacity="0" result="BackgroundImageFix"/><feColorMatrix in="SourceAlpha" values="0 0 0 0 0 0 0 0 0 0 0 0 0 0 0 0 0 0 127 0"/><feOffset dy="10"/><feGaussianBlur stdDeviation="15"/><feColorMatrix values="0 0 0 0 0 0 0 0 0 0 0 0 0 0 0 0 0 0 0.7 0"/><feBlend in2="BackgroundImageFix" result="effect1_dropShadow"/><feColorMatrix in="SourceAlpha" values="0 0 0 0 0 0 0 0 0 0 0 0 0 0 0 0 0 0 127 0"/><feOffset dx="5" dy="-10"/><feGaussianBlur stdDeviation="15"/><feColorMatrix values="0 0 0 0 0.25098 0 0 0 0 0.25098 0 0 0 0 0.25098 0 0 0 1 0"/><feBlend in2="effect1_dropShadow" result="effect2_dropShadow"/><feBlend in="SourceGraphic" in2="effect2_dropShadow" result="shape"/></filter></defs></svg><svg fill="none" viewBox="0 0 557 549" id="graphFormRightTwo" xmlns="http://www.w3.org/2000/svg"><g filter="url(#jfilter0_dd)"><path fill-rule="evenodd" clip-rule="evenodd" d="M243.695 291.568c-44.954 47.998-85.688 109.029-80.924 174.617 4.634 63.791 72.477 99.895 104.868 155.045 35.416 60.3 27.325 158.751 93.207 182.202 66.071 23.517 121.213-61.065 188.128-82.061 63.638-19.968 148.167 13.488 191.637-37.097 43.322-50.413 6.071-127.936 7.291-194.395 1.183-64.414 28.542-130.916-.258-188.544-30.26-60.548-90.079-105.059-155.38-122.879-62.55-17.068-125.801 9.308-187.473 29.321-59.017 19.151-118.682 38.505-161.096 83.791z" fill="#F0F0F3"/></g><g filter="url(#jfilter1_dd)"><path fill-rule="evenodd" clip-rule="evenodd" d="M290.707 330.266c-36.598 39.078-69.762 88.765-65.889 142.159 3.766 51.93 58.991 81.317 85.354 126.211 28.825 49.086 22.231 129.234 75.859 148.319 53.783 19.14 98.678-49.722 153.151-66.819 51.806-16.26 120.614 10.969 156.004-30.215 35.27-41.045 4.953-104.151 5.952-158.254.968-52.439 23.245-106.579-.196-153.491-24.628-49.288-73.319-85.519-126.475-100.02-50.918-13.891-102.409 7.587-152.614 23.884-48.044 15.596-96.616 31.356-131.146 68.226z" fill="#F4F4F6"/></g><g filter="url(#jfilter2_dd)"><path fill-rule="evenodd" clip-rule="evenodd" d="M333.322 382.888c-28.472 30.403-54.274 69.058-51.273 110.588 2.918 40.392 45.862 63.238 66.356 98.152 22.408 38.174 17.263 100.517 58.967 115.351 41.825 14.876 76.755-38.695 119.124-52.006 40.293-12.658 93.801 8.508 121.334-23.534 27.439-31.932 3.873-81.011 4.661-123.094.764-40.788 18.1-82.904-.121-119.389-19.143-38.332-57.004-66.504-98.342-77.772-39.597-10.794-79.648 5.923-118.697 18.609-37.368 12.141-75.146 24.41-102.009 53.095z" fill="#F9F9FA"/></g><defs><filter id="jfilter0_dd" x=".998" y=".072" width="981.529" height="985.348" filterUnits="userSpaceOnUse" color-interpolation-filters="sRGB"><feFlood flood-opacity="0" result="BackgroundImageFix"/><feColorMatrix in="SourceAlpha" values="0 0 0 0 0 0 0 0 0 0 0 0 0 0 0 0 0 0 127 0"/><feOffset dx="10" dy="10"/><feGaussianBlur stdDeviation="15"/><feColorMatrix values="0 0 0 0 0.682353 0 0 0 0 0.682353 0 0 0 0 0.752941 0 0 0 0.5 0"/><feBlend in2="BackgroundImageFix" result="effect1_dropShadow"/><feColorMatrix in="SourceAlpha" values="0 0 0 0 0 0 0 0 0 0 0 0 0 0 0 0 0 0 127 0"/><feOffset dx="-10" dy="-10"/><feGaussianBlur stdDeviation="12.5"/><feColorMatrix values="0 0 0 0 1 0 0 0 0 1 0 0 0 0 1 0 0 0 1 0"/><feBlend in2="effect1_dropShadow" result="effect2_dropShadow"/><feBlend in="SourceGraphic" in2="effect2_dropShadow" result="shape"/></filter><filter id="jfilter1_dd" x="86.612" y="86.441" width="812.964" height="816.09" filterUnits="userSpaceOnUse" color-interpolation-filters="sRGB"><feFlood flood-opacity="0" result="BackgroundImageFix"/><feColorMatrix in="SourceAlpha" values="0 0 0 0 0 0 0 0 0 0 0 0 0 0 0 0 0 0 127 0"/><feOffset dx="10" dy="10"/><feGaussianBlur stdDeviation="15"/><feColorMatrix values="0 0 0 0 0.682353 0 0 0 0 0.682353 0 0 0 0 0.752941 0 0 0 0.5 0"/><feBlend in2="BackgroundImageFix" result="effect1_dropShadow"/><feColorMatrix in="SourceAlpha" values="0 0 0 0 0 0 0 0 0 0 0 0 0 0 0 0 0 0 127 0"/><feOffset dx="-10" dy="-10"/><feGaussianBlur stdDeviation="12.5"/><feColorMatrix values="0 0 0 0 1 0 0 0 0 1 0 0 0 0 1 0 0 0 1 0"/><feBlend in2="effect1_dropShadow" result="effect2_dropShadow"/><feBlend in="SourceGraphic" in2="effect2_dropShadow" result="shape"/></filter><filter id="jfilter2_dd" x="166.769" y="185.426" width="648.954" height="651.422" filterUnits="userSpaceOnUse" color-interpolation-filters="sRGB"><feFlood flood-opacity="0" result="BackgroundImageFix"/><feColorMatrix in="SourceAlpha" values="0 0 0 0 0 0 0 0 0 0 0 0 0 0 0 0 0 0 127 0"/><feOffset dx="10" dy="10"/><feGaussianBlur stdDeviation="15"/><feColorMatrix values="0 0 0 0 0.682353 0 0 0 0 0.682353 0 0 0 0 0.752941 0 0 0 0.5 0"/><feBlend in2="BackgroundImageFix" result="effect1_dropShadow"/><feColorMatrix in="SourceAlpha" values="0 0 0 0 0 0 0 0 0 0 0 0 0 0 0 0 0 0 127 0"/><feOffset dx="-10" dy="-10"/><feGaussianBlur stdDeviation="12.5"/><feColorMatrix values="0 0 0 0 1 0 0 0 0 1 0 0 0 0 1 0 0 0 1 0"/><feBlend in2="effect1_dropShadow" result="effect2_dropShadow"/><feBlend in="SourceGraphic" in2="effect2_dropShadow" result="shape"/></filter></defs></svg><svg fill="none" viewBox="0 0 552 554" id="graphFormRightTwoBlack" xmlns="http://www.w3.org/2000/svg"><g filter="url(#kfilter0_dd)"><path fill-rule="evenodd" clip-rule="evenodd" d="M238.695 296.569c-44.954 47.997-85.688 109.028-80.924 174.617 4.634 63.79 72.477 99.895 104.868 155.044 35.416 60.3 27.325 158.751 93.207 182.202 66.071 23.518 121.213-61.065 188.128-82.061 63.638-19.967 148.167 13.489 191.637-37.097 43.322-50.413 6.071-127.935 7.291-194.395 1.183-64.414 28.542-130.915-.258-188.544-30.26-60.548-90.079-105.059-155.38-122.878-62.55-17.069-125.801 9.307-187.473 29.32-59.017 19.151-118.682 38.505-161.096 83.792z" fill="#252525"/></g><g filter="url(#kfilter1_dd)"><path fill-rule="evenodd" clip-rule="evenodd" d="M285.707 335.267c-36.598 39.077-69.762 88.764-65.889 142.159 3.766 51.93 58.991 81.316 85.354 126.21 28.825 49.086 22.231 129.234 75.859 148.319 53.783 19.141 98.678-49.721 153.151-66.819 51.806-16.26 120.614 10.969 156.004-30.215 35.27-41.044 4.953-104.151 5.952-158.254.968-52.438 23.245-106.578-.196-153.491-24.628-49.288-73.319-85.519-126.475-100.02-50.918-13.89-102.409 7.588-152.614 23.884-48.044 15.596-96.616 31.357-131.146 68.227z" fill="#242424"/></g><g filter="url(#kfilter2_dd)"><path fill-rule="evenodd" clip-rule="evenodd" d="M328.322 387.888c-28.472 30.403-54.274 69.058-51.273 110.588 2.918 40.392 45.862 63.238 66.356 98.152 22.408 38.174 17.263 100.517 58.967 115.351 41.825 14.876 76.755-38.695 119.124-52.005 40.293-12.659 93.801 8.507 121.334-23.534 27.439-31.933 3.873-81.012 4.661-123.095.764-40.788 18.1-82.904-.121-119.389-19.143-38.332-57.004-66.503-98.342-77.772-39.597-10.793-79.648 5.923-118.697 18.609-37.368 12.141-75.146 24.41-102.009 53.095z" fill="#222"/></g><defs><filter id="kfilter0_dd" x=".998" y=".072" width="971.529" height="990.348" filterUnits="userSpaceOnUse" color-interpolation-filters="sRGB"><feFlood flood-opacity="0" result="BackgroundImageFix"/><feColorMatrix in="SourceAlpha" values="0 0 0 0 0 0 0 0 0 0 0 0 0 0 0 0 0 0 127 0"/><feOffset dy="10"/><feGaussianBlur stdDeviation="15"/><feColorMatrix values="0 0 0 0 0.25098 0 0 0 0 0.25098 0 0 0 0 0.25098 0 0 0 0.7 0"/><feBlend in2="BackgroundImageFix" result="effect1_dropShadow"/><feColorMatrix in="SourceAlpha" values="0 0 0 0 0 0 0 0 0 0 0 0 0 0 0 0 0 0 127 0"/><feOffset dx="5" dy="-10"/><feGaussianBlur stdDeviation="15"/><feColorMatrix values="0 0 0 0 0 0 0 0 0 0 0 0 0 0 0 0 0 0 0.6 0"/><feBlend in2="effect1_dropShadow" result="effect2_dropShadow"/><feBlend in="SourceGraphic" in2="effect2_dropShadow" result="shape"/></filter><filter id="kfilter1_dd" x="86.612" y="86.441" width="802.964" height="821.09" filterUnits="userSpaceOnUse" color-interpolation-filters="sRGB"><feFlood flood-opacity="0" result="BackgroundImageFix"/><feColorMatrix in="SourceAlpha" values="0 0 0 0 0 0 0 0 0 0 0 0 0 0 0 0 0 0 127 0"/><feOffset dy="10"/><feGaussianBlur stdDeviation="15"/><feColorMatrix values="0 0 0 0 0.25098 0 0 0 0 0.25098 0 0 0 0 0.25098 0 0 0 0.7 0"/><feBlend in2="BackgroundImageFix" result="effect1_dropShadow"/><feColorMatrix in="SourceAlpha" values="0 0 0 0 0 0 0 0 0 0 0 0 0 0 0 0 0 0 127 0"/><feOffset dx="5" dy="-10"/><feGaussianBlur stdDeviation="15"/><feColorMatrix values="0 0 0 0 0 0 0 0 0 0 0 0 0 0 0 0 0 0 0.6 0"/><feBlend in2="effect1_dropShadow" result="effect2_dropShadow"/><feBlend in="SourceGraphic" in2="effect2_dropShadow" result="shape"/></filter><filter id="kfilter2_dd" x="166.769" y="185.426" width="638.954" height="656.422" filterUnits="userSpaceOnUse" color-interpolation-filters="sRGB"><feFlood flood-opacity="0" result="BackgroundImageFix"/><feColorMatrix in="SourceAlpha" values="0 0 0 0 0 0 0 0 0 0 0 0 0 0 0 0 0 0 127 0"/><feOffset dy="10"/><feGaussianBlur stdDeviation="15"/><feColorMatrix values="0 0 0 0 0.25098 0 0 0 0 0.25098 0 0 0 0 0.25098 0 0 0 0.7 0"/><feBlend in2="BackgroundImageFix" result="effect1_dropShadow"/><feColorMatrix in="SourceAlpha" values="0 0 0 0 0 0 0 0 0 0 0 0 0 0 0 0 0 0 127 0"/><feOffset dx="5" dy="-10"/><feGaussianBlur stdDeviation="15"/><feColorMatrix values="0 0 0 0 0 0 0 0 0 0 0 0 0 0 0 0 0 0 0.6 0"/><feBlend in2="effect1_dropShadow" result="effect2_dropShadow"/><feBlend in="SourceGraphic" in2="effect2_dropShadow" result="shape"/></filter></defs></svg><svg fill="none" viewBox="0 0 185 185" id="it2b-circle-i" xmlns="http://www.w3.org/2000/svg"><g filter="url(#lfilter0_dd)"><circle cx="95" cy="95" r="50" fill="#F0F0F3"/></g><defs><filter id="lfilter0_dd" x="0" y="0" width="185" height="185" filterUnits="userSpaceOnUse" color-interpolation-filters="sRGB"><feFlood flood-opacity="0" result="BackgroundImageFix"/><feColorMatrix in="SourceAlpha" values="0 0 0 0 0 0 0 0 0 0 0 0 0 0 0 0 0 0 127 0"/><feOffset dx="10" dy="10"/><feGaussianBlur stdDeviation="15"/><feColorMatrix values="0 0 0 0 0.682353 0 0 0 0 0.682353 0 0 0 0 0.752941 0 0 0 0.4 0"/><feBlend in2="BackgroundImageFix" result="effect1_dropShadow"/><feColorMatrix in="SourceAlpha" values="0 0 0 0 0 0 0 0 0 0 0 0 0 0 0 0 0 0 127 0"/><feOffset dx="-10" dy="-10"/><feGaussianBlur stdDeviation="17.5"/><feColorMatrix values="0 0 0 0 1 0 0 0 0 1 0 0 0 0 1 0 0 0 0.96 0"/><feBlend in2="effect1_dropShadow" result="effect2_dropShadow"/><feBlend in="SourceGraphic" in2="effect2_dropShadow" result="shape"/></filter></defs></svg><svg fill="none" viewBox="0 0 180 180" id="it2b-circle-i-black" xmlns="http://www.w3.org/2000/svg"><g filter="url(#mfilter0_dd)"><circle cx="90" cy="90" r="50" fill="#252525"/></g><defs><filter id="mfilter0_dd" x="0" y="0" width="180" height="180" filterUnits="userSpaceOnUse" color-interpolation-filters="sRGB"><feFlood flood-opacity="0" result="BackgroundImageFix"/><feColorMatrix in="SourceAlpha" values="0 0 0 0 0 0 0 0 0 0 0 0 0 0 0 0 0 0 127 0"/><feOffset dx="10" dy="10"/><feGaussianBlur stdDeviation="15"/><feColorMatrix values="0 0 0 0 0 0 0 0 0 0 0 0 0 0 0 0 0 0 1 0"/><feBlend in2="BackgroundImageFix" result="effect1_dropShadow"/><feColorMatrix in="SourceAlpha" values="0 0 0 0 0 0 0 0 0 0 0 0 0 0 0 0 0 0 127 0"/><feOffset dx="-10" dy="-10"/><feGaussianBlur stdDeviation="15"/><feColorMatrix values="0 0 0 0 0.219608 0 0 0 0 0.219608 0 0 0 0 0.219608 0 0 0 0.7 0"/><feBlend in2="effect1_dropShadow" result="effect2_dropShadow"/><feBlend in="SourceGraphic" in2="effect2_dropShadow" result="shape"/></filter></defs></svg><svg viewBox="0 0 578 286" id="logo" xmlns="http://www.w3.org/2000/svg"><g transform="translate(2 2)" fill="none" fill-rule="evenodd"><ellipse stroke="#D40E31" stroke-width="5" cx="287.02" cy="141.05" rx="286.22" ry="140.45"/><path fill="#D40E31" fill-rule="nonzero" d="M344.4 158.94l9.8-30.73-14.17-16.58-87.29.03-16.08 12.48-4.02 12.61 34.65.01 4.41-13.86h50.08l-7.82 24.71-84.92-.1-10.78 33.68h119.01l3.85-11.96-84.15-.15 3.23-10.11zM117.51 111.69l-3.5 10.99 35.06-.1 3.68-10.88zM144.13 137.28h-34.68l-14.49 43.97 35.19-.12zM222.84 136.75l4.41-13.85h-33.8l6.97-21.7h-35.04l-21.31 66.81 13.18 13.04 51.38.21 3.79-11.88h-34.07l10.58-32.6zM479.27 137.28l-13.58-14.36-53.58-.02-4.51 14.12 36.27-.02-.42 1.34h-.02l-3.15 9.32-6.68 20.53-47.29 1.16 21.85-68.5-36.29.26-25.37 79.98 118.82-.08z"/></g></svg><svg fill="none" viewBox="0 0 916 404" id="service-headline" xmlns="http://www.w3.org/2000/svg"><path opacity=".9" stroke="url(#opaint0_radial)" d="M238.5 0v404"/><path opacity=".9" stroke="url(#opaint1_radial)" stroke-dasharray="2 2" d="M295.5 0v404"/><path opacity=".9" stroke="url(#opaint2_radial)" d="M249 147.5h667"/><path opacity=".9" d="M293.28 147.6l.661.354.592-1.104h-1.253v.75zm-20.88 38.952l-.661-.354-.002.003.663.351zm-8.136 9.504l-.418-.623-.005.003.423.62zm-19.368 1.368l-.714-.23-.216.67.655.258.275-.698zm3.384-10.512l.211-.72-.701-.205-.224.695.714.23zm8.712-.072l-.369-.653-.006.004-.007.003.382.646zm3.024-2.952l.621.421.255-.377-.216-.4-.66.356zM240.432 147.6v-.75h-1.257l.597 1.106.66-.356zm15.048 0l.676-.326-.205-.424h-.471v.75zm11.736 24.336l-.676.326.664 1.375.683-1.366-.671-.335zm12.168-24.336v-.75h-.464l-.207.415.671.335zm13.235-.354l-20.88 38.952 1.322.708 20.88-38.952-1.322-.708zm-20.882 38.955c-2.163 4.091-4.798 7.155-7.891 9.232l.836 1.246c3.339-2.243 6.128-5.515 8.381-9.776l-1.326-.702zm-7.896 9.235c-3.044 2.076-6.378 3.11-10.017 3.11v1.5c3.945 0 7.571-1.126 10.863-3.37l-.846-1.24zm-10.017 3.11c-2.671 0-5.554-.599-8.653-1.82l-.55 1.396c3.237 1.275 6.306 1.924 9.203 1.924v-1.5zm-8.214-.892l3.384-10.512-1.428-.46-3.384 10.512 1.428.46zm2.459-10.022c2.008.587 3.763.894 5.251.894v-1.5c-1.296 0-2.901-.269-4.829-.834l-.422 1.44zm5.251.894c1.508 0 2.867-.339 4.054-1.04l-.764-1.292c-.925.547-2.014.832-3.29.832v1.5zm4.041-1.033c1.229-.695 2.316-1.77 3.276-3.184l-1.242-.842c-.864 1.274-1.793 2.167-2.772 2.72l.738 1.306zm3.315-3.961l-19.584-36.288-1.32.712 19.584 36.288 1.32-.712zm-20.244-35.182h15.048v-1.5h-15.048v1.5zm14.372-.424l11.736 24.336 1.352-.652-11.736-24.336-1.352.652zm13.083 24.345l12.168-24.336-1.342-.67-12.168 24.336 1.342.67zm11.497-23.921h13.896v-1.5h-13.896v1.5zm30.582 47.346l-.357.66.01.005.347-.665zm-9.864-9.36l-.642.387.642-.387zm0-27.072l-.642-.387.642.387zm9.864-9.288l.351.663.002-.001-.353-.662zm26.712-.936l-.303.686.303-.686zm9.216 7.056l.503.556.523-.472-.439-.551-.587.467zm-9.072 8.208l-.577.479.5.603.58-.526-.503-.556zm-19.224-4.104l-.364-.656-.007.004.371.652zm-4.968 5.112l-.659-.358-.003.005.662.353zm0 15.048l-.665.347.005.009.004.008.656-.364zm4.968 5.04l-.371.652.007.004.364-.656zm19.224-4.104l.503-.556-.58-.526-.5.603.577.479zm9.072 8.208l.587.467.439-.551-.523-.472-.503.556zm-9.216 7.056l.303.686-.303-.686zm-12.456 1.698c-5.172 0-9.803-1.081-13.909-3.227l-.694 1.33c4.342 2.27 9.215 3.397 14.603 3.397v-1.5zm-13.9-3.222c-4.06-2.193-7.248-5.22-9.578-9.087l-1.284.774c2.47 4.101 5.858 7.314 10.15 9.633l.712-1.32zm-9.578-9.087c-2.323-3.857-3.492-8.234-3.492-13.149h-1.5c0 5.165 1.231 9.812 3.708 13.923l1.284-.774zm-3.492-13.149c0-4.915 1.169-9.292 3.492-13.149l-1.284-.774c-2.477 4.111-3.708 8.758-3.708 13.923h1.5zm3.492-13.149c2.329-3.865 5.515-6.867 9.573-9.012l-.702-1.326c-4.294 2.271-7.684 5.461-10.155 9.564l1.284.774zm9.575-9.013c4.105-2.193 8.733-3.296 13.903-3.296v-1.5c-5.39 0-10.266 1.153-14.609 3.472l.706 1.324zm13.903-3.296c4.518 0 8.565.8 12.153 2.384l.606-1.372c-3.804-1.68-8.061-2.512-12.759-2.512v1.5zm12.153 2.384c3.589 1.585 6.562 3.863 8.932 6.837l1.174-.934c-2.526-3.17-5.697-5.596-9.5-7.275l-.606 1.372zm9.016 5.814l-9.072 8.208 1.006 1.112 9.072-8.208-1.006-1.112zm-7.992 8.285c-3.39-4.088-7.554-6.175-12.457-6.175v1.5c4.409 0 8.165 1.849 11.303 5.633l1.154-.958zm-12.457-6.175c-2.849 0-5.425.626-7.708 1.894l.728 1.312c2.037-1.132 4.357-1.706 6.98-1.706v-1.5zm-7.715 1.898c-2.238 1.272-3.992 3.079-5.256 5.406l1.318.716c1.136-2.089 2.694-3.69 4.68-4.818l-.742-1.304zm-5.259 5.411c-1.218 2.285-1.816 4.905-1.816 7.841h1.5c0-2.728.554-5.1 1.64-7.135l-1.324-.706zm-1.816 7.841c0 2.936.598 5.578 1.813 7.907l1.33-.694c-1.089-2.087-1.643-4.485-1.643-7.213h-1.5zm1.822 7.924c1.266 2.278 3.02 4.059 5.253 5.328l.742-1.304c-1.991-1.131-3.549-2.71-4.683-4.752l-1.312.728zm5.26 5.332c2.283 1.268 4.859 1.894 7.708 1.894v-1.5c-2.623 0-4.943-.574-6.98-1.706l-.728 1.312zm7.708 1.894c4.903 0 9.067-2.087 12.457-6.175l-1.154-.958c-3.138 3.784-6.894 5.633-11.303 5.633v1.5zm11.377-6.098l9.072 8.208 1.006-1.112-9.072-8.208-1.006 1.112zm8.988 7.185c-2.37 2.974-5.343 5.252-8.932 6.837l.606 1.372c3.803-1.679 6.974-4.105 9.5-7.275l-1.174-.934zm-8.932 6.837c-3.588 1.584-7.635 2.384-12.153 2.384v1.5c4.698 0 8.955-.832 12.759-2.512l-.606-1.372zm64.3-48.274h.75v-.75h-.75v.75zm0 50.4v.75h.75V198h-.75zm-14.04 0h-.75v.75h.75V198zm0-39.096h.75v-.75h-.75v.75zm-14.472 0v-.75h-.724l-.026.724.75.026zm-.288 8.208l-.75-.026v.001l.75.025zm-1.8 17.568l-.734-.156-.001.007.735.149zm-4.752 10.512l.551.508.005-.005-.556-.503zM349.267 198l-.749-.051-.042.632.616.148.175-.729zm.792-11.664l.168-.731-.857-.198-.06.878.749.051zm8.424-8.208l.74.121v-.002l-.74-.119zm.864-10.44l-.75-.027v.002l.75.025zm.72-20.088v-.75h-.724l-.026.723.75.027zm39.858 0V198h1.5v-50.4h-1.5zm.75 49.65h-14.04v1.5h14.04v-1.5zm-13.29.75v-39.096h-1.5V198h1.5zm-.75-39.846h-14.472v1.5h14.472v-1.5zm-15.222.724l-.288 8.208 1.499.052.288-8.208-1.499-.052zm-.288 8.209c-.239 7.177-.837 12.985-1.784 17.437l1.467.312c.973-4.572 1.576-10.477 1.816-17.699l-1.499-.05zm-1.785 17.444c-.895 4.427-2.435 7.792-4.574 10.158l1.113 1.006c2.374-2.626 4.002-6.269 4.931-10.866l-1.47-.298zm-4.569 10.153c-2.081 2.258-5.052 3.43-9.024 3.43v1.5c4.283 0 7.696-1.276 10.127-3.914l-1.103-1.016zm-9.024 3.43c-1.847 0-3.947-.277-6.305-.843l-.35 1.458c2.442.586 4.662.885 6.655.885v-1.5zm-5.732-.063l.792-11.664-1.497-.102-.792 11.664 1.497.102zm-.125-10.984a9.393 9.393 0 002.113.235v-1.5c-.618 0-1.21-.066-1.776-.197l-.337 1.462zm2.113.235c2.108 0 3.786-.857 4.941-2.561l-1.242-.842c-.862 1.272-2.064 1.903-3.699 1.903v1.5zm4.941-2.561c1.091-1.611 1.837-3.792 2.279-6.492l-1.48-.242c-.423 2.58-1.117 4.527-2.041 5.892l1.242.842zm2.279-6.494c.439-2.731.729-6.246.873-10.534l-1.499-.05c-.143 4.256-.43 7.701-.855 10.346l1.481.238zm.873-10.532l.72-20.088-1.499-.054-.72 20.088 1.499.054zm-.029-19.365h40.608v-1.5h-40.608v1.5zm101.789-.75l.661.354.592-1.104h-1.253v.75zm-20.88 38.952l-.661-.354-.002.003.663.351zm-8.136 9.504l-.419-.623-.004.003.423.62zm-19.368 1.368l-.714-.23-.216.67.655.258.275-.698zm3.384-10.512l.21-.72-.701-.205-.223.695.714.23zm8.712-.072l-.369-.653-.007.004-.006.003.382.646zm3.024-2.952l.62.421.256-.377-.216-.4-.66.356zM409.008 147.6v-.75h-1.257l.597 1.106.66-.356zm15.048 0l.675-.326-.204-.424h-.471v.75zm11.736 24.336l-.676.326.663 1.375.683-1.366-.67-.335zM447.96 147.6v-.75h-.464l-.207.415.671.335zm13.235-.354l-20.88 38.952 1.322.708 20.88-38.952-1.322-.708zm-20.882 38.955c-2.163 4.091-4.799 7.155-7.892 9.232l.837 1.246c3.339-2.243 6.127-5.515 8.381-9.776l-1.326-.702zm-7.896 9.235c-3.045 2.076-6.378 3.11-10.017 3.11v1.5c3.944 0 7.571-1.126 10.862-3.37l-.845-1.24zm-10.017 3.11c-2.672 0-5.554-.599-8.653-1.82l-.55 1.396c3.236 1.275 6.306 1.924 9.203 1.924v-1.5zm-8.214-.892l3.384-10.512-1.428-.46-3.384 10.512 1.428.46zm2.459-10.022c2.007.587 3.762.894 5.251.894v-1.5c-1.296 0-2.901-.269-4.83-.834l-.421 1.44zm5.251.894c1.507 0 2.867-.339 4.053-1.04l-.763-1.292c-.925.547-2.014.832-3.29.832v1.5zm4.041-1.033c1.228-.695 2.316-1.77 3.275-3.184l-1.241-.842c-.865 1.274-1.793 2.167-2.772 2.72l.738 1.306zm3.315-3.961l-19.584-36.288-1.32.712 19.584 36.288 1.32-.712zm-20.244-35.182h15.048v-1.5h-15.048v1.5zm14.372-.424l11.736 24.336 1.351-.652-11.736-24.336-1.351.652zm13.082 24.345l12.168-24.336-1.341-.67-12.168 24.336 1.341.67zm11.498-23.921h13.896v-1.5H447.96v1.5zm57.853 10.554v.75h.745l.005-.745-.75-.005zm-22.824 0v-.75h-.75v.75h.75zm0 39.096v.75h.75V198h-.75zm-14.04 0h-.75v.75h.75V198zm0-50.4v-.75h-.75v.75h.75zm36.936 0l.75.005.005-.755h-.755v.75zm-.072 10.554h-22.824v1.5h22.824v-1.5zm-23.574.75V198h1.5v-39.096h-1.5zm.75 38.346h-14.04v1.5h14.04v-1.5zm-13.29.75v-50.4h-1.5V198h1.5zm-.75-49.65h36.936v-1.5h-36.936v1.5zm36.186-.755l-.072 11.304 1.5.01.072-11.304-1.5-.01zm9.646.005v-.75h-.75v.75h.75zm14.04 0h.75v-.75h-.75v.75zm0 29.592h-.75v2.371l1.364-1.94-.614-.431zm20.808-29.592v-.75h-.389l-.224.319.613.431zm13.392 0h.75v-.75h-.75v.75zm0 50.4v.75h.75V198h-.75zm-14.04 0h-.75v.75h.75V198zm0-29.52h.75v-2.373l-1.363 1.942.613.431zM528.245 198v.75h.39l.224-.319-.614-.431zm-13.464 0h-.75v.75h.75V198zm0-49.65h14.04v-1.5h-14.04v1.5zm13.29-.75v29.592h1.5V147.6h-1.5zm1.364 30.023l20.808-29.592-1.227-.862-20.808 29.592 1.227.862zm20.194-29.273h13.392v-1.5h-13.392v1.5zm12.642-.75V198h1.5v-50.4h-1.5zm.75 49.65h-14.04v1.5h14.04v-1.5zm-13.29.75v-29.52h-1.5V198h1.5zm-1.363-29.951l-20.736 29.52 1.227.862 20.736-29.52-1.227-.862zm-20.123 29.201h-13.464v1.5h13.464v-1.5zm-12.714.75v-50.4h-1.5V198h1.5z" fill="#C3C3C5" fill-opacity=".9"/><path opacity=".9" stroke="url(#opaint3_radial)" d="M-3 198.5h774"/><defs><radialGradient id="opaint0_radial" cx="0" cy="0" r="1" gradientUnits="userSpaceOnUse" gradientTransform="matrix(-64.00029 -7.76982 3202.17588 -26376.43425 238 209.77)"><stop offset=".401" stop-color="#C3C3C5"/><stop offset="1" stop-color="#fff" stop-opacity="0"/></radialGradient><radialGradient id="opaint1_radial" cx="0" cy="0" r="1" gradientUnits="userSpaceOnUse" gradientTransform="matrix(-64.00029 -7.76982 3202.17588 -26376.43425 295 209.77)"><stop offset=".401" stop-color="#C3C3C5"/><stop offset="1" stop-color="#fff" stop-opacity="0"/></radialGradient><radialGradient id="opaint2_radial" cx="0" cy="0" r="1" gradientUnits="userSpaceOnUse" gradientTransform="rotate(101.333 237.023 317.926) scale(65.2731 43327.4)"><stop offset=".401" stop-color="#C3C3C5"/><stop offset="1" stop-color="#fff" stop-opacity="0"/></radialGradient><radialGradient id="opaint3_radial" cx="0" cy="0" r="1" gradientUnits="userSpaceOnUse" gradientTransform="matrix(-14.8851 64.00032 -48646.41753 -11314.11102 398.885 199)"><stop stop-color="#AEAEC0"/><stop offset="1" stop-color="#fff" stop-opacity="0"/></radialGradient></defs></svg><svg viewBox="0 0 0 0" id="sprites" xmlns="http://www.w3.org/2000/svg"/><svg fill="none" viewBox="0 0 226 226" id="text-show-portfolio" xmlns="http://www.w3.org/2000/svg"><path d="M36.28 122.22l9.347-1.513.204 1.262-8.227 1.331.949 5.864 8.227-1.332.204 1.262-9.346 1.513-1.358-8.387zM45.754 107.723c-.088.907-.37 1.706-.847 2.395a4.6 4.6 0 01-1.886 1.554c-.77.347-1.614.477-2.533.388-.92-.089-1.724-.378-2.412-.867a4.458 4.458 0 01-1.536-1.884c-.335-.768-.46-1.606-.372-2.514.088-.907.37-1.706.847-2.395a4.34 4.34 0 011.867-1.538c.769-.347 1.613-.477 2.533-.388.92.089 1.724.378 2.412.867a4.46 4.46 0 011.555 1.868c.336.768.46 1.606.372 2.514zm-1.13-.11c.066-.669-.026-1.28-.274-1.835a3.244 3.244 0 00-1.186-1.38c-.533-.353-1.157-.564-1.874-.634-.717-.069-1.37.019-1.96.263-.59.244-1.061.621-1.412 1.129-.361.496-.574 1.078-.639 1.747a3.564 3.564 0 00.291 1.854 3.274 3.274 0 001.169 1.379c.532.353 1.157.564 1.873.634.717.069 1.37-.019 1.96-.263a3.406 3.406 0 001.43-1.127c.35-.509.558-1.098.623-1.767zM45.106 90.576l-.718 2.037 3.973 1.4-.425 1.204-8.93-3.145.425-1.205 3.922 1.381.723-2.054-2.816-4.523.46-1.307 3.092 5.04 5.929-2.15-.502 1.427-5.133 1.895zM47.781 72.93c.67-1.039 1.447-1.666 2.33-1.882.872-.222 1.817-.004 2.835.653l4.93 3.184-.665 1.028-1.24-.8c.257.508.349 1.075.275 1.698-.068.614-.31 1.243-.727 1.888-.573.887-1.24 1.456-2.002 1.707-.762.25-1.491.151-2.187-.298-.675-.437-1.063-1.03-1.164-1.78-.094-.762.204-1.676.894-2.745l1.631-2.525-.484-.312c-.685-.443-1.328-.587-1.928-.432-.61.149-1.153.591-1.629 1.327a4.943 4.943 0 00-.68 1.617 4.233 4.233 0 00-.091 1.635l-1.114-.034a4.99 4.99 0 01.151-1.96 6.563 6.563 0 01.865-1.97zm6.999 5.056c.39-.605.59-1.212.597-1.821-.002-.616-.197-1.2-.584-1.75l-1.3-.84-1.612 2.496c-.879 1.36-.845 2.347.103 2.959.463.3.945.36 1.445.184.49-.184.94-.593 1.35-1.228zM63.199 61.542c.591-.356 1.15-.521 1.675-.496.535.017.994.223 1.378.62.384.396.589.883.614 1.46.033.57-.1 1.166-.397 1.79a6.414 6.414 0 01-1.3 1.736 7.18 7.18 0 01-1.649 1.196 5.341 5.341 0 01-1.854.57l-.354-.987a4.963 4.963 0 001.612-.509 5.825 5.825 0 001.441-1.021c.63-.61 1.03-1.223 1.2-1.84.172-.634.06-1.153-.332-1.558-.35-.362-.786-.483-1.305-.364-.528.11-1.076.441-1.645.992L61.12 64.26l-.652-.672 1.112-1.078c.508-.492.826-.984.952-1.474.118-.499.019-.912-.299-1.24-.35-.361-.803-.475-1.356-.34-.546.128-1.098.463-1.658 1.006-.733.71-1.277 1.597-1.633 2.66l-.948-.46c.401-1.207 1.037-2.233 1.907-3.076.517-.501 1.057-.874 1.621-1.12.565-.263 1.097-.37 1.597-.32.508.043.938.245 1.288.607.335.344.51.767.528 1.268.026.493-.1 1-.38 1.522zM72.29 48.91c1.058-.637 2.031-.86 2.918-.665.882.183 1.635.794 2.26 1.832l3.029 5.026-1.049.632-.761-1.264c.007.57-.16 1.119-.5 1.646-.33.521-.825.98-1.483 1.376-.904.545-1.754.763-2.548.653-.795-.11-1.406-.519-1.833-1.228-.415-.689-.503-1.392-.263-2.111.25-.725.919-1.416 2.008-2.072l2.575-1.551-.297-.494c-.421-.698-.935-1.11-1.543-1.235-.613-.134-1.295.024-2.046.476-.513.31-.954.695-1.322 1.154-.374.45-.64.925-.8 1.428l-.985-.52a4.99 4.99 0 01.997-1.694 6.563 6.563 0 011.642-1.389zm4.063 7.618c.617-.372 1.063-.83 1.338-1.373.268-.554.35-1.164.243-1.828L77.135 52l-2.543 1.533c-1.388.836-1.79 1.737-1.209 2.703.285.473.691.74 1.218.8.52.05 1.105-.119 1.752-.51zM91.985 41.576l-3.397 1.133 2.637 7.906-1.212.404-2.638-7.905-3.398 1.134-.359-1.076 8.008-2.672.36 1.076zM104.902 41.537c1.183-.109 2.105.062 2.767.513.673.45 1.059 1.158 1.158 2.125.102 1.003-.153 1.807-.767 2.413-.602.604-1.53.965-2.784 1.08l-3.798.37-.963-9.418 1.271-.13.337 3.295 2.779-.248zm.203 5.172c.873-.077 1.512-.317 1.917-.72.416-.417.587-.977.515-1.682-.07-.692-.344-1.183-.82-1.472-.475-.29-1.156-.395-2.04-.316l-2.457.215.428 4.19 2.457-.215zM137.611 42.229l-2.748 9.06-1.223-.37 2.418-7.976-5.684-1.724-2.419 7.976-1.223-.371 2.748-9.06 8.131 2.465zM152.392 49.448c.753.47 1.326 1.07 1.721 1.798.4.717.58 1.494.538 2.331-.043.837-.312 1.653-.808 2.446-.502.804-1.12 1.408-1.854 1.813a4.377 4.377 0 01-2.342.553c-.81-.04-1.597-.298-2.36-.775-.651-.407-1.158-.908-1.522-1.503a4.028 4.028 0 01-.538-1.992l-2.796 4.472-1.083-.678 6.869-10.99 1.038.65-.992 1.587a3.953 3.953 0 012.045-.42c.718.052 1.412.288 2.084.708zm-4.58 7.157c.56.35 1.148.54 1.765.572a3.245 3.245 0 001.765-.446c.563-.313 1.036-.775 1.418-1.385.381-.61.586-1.233.614-1.866a3.235 3.235 0 00-.372-1.782 3.525 3.525 0 00-1.278-1.351 3.57 3.57 0 00-1.79-.567 3.407 3.407 0 00-1.765.446c-.547.31-1.011.77-1.393 1.38-.381.61-.594 1.234-.639 1.871-.034.644.09 1.238.372 1.783.299.54.733.989 1.303 1.345zM160.089 68.105c-.625-.664-1.04-1.402-1.244-2.215a4.594 4.594 0 01.073-2.443c.245-.807.704-1.528 1.377-2.161s1.42-1.048 2.24-1.244a4.467 4.467 0 012.43.086c.799.253 1.511.712 2.136 1.376.625.664 1.04 1.402 1.245 2.215a4.35 4.35 0 01-.073 2.417c-.245.808-.704 1.528-1.377 2.162-.673.633-1.42 1.048-2.24 1.243a4.467 4.467 0 01-2.431-.06c-.799-.253-1.511-.712-2.136-1.376zm.826-.777c.461.489.981.823 1.561 1.002.598.18 1.205.185 1.821.017.616-.169 1.186-.5 1.711-.993.524-.494.889-1.043 1.094-1.648a3.122 3.122 0 00.079-1.806c-.134-.598-.432-1.142-.893-1.631a3.56 3.56 0 00-1.587-1.003 3.274 3.274 0 00-1.807-.029c-.616.168-1.186.499-1.711.993-.524.493-.889 1.042-1.094 1.647a3.421 3.421 0 00-.093 1.818 3.68 3.68 0 00.919 1.633zM175.885 83.102l-3.837-6.93c-.826.54-1.341 1.258-1.545 2.153-.193.889-.037 1.79.469 2.703.284.515.635.938 1.052 1.27.427.325.907.546 1.438.664l-.376 1.03a4.042 4.042 0 01-1.775-.827 5.26 5.26 0 01-1.349-1.619c-.471-.85-.711-1.705-.72-2.564a4.557 4.557 0 01.666-2.365c.437-.722 1.059-1.306 1.868-1.754.808-.448 1.628-.675 2.46-.684.838.003 1.605.21 2.299.62.7.422 1.262 1.016 1.686 1.783.424.766.627 1.553.607 2.36a4.321 4.321 0 01-.703 2.26c-.438.696-1.066 1.27-1.885 1.723l-.355.177zm1.375-5.988c-.441-.798-1.071-1.328-1.887-1.589-.801-.256-1.631-.194-2.49.186l3.252 5.873c.778-.527 1.268-1.203 1.47-2.028.218-.82.103-1.634-.345-2.442zM180.139 95.184l-.563-2.085-4.067 1.097-.332-1.234 9.141-2.466.333 1.234-4.015 1.083.567 2.103 4.882 2.132.361 1.338-5.402-2.402-3.669 5.129-.393-1.46 3.157-4.469zM186.868 114.577l-.155-3.579-8.326.361-.056-1.277 8.327-.361-.156-3.579 1.133-.049.366 8.434-1.133.05zM183.362 127.052c-.255 1.16-.699 1.993-1.332 2.498-.633.505-1.425.658-2.376.459-.987-.206-1.676-.694-2.067-1.462-.39-.768-.452-1.762-.185-2.981l.784-3.661 9.268 1.939-.262 1.25-3.242-.678-.588 2.636zm2.205 5.812l-.262 1.251-9.268-1.938.262-1.251 9.268 1.938zm-7.199-7.17c-.191.855-.156 1.537.106 2.045.27.523.752.857 1.445 1.002.681.142 1.232.03 1.652-.335.42-.366.726-.982.92-1.849l.525-2.336-4.122-.862-.526 2.335zM109.907 192.95l-1.331-.049.469-12.592 1.331.05-.469 12.591zM94.692 189.901l4.306 1.033-.268 1.12-9.907-2.376.268-1.121 4.306 1.033 2.67-11.132 1.296.311-2.67 11.132zM77.639 172.345l.522-1.027 7.878 4.005-.416.818-6.994 2.2c-.882.278-1.53.574-1.946.888a3.195 3.195 0 00-.973 1.121c-.337.663-.368 1.293-.093 1.891.259.603.811 1.119 1.656 1.549 1.316.668 2.55.77 3.701.306l.46 1.122c-.7.29-1.457.403-2.273.339-.826-.07-1.667-.322-2.523-.757-1.144-.582-1.91-1.314-2.295-2.197-.402-.878-.364-1.787.114-2.728a4.27 4.27 0 011.234-1.473c.528-.405 1.328-.772 2.398-1.103l5.728-1.814-6.178-3.14zM61.131 166.411c-.499-.685-.734-1.377-.707-2.075.01-.698.294-1.36.853-1.988.718-.807 1.572-1.163 2.564-1.067.975.096 2.045.662 3.21 1.699l4.33 3.853-8.376 9.413-4.06-3.613c-1.05-.934-1.674-1.866-1.872-2.798-.208-.94.03-1.795.717-2.566.463-.52.987-.848 1.574-.984.57-.136 1.16-.094 1.767.126zm1.609 8.13l3.04-3.416-3-2.668c-.761-.678-1.476-1.057-2.144-1.137-.676-.072-1.26.171-1.755.727-.495.555-.664 1.16-.507 1.814.15.663.605 1.333 1.367 2.011l2.999 2.669zm3.595-10.728c-.843-.75-1.607-1.173-2.293-1.269-.685-.096-1.3.161-1.842.77-1.045 1.175-.716 2.52.988 4.035l3.321 2.956 3.147-3.537-3.321-2.955z" fill="#636369"/><path d="M176.136 155c-12.154 19.519-30.31 28.198-41.136 31.826" stroke="#636369"/></svg></svg>