<svg width="290" height="628" viewBox="0 0 290 628" fill="none" xmlns="http://www.w3.org/2000/svg">
<g filter="url(#filter0_dd)">
<path fill-rule="evenodd" clip-rule="evenodd" d="M-57.3669 548.349C-107.044 544.869 -161.093 531.978 -192.236 493.107C-222.525 455.303 -203.466 400.291 -213.897 352.978C-225.301 301.247 -280.508 250.756 -256.019 203.781C-231.461 156.672 -157.282 175.214 -109.324 152.383C-63.7147 130.671 -34.03 68.531 16.1568 74.2127C66.1731 79.875 85.4308 142.114 120.344 178.384C154.182 213.537 203.626 236.359 217.326 283.198C231.72 332.41 221.446 387.953 194.38 431.501C168.453 473.216 119.757 491.17 75.2159 511.844C32.5921 531.627 -10.4959 551.632 -57.3669 548.349Z" fill="#F0F0F3"/>
</g>
<g filter="url(#filter1_dd)">
<path fill-rule="evenodd" clip-rule="evenodd" d="M-66.3921 455.773C-103.408 453.185 -143.68 443.575 -166.879 414.572C-189.441 386.364 -175.23 345.307 -182.994 310C-191.482 271.395 -232.61 233.725 -214.354 198.664C-196.046 163.503 -140.775 177.327 -105.036 160.28C-71.0464 144.069 -48.9158 97.689 -11.5205 101.92C25.7478 106.137 40.0862 152.581 66.0948 179.642C91.303 205.871 128.141 222.893 138.341 257.846C149.058 294.569 141.393 336.022 121.216 368.526C101.889 399.662 65.6007 413.07 32.4077 428.506C0.643279 443.278 -31.4671 458.215 -66.3921 455.773Z" fill="#F4F4F6"/>
</g>
<g filter="url(#filter2_dd)">
<path fill-rule="evenodd" clip-rule="evenodd" d="M-80.4212 396.502C-106.521 394.67 -134.919 387.901 -151.287 367.511C-167.206 347.68 -157.201 318.833 -162.688 294.019C-168.688 266.887 -197.7 240.399 -184.841 215.767C-171.945 191.065 -132.97 200.8 -107.778 188.834C-83.8186 177.454 -68.2321 144.87 -41.8641 147.857C-15.5855 150.834 -5.45858 183.478 12.8895 202.504C30.6729 220.945 56.6531 232.921 63.8579 257.488C71.4278 283.299 66.0383 312.426 51.8244 335.26C38.2092 357.133 12.6279 366.542 -10.77 377.377C-33.1608 387.746 -55.7955 398.231 -80.4212 396.502Z" fill="#F9F9FA"/>
</g>
<defs>
<filter id="filter0_dd" x="-336.604" y="0.541931" width="626.396" height="626.875" filterUnits="userSpaceOnUse" color-interpolation-filters="sRGB">
<feFlood flood-opacity="0" result="BackgroundImageFix"/>
<feColorMatrix in="SourceAlpha" type="matrix" values="0 0 0 0 0 0 0 0 0 0 0 0 0 0 0 0 0 0 127 0"/>
<feOffset dy="10"/>
<feGaussianBlur stdDeviation="15"/>
<feColorMatrix type="matrix" values="0 0 0 0 0.682353 0 0 0 0 0.682353 0 0 0 0 0.752941 0 0 0 0.4 0"/>
<feBlend mode="normal" in2="BackgroundImageFix" result="effect1_dropShadow"/>
<feColorMatrix in="SourceAlpha" type="matrix" values="0 0 0 0 0 0 0 0 0 0 0 0 0 0 0 0 0 0 127 0"/>
<feOffset dx="5" dy="-10"/>
<feGaussianBlur stdDeviation="12.5"/>
<feColorMatrix type="matrix" values="0 0 0 0 1 0 0 0 0 1 0 0 0 0 1 0 0 0 1 0"/>
<feBlend mode="normal" in2="effect1_dropShadow" result="effect2_dropShadow"/>
<feBlend mode="normal" in="SourceGraphic" in2="effect2_dropShadow" result="shape"/>
</filter>
<filter id="filter1_dd" x="-282.103" y="38.1058" width="482.118" height="486.779" filterUnits="userSpaceOnUse" color-interpolation-filters="sRGB">
<feFlood flood-opacity="0" result="BackgroundImageFix"/>
<feColorMatrix in="SourceAlpha" type="matrix" values="0 0 0 0 0 0 0 0 0 0 0 0 0 0 0 0 0 0 127 0"/>
<feOffset dy="10"/>
<feGaussianBlur stdDeviation="15"/>
<feColorMatrix type="matrix" values="0 0 0 0 0.682353 0 0 0 0 0.682353 0 0 0 0 0.752941 0 0 0 0.4 0"/>
<feBlend mode="normal" in2="BackgroundImageFix" result="effect1_dropShadow"/>
<feColorMatrix in="SourceAlpha" type="matrix" values="0 0 0 0 0 0 0 0 0 0 0 0 0 0 0 0 0 0 127 0"/>
<feOffset dx="5" dy="-10"/>
<feGaussianBlur stdDeviation="12.5"/>
<feColorMatrix type="matrix" values="0 0 0 0 1 0 0 0 0 1 0 0 0 0 1 0 0 0 1 0"/>
<feBlend mode="normal" in2="effect1_dropShadow" result="effect2_dropShadow"/>
<feBlend mode="normal" in="SourceGraphic" in2="effect2_dropShadow" result="shape"/>
</filter>
<filter id="filter2_dd" x="-241.372" y="92.5392" width="357.515" height="364.489" filterUnits="userSpaceOnUse" color-interpolation-filters="sRGB">
<feFlood flood-opacity="0" result="BackgroundImageFix"/>
<feColorMatrix in="SourceAlpha" type="matrix" values="0 0 0 0 0 0 0 0 0 0 0 0 0 0 0 0 0 0 127 0"/>
<feOffset dy="10"/>
<feGaussianBlur stdDeviation="15"/>
<feColorMatrix type="matrix" values="0 0 0 0 0.682353 0 0 0 0 0.682353 0 0 0 0 0.752941 0 0 0 0.4 0"/>
<feBlend mode="normal" in2="BackgroundImageFix" result="effect1_dropShadow"/>
<feColorMatrix in="SourceAlpha" type="matrix" values="0 0 0 0 0 0 0 0 0 0 0 0 0 0 0 0 0 0 127 0"/>
<feOffset dx="5" dy="-10"/>
<feGaussianBlur stdDeviation="12.5"/>
<feColorMatrix type="matrix" values="0 0 0 0 1 0 0 0 0 1 0 0 0 0 1 0 0 0 1 0"/>
<feBlend mode="normal" in2="effect1_dropShadow" result="effect2_dropShadow"/>
<feBlend mode="normal" in="SourceGraphic" in2="effect2_dropShadow" result="shape"/>
</filter>
</defs>
</svg>
