<svg width="408" height="511" viewBox="0 0 408 511" fill="none" xmlns="http://www.w3.org/2000/svg">
<g filter="url(#filter0_dd)">
<path fill-rule="evenodd" clip-rule="evenodd" d="M360.564 -163.278C426.094 -168.787 499.234 -162.904 547.739 -118.499C594.914 -75.3117 581.176 0.302811 604.361 59.9108C629.711 125.085 711.97 179.781 689.52 246.01C667.005 312.429 566.453 303.247 508.491 342.729C453.367 380.277 427.205 467.341 360.564 470.081C294.15 472.812 256.425 395.519 203.526 355.27C152.255 316.259 83.1158 296.49 55.7594 238.162C27.0173 176.879 29.1851 102.349 55.6934 40.0668C81.0852 -19.5918 140.998 -52.8625 194.938 -88.8398C246.556 -123.269 298.735 -158.08 360.564 -163.278Z" fill="#F0F0F3"/>
</g>
<g filter="url(#filter1_dd)">
<path fill-rule="evenodd" clip-rule="evenodd" d="M354.056 -113.598C407.408 -118.082 466.954 -113.294 506.444 -77.1493C544.852 -41.9956 533.666 19.5531 552.543 68.0727C573.182 121.123 640.152 165.644 621.874 219.553C603.544 273.617 521.68 266.144 474.49 298.281C429.612 328.844 408.312 399.712 354.056 401.943C299.985 404.166 269.272 341.251 226.205 308.489C184.463 276.735 128.173 260.644 105.901 213.166C82.5009 163.283 84.2658 102.616 105.847 51.9201C126.52 3.35928 175.297 -23.7224 219.212 -53.0072C261.237 -81.0315 303.719 -109.367 354.056 -113.598Z" fill="#F4F4F6"/>
</g>
<g filter="url(#filter2_dd)">
<path fill-rule="evenodd" clip-rule="evenodd" d="M375.21 -71.91C416.716 -75.3968 463.042 -71.6736 493.765 -43.5687C523.646 -16.2345 514.944 31.6235 529.629 69.3505C545.686 110.6 597.788 145.219 583.568 187.136C569.307 229.174 505.619 223.363 468.906 248.352C433.991 272.117 417.42 327.221 375.21 328.955C333.143 330.684 309.249 281.764 275.743 256.289C243.268 231.598 199.476 219.087 182.149 182.169C163.944 143.382 165.317 96.2102 182.107 56.7909C198.19 19.0318 236.138 -2.02594 270.303 -24.7967C302.998 -46.5873 336.048 -68.6202 375.21 -71.91Z" fill="#F9F9FA"/>
</g>
<defs>
<filter id="filter0_dd" x="0" y="-200" width="733.359" height="710.151" filterUnits="userSpaceOnUse" color-interpolation-filters="sRGB">
<feFlood flood-opacity="0" result="BackgroundImageFix"/>
<feColorMatrix in="SourceAlpha" type="matrix" values="0 0 0 0 0 0 0 0 0 0 0 0 0 0 0 0 0 0 127 0"/>
<feOffset dx="10" dy="10"/>
<feGaussianBlur stdDeviation="15"/>
<feColorMatrix type="matrix" values="0 0 0 0 0.682353 0 0 0 0 0.682353 0 0 0 0 0.752941 0 0 0 0.5 0"/>
<feBlend mode="normal" in2="BackgroundImageFix" result="effect1_dropShadow"/>
<feColorMatrix in="SourceAlpha" type="matrix" values="0 0 0 0 0 0 0 0 0 0 0 0 0 0 0 0 0 0 127 0"/>
<feOffset dx="-10" dy="-10"/>
<feGaussianBlur stdDeviation="12.5"/>
<feColorMatrix type="matrix" values="0 0 0 0 1 0 0 0 0 1 0 0 0 0 1 0 0 0 1 0"/>
<feBlend mode="normal" in2="effect1_dropShadow" result="effect2_dropShadow"/>
<feBlend mode="normal" in="SourceGraphic" in2="effect2_dropShadow" result="shape"/>
</filter>
<filter id="filter1_dd" x="54" y="-150" width="611" height="592" filterUnits="userSpaceOnUse" color-interpolation-filters="sRGB">
<feFlood flood-opacity="0" result="BackgroundImageFix"/>
<feColorMatrix in="SourceAlpha" type="matrix" values="0 0 0 0 0 0 0 0 0 0 0 0 0 0 0 0 0 0 127 0"/>
<feOffset dx="10" dy="10"/>
<feGaussianBlur stdDeviation="15"/>
<feColorMatrix type="matrix" values="0 0 0 0 0.682353 0 0 0 0 0.682353 0 0 0 0 0.752941 0 0 0 0.5 0"/>
<feBlend mode="normal" in2="BackgroundImageFix" result="effect1_dropShadow"/>
<feColorMatrix in="SourceAlpha" type="matrix" values="0 0 0 0 0 0 0 0 0 0 0 0 0 0 0 0 0 0 127 0"/>
<feOffset dx="-10" dy="-10"/>
<feGaussianBlur stdDeviation="12.5"/>
<feColorMatrix type="matrix" values="0 0 0 0 1 0 0 0 0 1 0 0 0 0 1 0 0 0 1 0"/>
<feBlend mode="normal" in2="effect1_dropShadow" result="effect2_dropShadow"/>
<feBlend mode="normal" in="SourceGraphic" in2="effect2_dropShadow" result="shape"/>
</filter>
<filter id="filter2_dd" x="134" y="-108" width="492" height="477" filterUnits="userSpaceOnUse" color-interpolation-filters="sRGB">
<feFlood flood-opacity="0" result="BackgroundImageFix"/>
<feColorMatrix in="SourceAlpha" type="matrix" values="0 0 0 0 0 0 0 0 0 0 0 0 0 0 0 0 0 0 127 0"/>
<feOffset dx="10" dy="10"/>
<feGaussianBlur stdDeviation="15"/>
<feColorMatrix type="matrix" values="0 0 0 0 0.682353 0 0 0 0 0.682353 0 0 0 0 0.752941 0 0 0 0.5 0"/>
<feBlend mode="normal" in2="BackgroundImageFix" result="effect1_dropShadow"/>
<feColorMatrix in="SourceAlpha" type="matrix" values="0 0 0 0 0 0 0 0 0 0 0 0 0 0 0 0 0 0 127 0"/>
<feOffset dx="-10" dy="-10"/>
<feGaussianBlur stdDeviation="12.5"/>
<feColorMatrix type="matrix" values="0 0 0 0 1 0 0 0 0 1 0 0 0 0 1 0 0 0 1 0"/>
<feBlend mode="normal" in2="effect1_dropShadow" result="effect2_dropShadow"/>
<feBlend mode="normal" in="SourceGraphic" in2="effect2_dropShadow" result="shape"/>
</filter>
</defs>
</svg>
