<svg width="674" height="331" viewBox="0 0 674 331" fill="none" xmlns="http://www.w3.org/2000/svg">
<g filter="url(#filter0_dd)">
<path d="M40.2812 69.4844H151.094C151.281 69.4844 151.375 69.5781 151.375 69.7656V106.328C151.375 106.516 151.281 106.609 151.094 106.609H40.2812C40.0938 106.609 40 106.516 40 106.328V69.7656C40 69.5781 40.0938 69.4844 40.2812 69.4844ZM76.8438 149.078H114.391C114.578 149.078 114.672 149.172 114.672 149.359V233.875H151.094C151.281 233.875 151.375 233.969 151.375 234.156V270.719C151.375 270.906 151.281 271 151.094 271H40.2812C40.0938 271 40 270.906 40 270.719V234.156C40 233.969 40.0938 233.875 40.2812 233.875H76.5625V149.359C76.5625 149.172 76.6562 149.078 76.8438 149.078ZM193.934 68.5H305.309C305.496 68.5 305.59 68.5938 305.59 68.7812V106.047C305.59 106.234 305.496 106.328 305.309 106.328H193.934C193.746 106.328 193.652 106.234 193.652 106.047V68.7812C193.652 68.5938 193.746 68.5 193.934 68.5ZM229.934 149.219H268.465C268.652 149.219 268.746 149.266 268.746 149.359V270.719C268.746 270.906 268.652 271 268.465 271H229.934C229.746 271 229.652 270.906 229.652 270.719V149.359C229.652 149.266 229.746 149.219 229.934 149.219ZM507.426 69.0625H542.864C566.207 69.0625 582.848 71.9688 592.786 77.7812C595.786 79.375 599.02 81.6719 602.489 84.6719C613.364 94.3281 618.801 106.516 618.801 121.234C618.801 136.984 611.911 149.781 598.129 159.625C602.536 161.969 606.426 164.219 609.801 166.375C625.551 177.156 633.426 192.438 633.426 212.219C633.426 229.844 626.348 244.984 612.192 257.641C604.786 263.453 596.817 267.156 588.286 268.75C581.442 270.25 573.848 271 565.504 271H507.426C507.239 271 507.145 270.906 507.145 270.719V148.375C507.145 148.188 507.239 148.094 507.426 148.094H555.239C567.989 148.094 576.192 143.734 579.848 135.016C580.973 132.484 581.536 129.531 581.536 126.156C581.536 118.094 577.973 112.234 570.848 108.578C566.817 106.703 562.036 105.766 556.504 105.766H507.426C507.239 105.766 507.145 105.672 507.145 105.484V69.3438C507.145 69.1563 507.239 69.0625 507.426 69.0625ZM545.676 182.547V234.297H555.942C573.942 234.297 585.286 231.484 589.973 225.859C593.817 222.016 595.739 217 595.739 210.812C595.739 199.938 590.77 192.062 580.832 187.188C574.926 184.094 564.801 182.547 550.457 182.547H545.676Z" fill="#F0F0F3"/>
</g>
<g filter="url(#filter1_d)">
<path d="M478.308 231.588H401.048H399.579L400.743 230.692C422.414 214.008 440.239 196.947 454.225 179.513C461.588 170.233 467.003 160.562 470.476 150.5H420.109C418.789 152.964 417.276 155.441 415.573 157.93C408.061 168.909 398.819 179.402 387.85 189.408C387.85 189.409 387.85 189.409 387.849 189.409L478.308 231.588ZM478.308 231.588V270.62H334.732V234.785C337.899 232.27 340.213 230.423 341.674 229.245C342.418 228.645 342.944 228.216 343.248 227.961C343.393 227.839 343.506 227.742 343.563 227.684L343.565 227.683C343.573 227.674 343.605 227.642 343.636 227.6L478.308 231.588ZM343.156 227.381C343.094 227.436 342.994 227.522 342.855 227.637C342.962 227.757 343.104 227.794 343.18 227.802C343.27 227.811 343.339 227.792 343.358 227.787C343.395 227.777 343.423 227.764 343.436 227.758L343.156 227.381ZM457.716 77.0706L457.719 77.0735C465.871 85.2263 471.163 95.1133 473.593 106.748H421.154C417.387 102.309 411.806 100.124 404.504 100.124C397.06 100.124 391.149 102.975 386.826 108.674L386.824 108.676C382.771 114.08 380.744 121.715 380.678 131.516H334.169C334.611 115.487 338.048 102.116 344.452 91.3789C351.125 80.512 359.79 72.518 370.448 67.3792C381.318 62.2302 393.34 59.652 406.52 59.652C429.288 59.652 446.322 65.4865 457.716 77.0706Z" stroke="#39C3FF"/>
</g>
<defs>
<filter id="filter0_dd" x="0" y="28.5" width="673.426" height="282.5" filterUnits="userSpaceOnUse" color-interpolation-filters="sRGB">
<feFlood flood-opacity="0" result="BackgroundImageFix"/>
<feColorMatrix in="SourceAlpha" type="matrix" values="0 0 0 0 0 0 0 0 0 0 0 0 0 0 0 0 0 0 127 0"/>
<feOffset dx="10" dy="10"/>
<feGaussianBlur stdDeviation="15"/>
<feColorMatrix type="matrix" values="0 0 0 0 0.682353 0 0 0 0 0.682353 0 0 0 0 0.752941 0 0 0 0.5 0"/>
<feBlend mode="normal" in2="BackgroundImageFix" result="effect1_dropShadow"/>
<feColorMatrix in="SourceAlpha" type="matrix" values="0 0 0 0 0 0 0 0 0 0 0 0 0 0 0 0 0 0 127 0"/>
<feOffset dx="-10" dy="-10"/>
<feGaussianBlur stdDeviation="15"/>
<feColorMatrix type="matrix" values="0 0 0 0 1 0 0 0 0 1 0 0 0 0 1 0 0 0 1 0"/>
<feBlend mode="normal" in2="effect1_dropShadow" result="effect2_dropShadow"/>
<feBlend mode="normal" in="SourceGraphic" in2="effect2_dropShadow" result="shape"/>
</filter>
<filter id="filter1_d" x="326.356" y="51.852" width="159.752" height="226.568" filterUnits="userSpaceOnUse" color-interpolation-filters="sRGB">
<feFlood flood-opacity="0" result="BackgroundImageFix"/>
<feColorMatrix in="SourceAlpha" type="matrix" values="0 0 0 0 0 0 0 0 0 0 0 0 0 0 0 0 0 0 127 0"/>
<feMorphology radius="0.3" operator="dilate" in="SourceAlpha" result="effect1_dropShadow"/>
<feOffset/>
<feGaussianBlur stdDeviation="3.5"/>
<feColorMatrix type="matrix" values="0 0 0 0 0.128646 0 0 0 0 0.732524 0 0 0 0 0.996354 0 0 0 1 0"/>
<feBlend mode="normal" in2="BackgroundImageFix" result="effect1_dropShadow"/>
<feBlend mode="normal" in="SourceGraphic" in2="effect1_dropShadow" result="shape"/>
</filter>
</defs>
</svg>
