<?xml version="1.0" encoding="utf-8"?><svg width="290" height="628" fill="none" xmlns="http://www.w3.org/2000/svg" viewBox="0 0 290 628"><g filter="url(#dfilter0_dd)"><path fill-rule="evenodd" clip-rule="evenodd" d="M-57.367 548.349c-49.677-3.48-103.726-16.371-134.869-55.242-30.289-37.804-11.23-92.816-21.661-140.129-11.404-51.731-66.611-102.222-42.122-149.197 24.558-47.109 98.737-28.567 146.695-51.398 45.61-21.712 75.294-83.852 125.48-78.17 50.017 5.662 69.275 67.901 104.188 104.171 33.838 35.153 83.282 57.975 96.982 104.814 14.394 49.212 4.12 104.755-22.946 148.303-25.927 41.715-74.623 59.669-119.164 80.343-42.624 19.783-85.712 39.788-132.583 36.505z" fill="#F0F0F3"/></g><g filter="url(#dfilter1_dd)"><path fill-rule="evenodd" clip-rule="evenodd" d="M-66.392 455.773c-37.016-2.588-77.288-12.198-100.487-41.201-22.562-28.208-8.351-69.265-16.115-104.572-8.488-38.605-49.616-76.275-31.36-111.336 18.308-35.161 73.579-21.337 109.318-38.384 33.99-16.211 56.12-62.591 93.516-58.36 37.268 4.217 51.606 50.661 77.615 77.722 25.208 26.229 62.046 43.251 72.246 78.204 10.717 36.723 3.052 78.176-17.125 110.68-19.327 31.136-55.615 44.544-88.808 59.98-31.765 14.772-63.875 29.709-98.8 27.267z" fill="#F4F4F6"/></g><g filter="url(#dfilter2_dd)"><path fill-rule="evenodd" clip-rule="evenodd" d="M-80.421 396.502c-26.1-1.832-54.498-8.601-70.866-28.991-15.919-19.831-5.914-48.678-11.401-73.492-6-27.132-35.012-53.62-22.153-78.252 12.896-24.702 51.871-14.967 77.063-26.933 23.96-11.38 39.546-43.964 65.914-40.977 26.278 2.977 36.405 35.621 54.753 54.647 17.784 18.441 43.764 30.417 50.969 54.984 7.57 25.811 2.18 54.938-12.034 77.772-13.615 21.873-39.196 31.282-62.594 42.117-22.39 10.369-45.025 20.854-69.651 19.125z" fill="#F9F9FA"/></g><defs><filter id="dfilter0_dd" x="-336.604" y=".542" width="626.396" height="626.875" filterUnits="userSpaceOnUse" color-interpolation-filters="sRGB"><feFlood flood-opacity="0" result="BackgroundImageFix"/><feColorMatrix in="SourceAlpha" values="0 0 0 0 0 0 0 0 0 0 0 0 0 0 0 0 0 0 127 0"/><feOffset dy="10"/><feGaussianBlur stdDeviation="15"/><feColorMatrix values="0 0 0 0 0.682353 0 0 0 0 0.682353 0 0 0 0 0.752941 0 0 0 0.4 0"/><feBlend in2="BackgroundImageFix" result="effect1_dropShadow"/><feColorMatrix in="SourceAlpha" values="0 0 0 0 0 0 0 0 0 0 0 0 0 0 0 0 0 0 127 0"/><feOffset dx="5" dy="-10"/><feGaussianBlur stdDeviation="12.5"/><feColorMatrix values="0 0 0 0 1 0 0 0 0 1 0 0 0 0 1 0 0 0 1 0"/><feBlend in2="effect1_dropShadow" result="effect2_dropShadow"/><feBlend in="SourceGraphic" in2="effect2_dropShadow" result="shape"/></filter><filter id="dfilter1_dd" x="-282.103" y="38.106" width="482.118" height="486.779" filterUnits="userSpaceOnUse" color-interpolation-filters="sRGB"><feFlood flood-opacity="0" result="BackgroundImageFix"/><feColorMatrix in="SourceAlpha" values="0 0 0 0 0 0 0 0 0 0 0 0 0 0 0 0 0 0 127 0"/><feOffset dy="10"/><feGaussianBlur stdDeviation="15"/><feColorMatrix values="0 0 0 0 0.682353 0 0 0 0 0.682353 0 0 0 0 0.752941 0 0 0 0.4 0"/><feBlend in2="BackgroundImageFix" result="effect1_dropShadow"/><feColorMatrix in="SourceAlpha" values="0 0 0 0 0 0 0 0 0 0 0 0 0 0 0 0 0 0 127 0"/><feOffset dx="5" dy="-10"/><feGaussianBlur stdDeviation="12.5"/><feColorMatrix values="0 0 0 0 1 0 0 0 0 1 0 0 0 0 1 0 0 0 1 0"/><feBlend in2="effect1_dropShadow" result="effect2_dropShadow"/><feBlend in="SourceGraphic" in2="effect2_dropShadow" result="shape"/></filter><filter id="dfilter2_dd" x="-241.372" y="92.539" width="357.515" height="364.489" filterUnits="userSpaceOnUse" color-interpolation-filters="sRGB"><feFlood flood-opacity="0" result="BackgroundImageFix"/><feColorMatrix in="SourceAlpha" values="0 0 0 0 0 0 0 0 0 0 0 0 0 0 0 0 0 0 127 0"/><feOffset dy="10"/><feGaussianBlur stdDeviation="15"/><feColorMatrix values="0 0 0 0 0.682353 0 0 0 0 0.682353 0 0 0 0 0.752941 0 0 0 0.4 0"/><feBlend in2="BackgroundImageFix" result="effect1_dropShadow"/><feColorMatrix in="SourceAlpha" values="0 0 0 0 0 0 0 0 0 0 0 0 0 0 0 0 0 0 127 0"/><feOffset dx="5" dy="-10"/><feGaussianBlur stdDeviation="12.5"/><feColorMatrix values="0 0 0 0 1 0 0 0 0 1 0 0 0 0 1 0 0 0 1 0"/><feBlend in2="effect1_dropShadow" result="effect2_dropShadow"/><feBlend in="SourceGraphic" in2="effect2_dropShadow" result="shape"/></filter></defs></svg>