<?xml version="1.0" encoding="utf-8"?><svg width="557" height="549" fill="none" xmlns="http://www.w3.org/2000/svg" viewBox="0 0 557 549"><g filter="url(#jfilter0_dd)"><path fill-rule="evenodd" clip-rule="evenodd" d="M243.695 291.568c-44.954 47.998-85.688 109.029-80.924 174.617 4.634 63.791 72.477 99.895 104.868 155.045 35.416 60.3 27.325 158.751 93.207 182.202 66.071 23.517 121.213-61.065 188.128-82.061 63.638-19.968 148.167 13.488 191.637-37.097 43.322-50.413 6.071-127.936 7.291-194.395 1.183-64.414 28.542-130.916-.258-188.544-30.26-60.548-90.079-105.059-155.38-122.879-62.55-17.068-125.801 9.308-187.473 29.321-59.017 19.151-118.682 38.505-161.096 83.791z" fill="#F0F0F3"/></g><g filter="url(#jfilter1_dd)"><path fill-rule="evenodd" clip-rule="evenodd" d="M290.707 330.266c-36.598 39.078-69.762 88.765-65.889 142.159 3.766 51.93 58.991 81.317 85.354 126.211 28.825 49.086 22.231 129.234 75.859 148.319 53.783 19.14 98.678-49.722 153.151-66.819 51.806-16.26 120.614 10.969 156.004-30.215 35.27-41.045 4.953-104.151 5.952-158.254.968-52.439 23.245-106.579-.196-153.491-24.628-49.288-73.319-85.519-126.475-100.02-50.918-13.891-102.409 7.587-152.614 23.884-48.044 15.596-96.616 31.356-131.146 68.226z" fill="#F4F4F6"/></g><g filter="url(#jfilter2_dd)"><path fill-rule="evenodd" clip-rule="evenodd" d="M333.322 382.888c-28.472 30.403-54.274 69.058-51.273 110.588 2.918 40.392 45.862 63.238 66.356 98.152 22.408 38.174 17.263 100.517 58.967 115.351 41.825 14.876 76.755-38.695 119.124-52.006 40.293-12.658 93.801 8.508 121.334-23.534 27.439-31.932 3.873-81.011 4.661-123.094.764-40.788 18.1-82.904-.121-119.389-19.143-38.332-57.004-66.504-98.342-77.772-39.597-10.794-79.648 5.923-118.697 18.609-37.368 12.141-75.146 24.41-102.009 53.095z" fill="#F9F9FA"/></g><defs><filter id="jfilter0_dd" x=".998" y=".072" width="981.529" height="985.348" filterUnits="userSpaceOnUse" color-interpolation-filters="sRGB"><feFlood flood-opacity="0" result="BackgroundImageFix"/><feColorMatrix in="SourceAlpha" values="0 0 0 0 0 0 0 0 0 0 0 0 0 0 0 0 0 0 127 0"/><feOffset dx="10" dy="10"/><feGaussianBlur stdDeviation="15"/><feColorMatrix values="0 0 0 0 0.682353 0 0 0 0 0.682353 0 0 0 0 0.752941 0 0 0 0.5 0"/><feBlend in2="BackgroundImageFix" result="effect1_dropShadow"/><feColorMatrix in="SourceAlpha" values="0 0 0 0 0 0 0 0 0 0 0 0 0 0 0 0 0 0 127 0"/><feOffset dx="-10" dy="-10"/><feGaussianBlur stdDeviation="12.5"/><feColorMatrix values="0 0 0 0 1 0 0 0 0 1 0 0 0 0 1 0 0 0 1 0"/><feBlend in2="effect1_dropShadow" result="effect2_dropShadow"/><feBlend in="SourceGraphic" in2="effect2_dropShadow" result="shape"/></filter><filter id="jfilter1_dd" x="86.612" y="86.441" width="812.964" height="816.09" filterUnits="userSpaceOnUse" color-interpolation-filters="sRGB"><feFlood flood-opacity="0" result="BackgroundImageFix"/><feColorMatrix in="SourceAlpha" values="0 0 0 0 0 0 0 0 0 0 0 0 0 0 0 0 0 0 127 0"/><feOffset dx="10" dy="10"/><feGaussianBlur stdDeviation="15"/><feColorMatrix values="0 0 0 0 0.682353 0 0 0 0 0.682353 0 0 0 0 0.752941 0 0 0 0.5 0"/><feBlend in2="BackgroundImageFix" result="effect1_dropShadow"/><feColorMatrix in="SourceAlpha" values="0 0 0 0 0 0 0 0 0 0 0 0 0 0 0 0 0 0 127 0"/><feOffset dx="-10" dy="-10"/><feGaussianBlur stdDeviation="12.5"/><feColorMatrix values="0 0 0 0 1 0 0 0 0 1 0 0 0 0 1 0 0 0 1 0"/><feBlend in2="effect1_dropShadow" result="effect2_dropShadow"/><feBlend in="SourceGraphic" in2="effect2_dropShadow" result="shape"/></filter><filter id="jfilter2_dd" x="166.769" y="185.426" width="648.954" height="651.422" filterUnits="userSpaceOnUse" color-interpolation-filters="sRGB"><feFlood flood-opacity="0" result="BackgroundImageFix"/><feColorMatrix in="SourceAlpha" values="0 0 0 0 0 0 0 0 0 0 0 0 0 0 0 0 0 0 127 0"/><feOffset dx="10" dy="10"/><feGaussianBlur stdDeviation="15"/><feColorMatrix values="0 0 0 0 0.682353 0 0 0 0 0.682353 0 0 0 0 0.752941 0 0 0 0.5 0"/><feBlend in2="BackgroundImageFix" result="effect1_dropShadow"/><feColorMatrix in="SourceAlpha" values="0 0 0 0 0 0 0 0 0 0 0 0 0 0 0 0 0 0 127 0"/><feOffset dx="-10" dy="-10"/><feGaussianBlur stdDeviation="12.5"/><feColorMatrix values="0 0 0 0 1 0 0 0 0 1 0 0 0 0 1 0 0 0 1 0"/><feBlend in2="effect1_dropShadow" result="effect2_dropShadow"/><feBlend in="SourceGraphic" in2="effect2_dropShadow" result="shape"/></filter></defs></svg>