<?xml version="1.0" encoding="utf-8"?><svg width="408" height="511" fill="none" xmlns="http://www.w3.org/2000/svg" viewBox="0 0 408 511"><g filter="url(#hfilter0_dd)"><path fill-rule="evenodd" clip-rule="evenodd" d="M360.564-163.278c65.53-5.509 138.67.374 187.175 44.779C594.914-75.312 581.176.303 604.361 59.911c25.35 65.174 107.609 119.87 85.159 186.099-22.515 66.419-123.067 57.237-181.029 96.719-55.124 37.548-81.286 124.612-147.927 127.352-66.414 2.731-104.139-74.562-157.038-114.811-51.271-39.011-120.41-58.78-147.767-117.108-28.742-61.283-26.574-135.813-.066-198.095 25.392-59.659 85.305-92.93 139.245-128.907 51.618-34.429 103.797-69.24 165.626-74.438z" fill="#F0F0F3"/></g><g filter="url(#hfilter1_dd)"><path fill-rule="evenodd" clip-rule="evenodd" d="M354.056-113.598c53.352-4.484 112.898.304 152.388 36.449 38.408 35.153 27.222 96.702 46.099 145.222 20.639 53.05 87.609 97.571 69.331 151.48-18.33 54.064-100.194 46.591-147.384 78.728-44.878 30.563-66.178 101.431-120.434 103.662-54.071 2.223-84.784-60.692-127.851-93.454-41.742-31.754-98.032-47.845-120.304-95.323-23.4-49.883-21.635-110.55-.054-161.246 20.673-48.56 69.45-75.642 113.365-104.927 42.025-28.024 84.507-56.36 134.844-60.591z" fill="#F4F4F6"/></g><g filter="url(#hfilter2_dd)"><path fill-rule="evenodd" clip-rule="evenodd" d="M375.21-71.91c41.506-3.487 87.832.236 118.555 28.341 29.881 27.335 21.179 75.192 35.864 112.92 16.057 41.249 68.159 75.868 53.939 117.785-14.261 42.038-77.949 36.227-114.662 61.216-34.915 23.765-51.486 78.869-93.696 80.603-42.067 1.729-65.961-47.191-99.467-72.666-32.475-24.691-76.267-37.202-93.594-74.12-18.205-38.787-16.832-85.959-.042-125.378 16.083-37.76 54.031-58.817 88.196-81.588 32.695-21.79 65.745-43.823 104.907-47.113z" fill="#F9F9FA"/></g><defs><filter id="hfilter0_dd" x="0" y="-200" width="733.359" height="710.151" filterUnits="userSpaceOnUse" color-interpolation-filters="sRGB"><feFlood flood-opacity="0" result="BackgroundImageFix"/><feColorMatrix in="SourceAlpha" values="0 0 0 0 0 0 0 0 0 0 0 0 0 0 0 0 0 0 127 0"/><feOffset dx="10" dy="10"/><feGaussianBlur stdDeviation="15"/><feColorMatrix values="0 0 0 0 0.682353 0 0 0 0 0.682353 0 0 0 0 0.752941 0 0 0 0.5 0"/><feBlend in2="BackgroundImageFix" result="effect1_dropShadow"/><feColorMatrix in="SourceAlpha" values="0 0 0 0 0 0 0 0 0 0 0 0 0 0 0 0 0 0 127 0"/><feOffset dx="-10" dy="-10"/><feGaussianBlur stdDeviation="12.5"/><feColorMatrix values="0 0 0 0 1 0 0 0 0 1 0 0 0 0 1 0 0 0 1 0"/><feBlend in2="effect1_dropShadow" result="effect2_dropShadow"/><feBlend in="SourceGraphic" in2="effect2_dropShadow" result="shape"/></filter><filter id="hfilter1_dd" x="54" y="-150" width="611" height="592" filterUnits="userSpaceOnUse" color-interpolation-filters="sRGB"><feFlood flood-opacity="0" result="BackgroundImageFix"/><feColorMatrix in="SourceAlpha" values="0 0 0 0 0 0 0 0 0 0 0 0 0 0 0 0 0 0 127 0"/><feOffset dx="10" dy="10"/><feGaussianBlur stdDeviation="15"/><feColorMatrix values="0 0 0 0 0.682353 0 0 0 0 0.682353 0 0 0 0 0.752941 0 0 0 0.5 0"/><feBlend in2="BackgroundImageFix" result="effect1_dropShadow"/><feColorMatrix in="SourceAlpha" values="0 0 0 0 0 0 0 0 0 0 0 0 0 0 0 0 0 0 127 0"/><feOffset dx="-10" dy="-10"/><feGaussianBlur stdDeviation="12.5"/><feColorMatrix values="0 0 0 0 1 0 0 0 0 1 0 0 0 0 1 0 0 0 1 0"/><feBlend in2="effect1_dropShadow" result="effect2_dropShadow"/><feBlend in="SourceGraphic" in2="effect2_dropShadow" result="shape"/></filter><filter id="hfilter2_dd" x="134" y="-108" width="492" height="477" filterUnits="userSpaceOnUse" color-interpolation-filters="sRGB"><feFlood flood-opacity="0" result="BackgroundImageFix"/><feColorMatrix in="SourceAlpha" values="0 0 0 0 0 0 0 0 0 0 0 0 0 0 0 0 0 0 127 0"/><feOffset dx="10" dy="10"/><feGaussianBlur stdDeviation="15"/><feColorMatrix values="0 0 0 0 0.682353 0 0 0 0 0.682353 0 0 0 0 0.752941 0 0 0 0.5 0"/><feBlend in2="BackgroundImageFix" result="effect1_dropShadow"/><feColorMatrix in="SourceAlpha" values="0 0 0 0 0 0 0 0 0 0 0 0 0 0 0 0 0 0 127 0"/><feOffset dx="-10" dy="-10"/><feGaussianBlur stdDeviation="12.5"/><feColorMatrix values="0 0 0 0 1 0 0 0 0 1 0 0 0 0 1 0 0 0 1 0"/><feBlend in2="effect1_dropShadow" result="effect2_dropShadow"/><feBlend in="SourceGraphic" in2="effect2_dropShadow" result="shape"/></filter></defs></svg>