<?xml version="1.0" encoding="utf-8"?><svg width="704" height="331" fill="none" xmlns="http://www.w3.org/2000/svg" viewBox="0 0 704 331"><g filter="url(#pfilter0_dd)"><path d="M50.281 69.484h110.813c.187 0 .281.094.281.282v36.562c0 .188-.094.281-.281.281H50.281c-.187 0-.281-.093-.281-.281V69.766c0-.188.094-.282.281-.282zm36.563 79.594h37.547c.187 0 .281.094.281.281v84.516h36.422c.187 0 .281.094.281.281v36.563c0 .187-.094.281-.281.281H50.281c-.187 0-.281-.094-.281-.281v-36.563c0-.187.094-.281.281-.281h36.282v-84.516c0-.187.093-.281.28-.281zM203.934 68.5h111.375c.187 0 .281.094.281.281v37.266c0 .187-.094.281-.281.281H203.934c-.188 0-.282-.094-.282-.281V68.781c0-.187.094-.281.282-.281zm36 80.719h38.531c.187 0 .281.047.281.14v121.36c0 .187-.094.281-.281.281h-38.531c-.188 0-.282-.094-.282-.281v-121.36c0-.093.094-.14.282-.14zm277.492-80.156h35.438c23.343 0 39.984 2.906 49.922 8.718 3 1.594 6.234 3.89 9.703 6.89 10.875 9.657 16.312 21.845 16.312 36.563 0 15.75-6.89 28.547-20.672 38.391 4.407 2.344 8.297 4.594 11.672 6.75 15.75 10.781 23.625 26.063 23.625 45.844 0 17.625-7.078 32.765-21.234 45.422-7.406 5.812-15.375 9.515-23.906 11.109-6.844 1.5-14.438 2.25-22.782 2.25h-58.078c-.187 0-.281-.094-.281-.281V148.375c0-.187.094-.281.281-.281h47.813c12.75 0 20.953-4.36 24.609-13.078 1.125-2.532 1.688-5.485 1.688-8.86 0-8.062-3.563-13.922-10.688-17.578-4.031-1.875-8.812-2.812-14.344-2.812h-49.078c-.187 0-.281-.094-.281-.282v-36.14c0-.188.094-.281.281-.281zm38.25 113.484v51.75h10.266c18 0 29.344-2.813 34.031-8.438 3.844-3.843 5.766-8.859 5.766-15.047 0-10.874-4.969-18.75-14.907-23.624-5.906-3.094-16.031-4.641-30.375-4.641h-4.781z" fill="#252525"/></g><g filter="url(#pfilter1_d)"><path d="M353.18 227.802c.09.009.159-.01.178-.015.037-.01.065-.023.078-.029m.2-.158l44.213-38.191.001-.001c10.969-10.006 20.211-20.499 27.723-31.478a80.51 80.51 0 004.536-7.43h50.367c-3.473 10.062-8.888 19.733-16.251 29.013-13.986 17.434-26.034 33.265-47.705 49.949l71.788 2.126v39.032H344.732v-35.835a1329.4 1329.4 0 006.942-5.54c.744-.6 1.27-1.029 1.574-1.284.145-.122.258-.219.315-.277l.002-.001c.008-.009.04-.041.071-.083zm114.08-150.53l.003.004c8.152 8.152 13.444 18.04 15.874 29.674h-52.439c-3.767-4.439-9.348-6.624-16.65-6.624-7.444 0-13.355 2.851-17.678 8.55l-.002.002c-4.053 5.404-6.08 13.039-6.146 22.84h-46.509c.442-16.029 3.879-29.4 10.283-40.137 6.673-10.867 15.338-18.861 25.996-24 10.87-5.149 22.892-7.727 36.072-7.727 22.768 0 39.802 5.835 51.196 17.419z" stroke="#BDBDBD"/></g><defs><filter id="pfilter0_dd" x="0" y="18.5" width="703.426" height="312.5" filterUnits="userSpaceOnUse" color-interpolation-filters="sRGB"><feFlood flood-opacity="0" result="BackgroundImageFix"/><feColorMatrix in="SourceAlpha" values="0 0 0 0 0 0 0 0 0 0 0 0 0 0 0 0 0 0 127 0"/><feOffset dx="15" dy="15"/><feGaussianBlur stdDeviation="22.5"/><feColorMatrix values="0 0 0 0 0 0 0 0 0 0 0 0 0 0 0 0 0 0 0.8 0"/><feBlend in2="BackgroundImageFix" result="effect1_dropShadow"/><feColorMatrix in="SourceAlpha" values="0 0 0 0 0 0 0 0 0 0 0 0 0 0 0 0 0 0 127 0"/><feOffset dx="-10" dy="-10"/><feGaussianBlur stdDeviation="20"/><feColorMatrix values="0 0 0 0 0.219608 0 0 0 0 0.219608 0 0 0 0 0.219608 0 0 0 0.6 0"/><feBlend in2="effect1_dropShadow" result="effect2_dropShadow"/><feBlend in="SourceGraphic" in2="effect2_dropShadow" result="shape"/></filter><filter id="pfilter1_d" x="336.655" y="52.152" width="159.153" height="225.968" filterUnits="userSpaceOnUse" color-interpolation-filters="sRGB"><feFlood flood-opacity="0" result="BackgroundImageFix"/><feColorMatrix in="SourceAlpha" values="0 0 0 0 0 0 0 0 0 0 0 0 0 0 0 0 0 0 127 0"/><feOffset/><feGaussianBlur stdDeviation="3.5"/><feColorMatrix values="0 0 0 0 0.8625 0 0 0 0 0.8625 0 0 0 0 0.8625 0 0 0 1 0"/><feBlend in2="BackgroundImageFix" result="effect1_dropShadow"/><feBlend in="SourceGraphic" in2="effect1_dropShadow" result="shape"/></filter></defs></svg>