<?xml version="1.0" encoding="UTF-8"?><svg width="578" height="286" xmlns="http://www.w3.org/2000/svg" viewBox="0 0 578 286"><g transform="translate(2 2)" fill="none" fill-rule="evenodd"><ellipse stroke="#D40E31" stroke-width="5" cx="287.02" cy="141.05" rx="286.22" ry="140.45"/><path fill="#D40E31" fill-rule="nonzero" d="M344.4 158.94l9.8-30.73-14.17-16.58-87.29.03-16.08 12.48-4.02 12.61 34.65.01 4.41-13.86h50.08l-7.82 24.71-84.92-.1-10.78 33.68h119.01l3.85-11.96-84.15-.15 3.23-10.11zM117.51 111.69l-3.5 10.99 35.06-.1 3.68-10.88zM144.13 137.28h-34.68l-14.49 43.97 35.19-.12zM222.84 136.75l4.41-13.85h-33.8l6.97-21.7h-35.04l-21.31 66.81 13.18 13.04 51.38.21 3.79-11.88h-34.07l10.58-32.6zM479.27 137.28l-13.58-14.36-53.58-.02-4.51 14.12 36.27-.02-.42 1.34h-.02l-3.15 9.32-6.68 20.53-47.29 1.16 21.85-68.5-36.29.26-25.37 79.98 118.82-.08z"/></g></svg>