<?xml version="1.0" encoding="utf-8"?><svg width="208" height="176" fill="none" xmlns="http://www.w3.org/2000/svg" viewBox="0 0 208 176"><g filter="url(#vfilter0_dd)"><path d="M151.185 40.92a3 3 0 00-4.102 0L86.184 97.947a3 3 0 01-4.1 0L60.917 78.129a3 3 0 00-4.102 0L41.338 92.626a3 3 0 000 4.38l40.746 38.157a2.999 2.999 0 004.101 0l80.477-75.366a3 3 0 000-4.379l-15.477-14.497z" fill="#252525"/></g><g filter="url(#vfilter1_d)"><path d="M116.81 88.431l-16.364 15.374-14.31 13.445a3 3 0 01-4.108 0l-9.2-8.643-5.627-5.286" stroke="#BDBDBD"/></g><defs><filter id="vfilter0_dd" x=".389" y=".11" width="207.223" height="175.863" filterUnits="userSpaceOnUse" color-interpolation-filters="sRGB"><feFlood flood-opacity="0" result="BackgroundImageFix"/><feColorMatrix in="SourceAlpha" values="0 0 0 0 0 0 0 0 0 0 0 0 0 0 0 0 0 0 127 0"/><feOffset dx="10" dy="10"/><feGaussianBlur stdDeviation="15"/><feColorMatrix values="0 0 0 0 0 0 0 0 0 0 0 0 0 0 0 0 0 0 1 0"/><feBlend in2="BackgroundImageFix" result="effect1_dropShadow"/><feColorMatrix in="SourceAlpha" values="0 0 0 0 0 0 0 0 0 0 0 0 0 0 0 0 0 0 127 0"/><feOffset dx="-10" dy="-10"/><feGaussianBlur stdDeviation="15"/><feColorMatrix values="0 0 0 0 0.219608 0 0 0 0 0.219608 0 0 0 0 0.219608 0 0 0 0.7 0"/><feBlend in2="effect1_dropShadow" result="effect2_dropShadow"/><feBlend in="SourceGraphic" in2="effect2_dropShadow" result="shape"/></filter><filter id="vfilter1_d" x="59.858" y="81.067" width="64.294" height="44.497" filterUnits="userSpaceOnUse" color-interpolation-filters="sRGB"><feFlood flood-opacity="0" result="BackgroundImageFix"/><feColorMatrix in="SourceAlpha" values="0 0 0 0 0 0 0 0 0 0 0 0 0 0 0 0 0 0 127 0"/><feOffset/><feGaussianBlur stdDeviation="3.5"/><feColorMatrix values="0 0 0 0 0.8625 0 0 0 0 0.8625 0 0 0 0 0.8625 0 0 0 1 0"/><feBlend in2="BackgroundImageFix" result="effect1_dropShadow"/><feBlend in="SourceGraphic" in2="effect1_dropShadow" result="shape"/></filter></defs></svg>