<?xml version="1.0" encoding="utf-8"?><svg width="226" height="226" fill="none" xmlns="http://www.w3.org/2000/svg" viewBox="0 0 226 226"><path d="M36.28 122.22l9.347-1.513.204 1.262-8.227 1.331.949 5.864 8.227-1.332.204 1.262-9.346 1.513-1.358-8.387zM45.754 107.723c-.088.907-.37 1.706-.847 2.395a4.6 4.6 0 01-1.886 1.554c-.77.347-1.614.477-2.533.388-.92-.089-1.724-.378-2.412-.867a4.458 4.458 0 01-1.536-1.884c-.335-.768-.46-1.606-.372-2.514.088-.907.37-1.706.847-2.395a4.34 4.34 0 011.867-1.538c.769-.347 1.613-.477 2.533-.388.92.089 1.724.378 2.412.867a4.46 4.46 0 011.555 1.868c.336.768.46 1.606.372 2.514zm-1.13-.11c.066-.669-.026-1.28-.274-1.835a3.244 3.244 0 00-1.186-1.38c-.533-.353-1.157-.564-1.874-.634-.717-.069-1.37.019-1.96.263-.59.244-1.061.621-1.412 1.129-.361.496-.574 1.078-.639 1.747a3.564 3.564 0 00.291 1.854 3.274 3.274 0 001.169 1.379c.532.353 1.157.564 1.873.634.717.069 1.37-.019 1.96-.263a3.406 3.406 0 001.43-1.127c.35-.509.558-1.098.623-1.767zM45.106 90.576l-.718 2.037 3.973 1.4-.425 1.204-8.93-3.145.425-1.205 3.922 1.381.723-2.054-2.816-4.523.46-1.307 3.092 5.04 5.929-2.15-.502 1.427-5.133 1.895zM47.781 72.93c.67-1.039 1.447-1.666 2.33-1.882.872-.222 1.817-.004 2.835.653l4.93 3.184-.665 1.028-1.24-.8c.257.508.349 1.075.275 1.698-.068.614-.31 1.243-.727 1.888-.573.887-1.24 1.456-2.002 1.707-.762.25-1.491.151-2.187-.298-.675-.437-1.063-1.03-1.164-1.78-.094-.762.204-1.676.894-2.745l1.631-2.525-.484-.312c-.685-.443-1.328-.587-1.928-.432-.61.149-1.153.591-1.629 1.327a4.943 4.943 0 00-.68 1.617 4.233 4.233 0 00-.091 1.635l-1.114-.034a4.99 4.99 0 01.151-1.96 6.563 6.563 0 01.865-1.97zm6.999 5.056c.39-.605.59-1.212.597-1.821-.002-.616-.197-1.2-.584-1.75l-1.3-.84-1.612 2.496c-.879 1.36-.845 2.347.103 2.959.463.3.945.36 1.445.184.49-.184.94-.593 1.35-1.228zM63.199 61.542c.591-.356 1.15-.521 1.675-.496.535.017.994.223 1.378.62.384.396.589.883.614 1.46.033.57-.1 1.166-.397 1.79a6.414 6.414 0 01-1.3 1.736 7.18 7.18 0 01-1.649 1.196 5.341 5.341 0 01-1.854.57l-.354-.987a4.963 4.963 0 001.612-.509 5.825 5.825 0 001.441-1.021c.63-.61 1.03-1.223 1.2-1.84.172-.634.06-1.153-.332-1.558-.35-.362-.786-.483-1.305-.364-.528.11-1.076.441-1.645.992L61.12 64.26l-.652-.672 1.112-1.078c.508-.492.826-.984.952-1.474.118-.499.019-.912-.299-1.24-.35-.361-.803-.475-1.356-.34-.546.128-1.098.463-1.658 1.006-.733.71-1.277 1.597-1.633 2.66l-.948-.46c.401-1.207 1.037-2.233 1.907-3.076.517-.501 1.057-.874 1.621-1.12.565-.263 1.097-.37 1.597-.32.508.043.938.245 1.288.607.335.344.51.767.528 1.268.026.493-.1 1-.38 1.522zM72.29 48.91c1.058-.637 2.031-.86 2.918-.665.882.183 1.635.794 2.26 1.832l3.029 5.026-1.049.632-.761-1.264c.007.57-.16 1.119-.5 1.646-.33.521-.825.98-1.483 1.376-.904.545-1.754.763-2.548.653-.795-.11-1.406-.519-1.833-1.228-.415-.689-.503-1.392-.263-2.111.25-.725.919-1.416 2.008-2.072l2.575-1.551-.297-.494c-.421-.698-.935-1.11-1.543-1.235-.613-.134-1.295.024-2.046.476-.513.31-.954.695-1.322 1.154-.374.45-.64.925-.8 1.428l-.985-.52a4.99 4.99 0 01.997-1.694 6.563 6.563 0 011.642-1.389zm4.063 7.618c.617-.372 1.063-.83 1.338-1.373.268-.554.35-1.164.243-1.828L77.135 52l-2.543 1.533c-1.388.836-1.79 1.737-1.209 2.703.285.473.691.74 1.218.8.52.05 1.105-.119 1.752-.51zM91.985 41.576l-3.397 1.133 2.637 7.906-1.212.404-2.638-7.905-3.398 1.134-.359-1.076 8.008-2.672.36 1.076zM104.902 41.537c1.183-.109 2.105.062 2.767.513.673.45 1.059 1.158 1.158 2.125.102 1.003-.153 1.807-.767 2.413-.602.604-1.53.965-2.784 1.08l-3.798.37-.963-9.418 1.271-.13.337 3.295 2.779-.248zm.203 5.172c.873-.077 1.512-.317 1.917-.72.416-.417.587-.977.515-1.682-.07-.692-.344-1.183-.82-1.472-.475-.29-1.156-.395-2.04-.316l-2.457.215.428 4.19 2.457-.215zM137.611 42.229l-2.748 9.06-1.223-.37 2.418-7.976-5.684-1.724-2.419 7.976-1.223-.371 2.748-9.06 8.131 2.465zM152.392 49.448c.753.47 1.326 1.07 1.721 1.798.4.717.58 1.494.538 2.331-.043.837-.312 1.653-.808 2.446-.502.804-1.12 1.408-1.854 1.813a4.377 4.377 0 01-2.342.553c-.81-.04-1.597-.298-2.36-.775-.651-.407-1.158-.908-1.522-1.503a4.028 4.028 0 01-.538-1.992l-2.796 4.472-1.083-.678 6.869-10.99 1.038.65-.992 1.587a3.953 3.953 0 012.045-.42c.718.052 1.412.288 2.084.708zm-4.58 7.157c.56.35 1.148.54 1.765.572a3.245 3.245 0 001.765-.446c.563-.313 1.036-.775 1.418-1.385.381-.61.586-1.233.614-1.866a3.235 3.235 0 00-.372-1.782 3.525 3.525 0 00-1.278-1.351 3.57 3.57 0 00-1.79-.567 3.407 3.407 0 00-1.765.446c-.547.31-1.011.77-1.393 1.38-.381.61-.594 1.234-.639 1.871-.034.644.09 1.238.372 1.783.299.54.733.989 1.303 1.345zM160.089 68.105c-.625-.664-1.04-1.402-1.244-2.215a4.594 4.594 0 01.073-2.443c.245-.807.704-1.528 1.377-2.161s1.42-1.048 2.24-1.244a4.467 4.467 0 012.43.086c.799.253 1.511.712 2.136 1.376.625.664 1.04 1.402 1.245 2.215a4.35 4.35 0 01-.073 2.417c-.245.808-.704 1.528-1.377 2.162-.673.633-1.42 1.048-2.24 1.243a4.467 4.467 0 01-2.431-.06c-.799-.253-1.511-.712-2.136-1.376zm.826-.777c.461.489.981.823 1.561 1.002.598.18 1.205.185 1.821.017.616-.169 1.186-.5 1.711-.993.524-.494.889-1.043 1.094-1.648a3.122 3.122 0 00.079-1.806c-.134-.598-.432-1.142-.893-1.631a3.56 3.56 0 00-1.587-1.003 3.274 3.274 0 00-1.807-.029c-.616.168-1.186.499-1.711.993-.524.493-.889 1.042-1.094 1.647a3.421 3.421 0 00-.093 1.818 3.68 3.68 0 00.919 1.633zM175.885 83.102l-3.837-6.93c-.826.54-1.341 1.258-1.545 2.153-.193.889-.037 1.79.469 2.703.284.515.635.938 1.052 1.27.427.325.907.546 1.438.664l-.376 1.03a4.042 4.042 0 01-1.775-.827 5.26 5.26 0 01-1.349-1.619c-.471-.85-.711-1.705-.72-2.564a4.557 4.557 0 01.666-2.365c.437-.722 1.059-1.306 1.868-1.754.808-.448 1.628-.675 2.46-.684.838.003 1.605.21 2.299.62.7.422 1.262 1.016 1.686 1.783.424.766.627 1.553.607 2.36a4.321 4.321 0 01-.703 2.26c-.438.696-1.066 1.27-1.885 1.723l-.355.177zm1.375-5.988c-.441-.798-1.071-1.328-1.887-1.589-.801-.256-1.631-.194-2.49.186l3.252 5.873c.778-.527 1.268-1.203 1.47-2.028.218-.82.103-1.634-.345-2.442zM180.139 95.184l-.563-2.085-4.067 1.097-.332-1.234 9.141-2.466.333 1.234-4.015 1.083.567 2.103 4.882 2.132.361 1.338-5.402-2.402-3.669 5.129-.393-1.46 3.157-4.469zM186.868 114.577l-.155-3.579-8.326.361-.056-1.277 8.327-.361-.156-3.579 1.133-.049.366 8.434-1.133.05zM183.362 127.052c-.255 1.16-.699 1.993-1.332 2.498-.633.505-1.425.658-2.376.459-.987-.206-1.676-.694-2.067-1.462-.39-.768-.452-1.762-.185-2.981l.784-3.661 9.268 1.939-.262 1.25-3.242-.678-.588 2.636zm2.205 5.812l-.262 1.251-9.268-1.938.262-1.251 9.268 1.938zm-7.199-7.17c-.191.855-.156 1.537.106 2.045.27.523.752.857 1.445 1.002.681.142 1.232.03 1.652-.335.42-.366.726-.982.92-1.849l.525-2.336-4.122-.862-.526 2.335zM109.907 192.95l-1.331-.049.469-12.592 1.331.05-.469 12.591zM94.692 189.901l4.306 1.033-.268 1.12-9.907-2.376.268-1.121 4.306 1.033 2.67-11.132 1.296.311-2.67 11.132zM77.639 172.345l.522-1.027 7.878 4.005-.416.818-6.994 2.2c-.882.278-1.53.574-1.946.888a3.195 3.195 0 00-.973 1.121c-.337.663-.368 1.293-.093 1.891.259.603.811 1.119 1.656 1.549 1.316.668 2.55.77 3.701.306l.46 1.122c-.7.29-1.457.403-2.273.339-.826-.07-1.667-.322-2.523-.757-1.144-.582-1.91-1.314-2.295-2.197-.402-.878-.364-1.787.114-2.728a4.27 4.27 0 011.234-1.473c.528-.405 1.328-.772 2.398-1.103l5.728-1.814-6.178-3.14zM61.131 166.411c-.499-.685-.734-1.377-.707-2.075.01-.698.294-1.36.853-1.988.718-.807 1.572-1.163 2.564-1.067.975.096 2.045.662 3.21 1.699l4.33 3.853-8.376 9.413-4.06-3.613c-1.05-.934-1.674-1.866-1.872-2.798-.208-.94.03-1.795.717-2.566.463-.52.987-.848 1.574-.984.57-.136 1.16-.094 1.767.126zm1.609 8.13l3.04-3.416-3-2.668c-.761-.678-1.476-1.057-2.144-1.137-.676-.072-1.26.171-1.755.727-.495.555-.664 1.16-.507 1.814.15.663.605 1.333 1.367 2.011l2.999 2.669zm3.595-10.728c-.843-.75-1.607-1.173-2.293-1.269-.685-.096-1.3.161-1.842.77-1.045 1.175-.716 2.52.988 4.035l3.321 2.956 3.147-3.537-3.321-2.955z" fill="#636369"/><path d="M176.136 155c-12.154 19.519-30.31 28.198-41.136 31.826" stroke="#636369"/></svg>